<svg width="45" height="67" viewBox="0 0 45 67" fill="none" xmlns="http://www.w3.org/2000/svg">
    <path d="M1 23.8655C1 9.38636 10.7686 1 22.8306 1C34.8926 1 45.7992 12.3802 43.7509 27.7698C42.6655 35.9461 35.6104 46.1883 30.7611 56.5181C24.2487 70.3319 14.7076 64.7644 10.8037 60.6675" stroke="#E44126" stroke-width="1.5" stroke-miterlimit="10" stroke-linecap="round"/>
    <path d="M33.5973 25.9315C35.2079 17.9128 29.4133 11.0497 22.1481 11.0497C17.2988 11.0497 13.1322 13.6934 10.9964 18.4731C10.9439 18.5957 7.63516 24.1807 11.5391 30.5537C15.1455 36.4364 13.92 38.1171 13.4298 40.4982C12.7471 43.7547 13.4998 48.4294 17.964 49.0422C22.4982 49.655 24.1088 44.7702 24.1088 44.7702" stroke="#E44126" stroke-width="1.5" stroke-miterlimit="10" stroke-linecap="round"/>
</svg>
