<svg width="300" height="41" viewBox="0 0 300 41" fill="none" xmlns="http://www.w3.org/2000/svg">
    <path d="M54.9097 14.7064C53.309 14.5063 52.8588 13.0628 51.2081 12.3268C50.6222 12.0624 50.1505 12.0052 49.5145 11.9338C47.9424 11.7551 46.5275 12.141 45.4699 12.5983C45.5843 11.4478 45.5271 9.99721 44.8768 8.56803C44.6196 7.99636 44.4195 7.56046 43.9836 7.07453C42.7759 5.7311 41.261 5.75254 40.575 4.28762C40.4821 4.08039 40.4249 3.90174 40.3963 3.79456C40.3678 3.90889 40.3106 4.08754 40.2177 4.28762C39.5388 5.74539 38.0167 5.7311 36.8091 7.07453C36.3803 7.55331 36.1802 7.98206 35.9158 8.56803C35.2584 10.0115 35.187 11.4693 35.2942 12.6198C34.2366 12.1553 32.836 11.7623 31.2781 11.9409C30.6565 12.0124 30.1777 12.0695 29.5846 12.3339C27.9339 13.07 27.4837 14.5134 25.883 14.7135C25.6615 14.7421 25.4757 14.735 25.3613 14.7278C25.4614 14.7921 25.6114 14.8993 25.7758 15.0494C26.9549 16.1499 26.4689 17.5862 27.3693 19.1511C27.6909 19.7085 28.041 20.0301 28.5127 20.466C29.6846 21.5379 31.0495 22.0524 32.1714 22.3096C31.3996 23.1671 30.5993 24.382 30.2849 25.9183C30.1562 26.5329 30.0633 27.0045 30.1348 27.6476C30.3206 29.4413 31.564 30.3202 31.2567 31.8995C31.2138 32.121 31.1495 32.2996 31.1066 32.4068C31.1924 32.3354 31.3425 32.221 31.5425 32.1138C32.9503 31.3349 34.1651 32.2353 35.9301 31.8637C36.559 31.728 36.9734 31.4993 37.5308 31.1849C38.91 30.406 39.8247 29.2626 40.4106 28.2765C40.9895 29.2769 41.897 30.4131 43.2547 31.1849C43.7978 31.4921 44.2194 31.728 44.8554 31.8637C46.6204 32.2353 47.8352 31.3349 49.243 32.1138C49.4431 32.221 49.586 32.3354 49.6789 32.4068C49.636 32.2996 49.5788 32.121 49.5288 31.8995C49.2216 30.3202 50.4578 29.4413 50.6507 27.6476C50.715 27.0045 50.6222 26.54 50.5007 25.9183C50.1863 24.3677 49.3859 23.1386 48.6213 22.2811C49.7504 22.0381 51.1081 21.5307 52.2657 20.4731C52.7302 20.0515 53.0803 19.7228 53.4091 19.1583C54.3094 17.5933 53.8235 16.157 55.0026 15.0565C55.167 14.9065 55.317 14.7993 55.4171 14.735C55.317 14.7278 55.1312 14.735 54.9097 14.7064Z" fill="#F16687"/>
    <path d="M40.3386 18.9796L40.2242 14.3276C40.2099 13.5558 40.1671 12.7769 40.1885 12.0052C40.2171 11.2334 40.2385 10.4545 40.3386 9.68274H40.3743C40.4672 10.4545 40.4886 11.2334 40.5244 12.0052C40.5458 12.7769 40.5101 13.5558 40.4886 14.3276L40.3743 18.9796H40.3386Z" fill="#D5E2E9"/>
    <path d="M40.353 18.9939L35.8939 17.6648C35.1508 17.4432 34.4004 17.236 33.6716 16.9787C32.9427 16.7072 32.2138 16.4499 31.5063 16.1212L31.5135 16.0927C32.2781 16.2427 33.0213 16.4571 33.7716 16.6715C34.5148 16.893 35.2437 17.1645 35.9725 17.4218L40.3601 18.9653L40.353 18.9939Z" fill="#D5E2E9"/>
    <path d="M40.3744 18.9939L37.7304 22.8241C37.2874 23.4601 36.8658 24.1103 36.387 24.7249C35.9082 25.3323 35.4295 25.9468 34.9007 26.5185L34.8721 26.4971C35.2508 25.8182 35.6867 25.1751 36.1226 24.5319C36.5585 23.8888 37.0444 23.2885 37.5161 22.6669L40.3458 18.9724L40.3744 18.9939Z" fill="#D5E2E9"/>
    <path d="M40.3743 18.9724L43.2041 22.6669C43.6757 23.2814 44.1616 23.8888 44.5975 24.5319C45.0263 25.1751 45.4622 25.8182 45.8481 26.4971L45.8195 26.5185C45.2907 25.9468 44.8119 25.3323 44.3331 24.7249C43.8615 24.1103 43.4327 23.4601 42.9897 22.8241L40.3457 18.9939L40.3743 18.9724Z" fill="#D5E2E9"/>
    <path d="M40.353 18.9653L44.7406 17.4218C45.4695 17.1645 46.1984 16.893 46.9416 16.6715C47.6847 16.4571 48.4351 16.2427 49.1997 16.0927L49.2068 16.1212C48.4994 16.4499 47.7705 16.7143 47.0416 16.9787C46.3127 17.236 45.5624 17.4432 44.8192 17.6648L40.3602 18.9939L40.353 18.9653Z" fill="#D5E2E9"/>
    <path d="M42.4114 36.5586C41.0465 35.9726 40.3748 33.8217 40.6249 31.192H40.4034H40.1818C40.432 33.8217 39.7602 35.9726 38.3954 36.5586C38.1667 36.6586 37.8737 36.7301 37.5093 36.723C37.6165 36.8016 38.524 37.4876 39.5602 37.1589C39.9675 37.0302 40.2462 36.7873 40.4034 36.6229C40.5606 36.7873 40.8393 37.0302 41.2466 37.1589C42.2828 37.4876 43.1903 36.8016 43.2975 36.723C42.933 36.723 42.6472 36.6586 42.4114 36.5586Z" fill="#F599B1"/>
    <path d="M57.5107 22.6669C56.5317 23.7888 54.2807 23.7602 51.8582 22.7098L51.7868 22.9242L51.7153 23.1385C54.295 23.7102 56.1315 25.0179 56.2673 26.4971C56.2887 26.7472 56.2673 27.0474 56.1458 27.3904C56.253 27.3189 57.1891 26.6615 57.1962 25.5753C57.1962 25.1465 57.0605 24.8107 56.9461 24.6035C57.1534 24.5034 57.4678 24.3105 57.7179 23.9675C58.3467 23.0885 57.9752 22.0095 57.9323 21.8809C57.8322 22.2239 57.675 22.4811 57.5107 22.6669Z" fill="#F599B1"/>
    <path d="M48.9642 4.02319C49.7288 5.30231 49.0071 7.43894 47.2563 9.41122L47.435 9.53984L47.6136 9.66847C48.9571 7.39607 50.765 6.04549 52.2156 6.38135C52.4586 6.43852 52.7373 6.55285 53.0231 6.76723C52.9874 6.6386 52.6515 5.55242 51.6225 5.20942C51.2152 5.07364 50.8507 5.10223 50.6221 5.1451C50.5935 4.91643 50.5077 4.55914 50.2505 4.21613C49.6074 3.34433 48.464 3.36577 48.3354 3.36577C48.6427 3.58015 48.8356 3.80882 48.9642 4.02319Z" fill="#F599B1"/>
    <path d="M28.591 6.38844C30.0416 6.05973 31.8495 7.40316 33.193 9.67556L33.3716 9.54694L33.5503 9.41831C31.7995 7.43889 31.0778 5.30226 31.8424 4.03028C31.971 3.81591 32.164 3.58724 32.4641 3.38001C32.3355 3.37286 31.1921 3.35857 30.549 4.23037C30.2989 4.57337 30.2131 4.93067 30.1774 5.15934C29.9487 5.11646 29.5843 5.08788 29.177 5.22365C28.148 5.56666 27.8121 6.65998 27.7764 6.78146C28.0693 6.55994 28.348 6.44561 28.591 6.38844Z" fill="#F599B1"/>
    <path d="M24.5393 26.4971C24.6751 25.0179 26.5116 23.7102 29.0913 23.1385L29.0198 22.9241L28.9483 22.7097C26.5259 23.7602 24.2749 23.7888 23.2959 22.6669C23.1316 22.4739 22.9744 22.2238 22.8672 21.8737C22.8243 21.9951 22.4527 23.0742 23.0815 23.9603C23.3316 24.3104 23.6461 24.4962 23.8533 24.5962C23.7461 24.7963 23.6032 25.1393 23.6032 25.5681C23.6103 26.6543 24.5465 27.3046 24.6536 27.3832C24.5465 27.0402 24.5179 26.7472 24.5393 26.4971Z" fill="#F599B1"/>
    <path d="M43.6405 18.8939C43.6405 20.7089 42.1685 22.1738 40.3605 22.1738C38.5526 22.1738 37.0806 20.7018 37.0806 18.8939C37.0806 17.0788 38.5526 15.6139 40.3605 15.6139C42.1685 15.6139 43.6405 17.0788 43.6405 18.8939Z" fill="#F16687"/>
    <path d="M78.7336 19.9658L80.8131 20.3088L78.7336 20.6518C77.9904 20.7732 77.4045 21.3592 77.283 22.1024L76.94 24.1818L76.597 22.1024C76.4755 21.3592 75.8895 20.7732 75.1464 20.6518L73.0669 20.3088L75.1464 19.9658C75.8895 19.8443 76.4755 19.2583 76.597 18.5151L76.94 16.4357L77.283 18.5151C77.3973 19.2583 77.9833 19.8443 78.7336 19.9658Z" fill="#F599B1"/>
    <path d="M5.66671 19.9658L7.74618 20.3088L5.66671 20.6518C4.92354 20.7732 4.33757 21.3592 4.21609 22.1024L3.87309 24.1818L3.53008 22.1024C3.4086 21.3592 2.82264 20.7732 2.07946 20.6518L0 20.3088L2.07946 19.9658C2.82264 19.8443 3.4086 19.2583 3.53008 18.5151L3.87309 16.4357L4.21609 18.5151C4.33757 19.2583 4.92354 19.8443 5.66671 19.9658Z" fill="#F599B1"/>
    <path d="M127.976 14.7064C126.375 14.5063 125.925 13.0628 124.275 12.3268C123.689 12.0624 123.217 12.0052 122.581 11.9338C121.009 11.7551 119.594 12.141 118.536 12.5983C118.651 11.4478 118.594 9.99721 117.943 8.56803C117.686 7.99636 117.486 7.56046 117.05 7.07453C115.842 5.7311 114.327 5.75254 113.641 4.28762C113.548 4.08039 113.491 3.90174 113.463 3.79456C113.434 3.90889 113.377 4.08754 113.284 4.28762C112.605 5.74539 111.083 5.7311 109.875 7.07453C109.447 7.55331 109.247 7.98206 108.982 8.56803C108.325 10.0115 108.253 11.4693 108.361 12.6198C107.303 12.1553 105.902 11.7623 104.345 11.9409C103.723 12.0124 103.244 12.0695 102.651 12.3339C101 13.07 100.55 14.5134 98.9494 14.7135C98.7279 14.7421 98.5421 14.735 98.4277 14.7278C98.5278 14.7921 98.6778 14.8993 98.8422 15.0494C100.021 16.1499 99.5354 17.5862 100.436 19.1511C100.757 19.7085 101.107 20.0301 101.579 20.466C102.744 21.5379 104.116 22.0524 105.238 22.3096C104.466 23.1671 103.666 24.382 103.351 25.9183C103.223 26.5329 103.13 27.0045 103.201 27.6476C103.387 29.4413 104.63 30.3202 104.323 31.8995C104.28 32.121 104.216 32.2996 104.18 32.4068C104.266 32.3354 104.416 32.221 104.616 32.1138C106.024 31.3349 107.239 32.2353 109.004 31.8637C109.633 31.728 110.047 31.4993 110.604 31.1849C111.984 30.406 112.898 29.2626 113.484 28.2765C114.063 29.2769 114.971 30.4131 116.328 31.1849C116.871 31.4921 117.293 31.728 117.929 31.8637C119.694 32.2353 120.909 31.3349 122.324 32.1138C122.524 32.221 122.667 32.3354 122.76 32.4068C122.717 32.2996 122.66 32.121 122.617 31.8995C122.309 30.3202 123.546 29.4413 123.739 27.6476C123.803 27.0045 123.71 26.54 123.589 25.9183C123.274 24.3677 122.474 23.1386 121.709 22.2811C122.838 22.0381 124.196 21.5307 125.354 20.4731C125.818 20.0515 126.168 19.7228 126.497 19.1583C127.397 17.5933 126.911 16.157 128.09 15.0565C128.255 14.9065 128.405 14.7993 128.505 14.735C128.383 14.7278 128.198 14.735 127.976 14.7064Z" fill="#F16687"/>
    <path d="M113.406 18.9796L113.292 14.3276C113.277 13.5558 113.234 12.7769 113.256 12.0052C113.284 11.2334 113.306 10.4545 113.406 9.68274H113.442C113.535 10.4545 113.556 11.2334 113.592 12.0052C113.613 12.7769 113.577 13.5558 113.556 14.3276L113.442 18.9796H113.406Z" fill="#D5E2E9"/>
    <path d="M113.42 18.9939L108.961 17.6648C108.218 17.4432 107.468 17.236 106.739 16.9787C106.01 16.7072 105.281 16.4499 104.574 16.1212L104.581 16.0927C105.345 16.2427 106.089 16.4571 106.839 16.6715C107.582 16.893 108.311 17.1645 109.04 17.4218L113.428 18.9653L113.42 18.9939Z" fill="#D5E2E9"/>
    <path d="M113.434 18.9939L110.79 22.8241C110.347 23.4601 109.926 24.1103 109.447 24.7249C108.968 25.3323 108.49 25.9468 107.961 26.5185L107.932 26.4971C108.311 25.8182 108.747 25.1751 109.183 24.5319C109.619 23.8888 110.104 23.2885 110.576 22.6669L113.406 18.9724L113.434 18.9939Z" fill="#D5E2E9"/>
    <path d="M113.435 18.9724L116.265 22.6669C116.736 23.2814 117.222 23.8888 117.658 24.5319C118.087 25.1751 118.523 25.8182 118.909 26.4971L118.88 26.5185C118.351 25.9468 117.872 25.3323 117.394 24.7249C116.922 24.1103 116.493 23.4601 116.05 22.8241L113.406 18.9939L113.435 18.9724Z" fill="#D5E2E9"/>
    <path d="M113.42 18.9653L117.808 17.4218C118.537 17.1645 119.266 16.893 120.009 16.6715C120.752 16.4571 121.502 16.2427 122.267 16.0927L122.274 16.1212C121.567 16.4499 120.838 16.7143 120.109 16.9787C119.38 17.236 118.63 17.4432 117.887 17.6648L113.428 18.9939L113.42 18.9653Z" fill="#D5E2E9"/>
    <path d="M115.478 36.5586C114.113 35.9726 113.442 33.8217 113.692 31.192H113.47H113.249C113.499 33.8217 112.827 35.9726 111.462 36.5586C111.234 36.6586 110.941 36.7301 110.576 36.723C110.683 36.8016 111.591 37.4876 112.627 37.1589C113.034 37.0302 113.313 36.7873 113.47 36.6229C113.627 36.7873 113.906 37.0302 114.313 37.1589C115.35 37.4876 116.257 36.8016 116.364 36.723C116 36.723 115.714 36.6586 115.478 36.5586Z" fill="#F599B1"/>
    <path d="M130.57 22.6669C129.591 23.7888 127.34 23.7602 124.918 22.7098L124.846 22.9242L124.775 23.1385C127.355 23.7102 129.191 25.0179 129.327 26.4971C129.348 26.7472 129.327 27.0474 129.205 27.3904C129.313 27.3189 130.249 26.6615 130.256 25.5753C130.256 25.1465 130.12 24.8107 130.006 24.6035C130.213 24.5034 130.527 24.3105 130.777 23.9675C131.406 23.0885 131.035 22.0095 130.992 21.8809C130.892 22.2239 130.742 22.4811 130.57 22.6669Z" fill="#F599B1"/>
    <path d="M122.031 4.02319C122.796 5.30231 122.074 7.43894 120.323 9.41122L120.502 9.53984L120.681 9.66847C122.024 7.39607 123.832 6.04549 125.283 6.38135C125.525 6.43852 125.804 6.55285 126.09 6.76723C126.054 6.6386 125.718 5.55242 124.689 5.20942C124.282 5.07364 123.918 5.10223 123.689 5.1451C123.66 4.91643 123.575 4.55914 123.317 4.21613C122.674 3.34433 121.531 3.36577 121.402 3.36577C121.71 3.58015 121.902 3.80882 122.031 4.02319Z" fill="#F599B1"/>
    <path d="M101.658 6.38844C103.109 6.05973 104.916 7.40316 106.26 9.67556L106.439 9.54694L106.617 9.41831C104.866 7.43889 104.145 5.30226 104.909 4.03028C105.038 3.81591 105.231 3.58724 105.531 3.38001C105.402 3.37286 104.259 3.35857 103.616 4.23037C103.366 4.57337 103.28 4.93067 103.244 5.15934C103.016 5.11646 102.651 5.08788 102.244 5.22365C101.215 5.56666 100.879 6.65998 100.843 6.78146C101.136 6.55994 101.408 6.44561 101.658 6.38844Z" fill="#F599B1"/>
    <path d="M97.6062 26.4971C97.742 25.0179 99.5785 23.7102 102.158 23.1385L102.087 22.9241L102.015 22.7097C99.5928 23.7602 97.3418 23.7888 96.3628 22.6669C96.1985 22.4739 96.0412 22.2238 95.9341 21.8737C95.8912 21.9951 95.5196 23.0742 96.1484 23.9603C96.3985 24.3104 96.713 24.4962 96.9202 24.5962C96.813 24.7963 96.6701 25.1393 96.6701 25.5681C96.6772 26.6543 97.6133 27.3046 97.7205 27.3832C97.6062 27.0402 97.5848 26.7472 97.6062 26.4971Z" fill="#F599B1"/>
    <path d="M116.707 18.8939C116.707 20.7089 115.235 22.1738 113.427 22.1738C111.612 22.1738 110.147 20.7018 110.147 18.8939C110.147 17.0788 111.62 15.6139 113.427 15.6139C115.235 15.6139 116.707 17.0788 116.707 18.8939Z" fill="#F16687"/>
    <path d="M151.794 19.9658L153.873 20.3088L151.794 20.6518C151.05 20.7732 150.465 21.3592 150.343 22.1024L150 24.1818L149.657 22.1024C149.536 21.3592 148.95 20.7732 148.206 20.6518L146.127 20.3088L148.206 19.9658C148.95 19.8443 149.536 19.2583 149.657 18.5151L150 16.4357L150.343 18.5151C150.465 19.2583 151.05 19.8443 151.794 19.9658Z" fill="#F599B1"/>
    <path d="M78.7336 19.9658L80.8059 20.3088L78.7336 20.6518C77.9904 20.7732 77.4045 21.3592 77.283 22.1024L76.94 24.1818L76.597 22.1024C76.4755 21.3592 75.8895 20.7732 75.1464 20.6518L73.0669 20.3088L75.1464 19.9658C75.8895 19.8443 76.4755 19.2583 76.597 18.5151L76.94 16.4357L77.283 18.5151C77.3973 19.2583 77.9833 19.8443 78.7336 19.9658Z" fill="#F599B1"/>
    <path d="M201.043 14.7064C199.443 14.5063 198.993 13.0628 197.342 12.3268C196.756 12.0624 196.284 12.0052 195.648 11.9338C194.076 11.7551 192.661 12.141 191.604 12.5983C191.718 11.4478 191.661 9.99721 191.011 8.56803C190.753 7.99636 190.553 7.56046 190.117 7.07453C188.91 5.7311 187.395 5.75254 186.709 4.28762C186.616 4.08039 186.559 3.90174 186.53 3.79456C186.502 3.90889 186.444 4.08754 186.351 4.28762C185.673 5.74539 184.151 5.7311 182.943 7.07453C182.514 7.55331 182.314 7.98206 182.05 8.56803C181.392 10.0115 181.321 11.4693 181.428 12.6198C180.37 12.1553 178.97 11.7623 177.412 11.9409C176.79 12.0124 176.311 12.0695 175.718 12.3339C174.068 13.07 173.617 14.5134 172.017 14.7135C171.795 14.7421 171.609 14.735 171.495 14.7278C171.595 14.7921 171.745 14.8993 171.91 15.0494C173.089 16.1499 172.603 17.5862 173.503 19.1511C173.825 19.7085 174.175 20.0301 174.646 20.466C175.818 21.5379 177.183 22.0524 178.305 22.3096C177.533 23.1671 176.733 24.382 176.419 25.9183C176.29 26.5329 176.197 27.0045 176.269 27.6476C176.454 29.4413 177.698 30.3202 177.39 31.8995C177.348 32.121 177.283 32.2996 177.248 32.4068C177.333 32.3354 177.483 32.221 177.683 32.1138C179.091 31.3349 180.306 32.2353 182.071 31.8637C182.7 31.728 183.114 31.4993 183.672 31.1849C185.051 30.406 185.966 29.2626 186.552 28.2765C187.13 29.2769 188.038 30.4131 189.396 31.1849C189.939 31.4921 190.36 31.728 190.996 31.8637C192.761 32.2353 193.976 31.3349 195.384 32.1138C195.584 32.221 195.727 32.3354 195.82 32.4068C195.777 32.2996 195.72 32.121 195.677 31.8995C195.37 30.3202 196.606 29.4413 196.799 27.6476C196.863 27.0045 196.77 26.54 196.649 25.9183C196.334 24.3677 195.534 23.1386 194.769 22.2811C195.898 22.0381 197.256 21.5307 198.414 20.4731C198.878 20.0515 199.228 19.7228 199.557 19.1583C200.458 17.5933 199.972 16.157 201.151 15.0565C201.315 14.9065 201.465 14.7993 201.565 14.735C201.451 14.7278 201.265 14.735 201.043 14.7064Z" fill="#F16687"/>
    <path d="M186.473 18.9796L186.359 14.3276C186.344 13.5558 186.301 12.7769 186.323 12.0052C186.351 11.2334 186.373 10.4545 186.473 9.68274H186.509C186.601 10.4545 186.623 11.2334 186.659 12.0052C186.68 12.7769 186.644 13.5558 186.623 14.3276L186.509 18.9796H186.473Z" fill="#D5E2E9"/>
    <path d="M186.48 18.9939L182.021 17.6648C181.278 17.4432 180.527 17.236 179.799 16.9787C179.07 16.7072 178.341 16.4499 177.633 16.1212L177.64 16.0927C178.405 16.2427 179.148 16.4571 179.899 16.6715C180.642 16.893 181.371 17.1645 182.099 17.4218L186.487 18.9653L186.48 18.9939Z" fill="#D5E2E9"/>
    <path d="M186.501 18.9939L183.857 22.8241C183.414 23.4601 182.993 24.1103 182.514 24.7249C182.035 25.3323 181.556 25.9468 181.028 26.5185L180.999 26.4971C181.378 25.8182 181.814 25.1751 182.25 24.5319C182.685 23.8888 183.171 23.2885 183.643 22.6669L186.473 18.9724L186.501 18.9939Z" fill="#D5E2E9"/>
    <path d="M186.501 18.9724L189.331 22.6669C189.803 23.2814 190.289 23.8888 190.724 24.5319C191.153 25.1751 191.589 25.8182 191.975 26.4971L191.946 26.5185C191.418 25.9468 190.939 25.3323 190.46 24.7249C189.988 24.1103 189.56 23.4601 189.117 22.8241L186.473 18.9939L186.501 18.9724Z" fill="#D5E2E9"/>
    <path d="M186.48 18.9653L190.868 17.4218C191.596 17.1645 192.325 16.893 193.069 16.6715C193.812 16.4571 194.562 16.2427 195.327 16.0927L195.334 16.1212C194.626 16.4499 193.897 16.7143 193.169 16.9787C192.44 17.236 191.689 17.4432 190.946 17.6648L186.487 18.9939L186.48 18.9653Z" fill="#D5E2E9"/>
    <path d="M188.545 36.5586C187.18 35.9726 186.509 33.8217 186.759 31.192H186.537H186.316C186.566 33.8217 185.894 35.9726 184.529 36.5586C184.301 36.6586 184.008 36.7301 183.643 36.723C183.75 36.8016 184.658 37.4876 185.694 37.1589C186.101 37.0302 186.38 36.7873 186.537 36.6229C186.694 36.7873 186.973 37.0302 187.38 37.1589C188.417 37.4876 189.324 36.8016 189.431 36.723C189.067 36.723 188.774 36.6586 188.545 36.5586Z" fill="#F599B1"/>
    <path d="M203.637 22.6669C202.658 23.7888 200.407 23.7602 197.985 22.7098L197.913 22.9242L197.842 23.1385C200.421 23.7102 202.258 25.0179 202.394 26.4971C202.415 26.7472 202.394 27.0474 202.272 27.3904C202.379 27.3189 203.316 26.6615 203.323 25.5753C203.323 25.1465 203.187 24.8107 203.073 24.6035C203.28 24.5034 203.594 24.3105 203.844 23.9675C204.473 23.0885 204.102 22.0095 204.059 21.8809C203.959 22.2239 203.801 22.4811 203.637 22.6669Z" fill="#F599B1"/>
    <path d="M195.091 4.02319C195.855 5.30231 195.134 7.43894 193.383 9.41122L193.561 9.53984L193.74 9.66847C195.084 7.39607 196.891 6.04549 198.342 6.38135C198.585 6.43852 198.864 6.55285 199.15 6.76723C199.114 6.6386 198.778 5.55242 197.749 5.20942C197.342 5.07364 196.977 5.10223 196.749 5.1451C196.72 4.91643 196.634 4.55914 196.377 4.21613C195.734 3.34433 194.59 3.36577 194.462 3.36577C194.769 3.58015 194.962 3.80882 195.091 4.02319Z" fill="#F599B1"/>
    <path d="M174.717 6.38844C176.168 6.05973 177.976 7.40316 179.319 9.67556L179.498 9.54694L179.677 9.41831C177.926 7.43889 177.204 5.30226 177.969 4.03028C178.098 3.81591 178.29 3.58724 178.591 3.38001C178.462 3.37286 177.319 3.35857 176.675 4.23037C176.425 4.57337 176.34 4.93067 176.304 5.15934C176.075 5.11646 175.711 5.08788 175.303 5.22365C174.274 5.56666 173.939 6.65998 173.903 6.78146C174.196 6.55994 174.475 6.44561 174.717 6.38844Z" fill="#F599B1"/>
    <path d="M170.673 26.4971C170.809 25.0179 172.645 23.7102 175.225 23.1385L175.154 22.9241L175.082 22.7097C172.66 23.7602 170.409 23.7888 169.43 22.6669C169.265 22.4739 169.108 22.2238 169.001 21.8737C168.958 21.9951 168.586 23.0742 169.215 23.9603C169.465 24.3104 169.78 24.4962 169.987 24.5962C169.88 24.7963 169.737 25.1393 169.737 25.5681C169.744 26.6543 170.68 27.3046 170.787 27.3832C170.673 27.0402 170.652 26.7472 170.673 26.4971Z" fill="#F599B1"/>
    <path d="M189.767 18.8939C189.767 20.7089 188.295 22.1738 186.487 22.1738C184.672 22.1738 183.207 20.7018 183.207 18.8939C183.207 17.0788 184.679 15.6139 186.487 15.6139C188.302 15.6139 189.767 17.0788 189.767 18.8939Z" fill="#F16687"/>
    <path d="M224.861 19.9658L226.933 20.3088L224.861 20.6518C224.117 20.7732 223.531 21.3592 223.41 22.1024L223.067 24.1818L222.724 22.1024C222.602 21.3592 222.016 20.7732 221.273 20.6518L219.194 20.3088L221.273 19.9658C222.016 19.8443 222.602 19.2583 222.724 18.5151L223.067 16.4357L223.41 18.5151C223.531 19.2583 224.117 19.8443 224.861 19.9658Z" fill="#F599B1"/>
    <path d="M151.794 19.9658L153.873 20.3088L151.794 20.6518C151.05 20.7732 150.465 21.3592 150.343 22.1024L150 24.1818L149.657 22.1024C149.536 21.3592 148.95 20.7732 148.206 20.6518L146.127 20.3088L148.206 19.9658C148.95 19.8443 149.536 19.2583 149.657 18.5151L150 16.4357L150.343 18.5151C150.465 19.2583 151.05 19.8443 151.794 19.9658Z" fill="#F599B1"/>
    <path d="M224.861 19.9658L226.94 20.3088L224.861 20.6518C224.118 20.7732 223.532 21.3592 223.41 22.1024L223.067 24.1818L222.724 22.1024C222.603 21.3592 222.017 20.7732 221.273 20.6518L219.201 20.3088L221.273 19.9658C222.017 19.8443 222.603 19.2583 222.724 18.5151L223.067 16.4357L223.41 18.5151C223.532 19.2583 224.118 19.8443 224.861 19.9658Z" fill="#F599B1"/>
</svg>
