<svg width="74" height="85" viewBox="0 0 74 85" fill="none" xmlns="http://www.w3.org/2000/svg">
    <path d="M44.4514 73.1977H29.1587C27.6309 73.1977 26.377 71.9437 26.377 70.4157C26.377 68.8877 27.6309 67.6337 29.1587 67.6337H44.4514C45.9792 67.6337 47.2332 68.8877 47.2332 70.4157C47.2332 71.9437 45.9792 73.1977 44.4514 73.1977ZM29.1587 68.9022C28.3228 68.9022 27.6453 69.5797 27.6453 70.4157C27.6453 71.2518 28.3228 71.9292 29.1587 71.9292H44.4514C45.2874 71.9292 45.9648 71.2518 45.9648 70.4157C45.9648 69.5797 45.2874 68.9022 44.4514 68.9022H29.1587Z" fill="#E44126"/>
    <path d="M36.8128 84.0808C34.6796 84.0808 32.8635 82.6538 32.3446 80.6213C29.6061 80.2177 27.5161 77.8681 27.5161 75.0572V74.423H46.1094V75.0572C46.1094 77.8681 44.0339 80.2177 41.2953 80.6213C40.7621 82.6538 38.946 84.0808 36.8128 84.0808ZM28.8277 75.7059C29.1304 77.7095 30.8024 79.2951 32.9067 79.4105L33.4256 79.4393L33.4977 79.9438C33.7427 81.6015 35.1408 82.8123 36.8128 82.8123C38.4847 82.8123 39.8828 81.6015 40.1279 79.9438L40.1999 79.4393L40.7188 79.4105C42.8088 79.2807 44.4807 77.7095 44.7834 75.7059H28.8277Z" fill="#E44126"/>
    <path d="M46.8585 66.3507H26.6364V59.0281C24.6906 55.7415 22.4277 52.4261 20.0639 49.4423C17.0803 45.6657 15.5093 41.1106 15.5093 36.3105C15.5093 24.5626 25.0654 15.0056 36.8123 15.0056C48.5593 15.0056 58.1154 24.5626 58.1154 36.3105C58.1154 41.125 56.5443 45.6657 53.5607 49.4567C51.442 52.1523 48.9484 55.7992 46.8729 59.2299V66.3507H46.8585ZM27.9048 65.0822H45.5757V58.8551L45.6622 58.6965C47.7809 55.1794 50.3465 51.4171 52.523 48.6351C55.3336 45.0747 56.8037 40.8079 56.8037 36.2817C56.8037 25.24 47.8242 16.2597 36.7835 16.2597C25.7428 16.2597 16.7632 25.24 16.7632 36.2817C16.7632 40.8079 18.2478 45.0747 21.044 48.6351C23.4655 51.7198 25.8149 55.1361 27.8039 58.5236L27.8904 58.6677V65.0822H27.9048Z" fill="#E44126"/>
    <path d="M29.9811 43.0012L28.5591 43.3127L33.3955 65.3906L34.8175 65.079L29.9811 43.0012Z" fill="#E44126"/>
    <path d="M43.6369 43.0356L38.8032 65.587L40.0434 65.8529L44.8771 43.3014L43.6369 43.0356Z" fill="#E44126"/>
    <path d="M40.5028 79.4393H33.3394V80.7078H40.5028V79.4393Z" fill="#E44126"/>
    <path d="M35.6737 50.7542L34.3909 45.8676L30.9317 48.174L30.4272 47.4244L34.9531 44.3973L35.8611 47.8857L38.1961 42.2063L40.1275 47.6983L43.5291 46.1415L43.9038 46.9631L39.5942 48.938L38.124 44.7577L35.6737 50.7542Z" fill="#E44126"/>
    <path d="M37.6048 10.5516C37.3022 10.5516 37.0571 10.3065 37.0571 10.0038V0.547758C37.0571 0.24505 37.3022 0 37.6048 0C37.9075 0 38.1525 0.24505 38.1525 0.547758V10.0038C38.1525 10.3065 37.9075 10.5516 37.6048 10.5516Z" fill="#E44126"/>
    <path d="M52.1055 14.0976C52.0046 14.0976 51.9181 14.0688 51.8172 14.0255C51.5578 13.867 51.4713 13.5354 51.6299 13.276L56.5304 5.18934C56.689 4.92987 57.0205 4.84338 57.2799 5.00195C57.5394 5.16051 57.6259 5.49205 57.4673 5.75151L52.5667 13.8381C52.4658 14.0111 52.2785 14.0976 52.1055 14.0976Z" fill="#E44126"/>
    <path d="M61.1127 25.514C60.911 25.514 60.7236 25.4131 60.6227 25.2257C60.4785 24.9518 60.5794 24.6347 60.8533 24.4905L69.2419 20.1084C69.5158 19.9643 69.8329 20.0796 69.977 20.3391C70.1211 20.613 70.0202 20.9301 69.7464 21.0742L61.3578 25.4563C61.2857 25.4995 61.1992 25.514 61.1127 25.514Z" fill="#E44126"/>
    <path d="M73.2793 39.0061C73.2649 39.0061 73.2504 39.0061 73.2504 39.0061L63.8096 38.4007C63.507 38.3863 63.2763 38.1268 63.3052 37.8241C63.3196 37.5214 63.579 37.2907 63.8817 37.3196L73.3225 37.925C73.6252 37.9394 73.8558 38.1989 73.827 38.5016C73.8126 38.7899 73.5675 39.0061 73.2793 39.0061Z" fill="#E44126"/>
    <path d="M67.2538 58.0623C67.1529 58.0623 67.0376 58.0335 66.9367 57.9614L59.1679 52.5559C58.9229 52.3829 58.8652 52.037 59.0382 51.7919C59.2111 51.5469 59.5571 51.4892 59.8021 51.6622L67.5709 57.0677C67.816 57.2407 67.8736 57.5866 67.7007 57.8317C67.5998 57.9758 67.4268 58.0623 67.2538 58.0623Z" fill="#E44126"/>
    <path d="M21.7207 14.0976C21.5333 14.0976 21.3603 14.0111 21.2594 13.8381L16.3589 5.75151C16.2003 5.49205 16.2868 5.16051 16.5462 5.00195C16.8057 4.84338 17.1372 4.92987 17.2957 5.18934L22.1963 13.276C22.3549 13.5354 22.2684 13.867 22.0089 14.0255C21.9225 14.0688 21.8216 14.0976 21.7207 14.0976Z" fill="#E44126"/>
    <path d="M12.713 25.514C12.6265 25.514 12.5401 25.4996 12.468 25.4564L4.07937 21.0743C3.80552 20.9302 3.70462 20.5986 3.84876 20.3392C3.99289 20.0653 4.3244 19.9644 4.58384 20.1085L12.9725 24.4906C13.2463 24.6347 13.3472 24.9663 13.2031 25.2257C13.1022 25.4131 12.9148 25.514 12.713 25.514Z" fill="#E44126"/>
    <path d="M0.548351 39.0061C0.260082 39.0061 0.0294676 38.7899 0.000640736 38.5016C-0.0137727 38.1989 0.216842 37.9394 0.505111 37.925L9.94591 37.3196C10.2486 37.3052 10.508 37.5358 10.5224 37.8241C10.5369 38.1268 10.3062 38.3863 10.018 38.4007L0.577178 39.0061C0.562764 39.0061 0.562764 39.0061 0.548351 39.0061Z" fill="#E44126"/>
    <path d="M6.57386 58.0623C6.4009 58.0623 6.22794 57.9758 6.12704 57.8317C5.95408 57.5866 6.01174 57.2407 6.25677 57.0677L14.0256 51.6622C14.2706 51.4892 14.6166 51.5469 14.7895 51.7919C14.9625 52.037 14.9048 52.3829 14.6598 52.5559L6.89096 57.9614C6.79006 58.0335 6.67475 58.0623 6.57386 58.0623Z" fill="#E44126"/>
</svg>
