<svg width="16" height="16" viewBox="0 0 16 16" fill="none" xmlns="http://www.w3.org/2000/svg">
    <g clip-path="url(#clip0_207_7732)">
        <path d="M6.55469 7.17437C7.84501 7.32921 8.72243 7.07115 9.34178 6.86469C10.7353 6.34857 11.3547 5.36792 12.8515 5.36792C13.3676 5.36792 13.7805 5.47115 13.8837 5.52276C14.8128 5.83244 15.9482 6.70986 15.8966 7.79373C15.8966 8.36147 15.5869 8.77437 15.5353 8.82598C15.0708 9.44534 14.5031 9.34211 14.3998 9.75502C14.245 10.2195 14.8644 10.4776 14.8644 11.1486C14.8644 11.7163 14.4515 12.1808 14.3482 12.3357C13.3676 13.3679 11.716 12.955 11.6128 12.955C11.0966 12.8002 10.7353 12.5937 10.6321 12.4905C9.44501 11.6131 9.54824 10.3228 8.6192 8.98082C8.25791 8.46469 7.63856 7.74211 6.55469 7.17437Z" fill="#E44126"/>
        <path d="M6.55469 7.17437C7.84501 7.32921 8.72243 7.07115 9.34178 6.86469C10.7353 6.34857 11.3547 5.36792 12.8515 5.36792C13.3676 5.36792 13.7805 5.47115 13.8837 5.52276C14.8128 5.83244 15.9482 6.70986 15.8966 7.79373C15.8966 8.36147 15.5869 8.77437 15.5353 8.82598C15.0708 9.44534 14.5031 9.34211 14.3998 9.75502C14.245 10.2195 14.8644 10.4776 14.8644 11.1486C14.8644 11.7163 14.4515 12.1808 14.3482 12.3357C13.3676 13.3679 11.716 12.955 11.6128 12.955C11.0966 12.8002 10.7353 12.5937 10.6321 12.4905C9.44501 11.6131 9.54824 10.3228 8.6192 8.98082C8.25791 8.46469 7.63856 7.74211 6.55469 7.17437Z" stroke="white" stroke-width="0.3489" stroke-miterlimit="10" stroke-linecap="round" stroke-linejoin="round"/>
        <path d="M7.0708 8.87747C7.58693 7.69037 7.63854 6.76134 7.63854 6.14199C7.58693 4.64521 6.86435 3.76779 7.27725 2.32263C7.43209 1.8065 7.63854 1.49683 7.74177 1.3936C8.30951 0.567794 9.49661 -0.206399 10.5289 0.154891C11.045 0.361343 11.3547 0.774246 11.4063 0.825859C11.8708 1.44521 11.5611 1.96134 11.974 2.21941C12.3869 2.47747 12.7998 2.01296 13.4708 2.21941C14.0385 2.37425 14.3482 2.94199 14.3998 3.09683C15.1224 4.33554 14.1934 5.83231 14.0902 5.88392C13.7805 6.34844 13.4708 6.6065 13.3676 6.65812C12.1805 7.53554 10.9418 7.01941 9.39338 7.48392C8.82564 7.63876 7.99983 8.00005 7.0708 8.87747Z" fill="#E44126"/>
        <path d="M7.0708 8.87747C7.58693 7.69037 7.63854 6.76134 7.63854 6.14199C7.58693 4.64521 6.86435 3.76779 7.27725 2.32263C7.43209 1.8065 7.63854 1.49683 7.74177 1.3936C8.30951 0.567794 9.49661 -0.206399 10.5289 0.154891C11.045 0.361343 11.3547 0.774246 11.4063 0.825859C11.8708 1.44521 11.5611 1.96134 11.974 2.21941C12.3869 2.47747 12.7998 2.01296 13.4708 2.21941C14.0385 2.37425 14.3482 2.94199 14.3998 3.09683C15.1224 4.33554 14.1934 5.83231 14.0902 5.88392C13.7805 6.34844 13.4708 6.6065 13.3676 6.65812C12.1805 7.53554 10.9418 7.01941 9.39338 7.48392C8.82564 7.63876 7.99983 8.00005 7.0708 8.87747Z" stroke="white" stroke-width="0.3489" stroke-miterlimit="10" stroke-linecap="round" stroke-linejoin="round"/>
        <path d="M8.87739 8.92899C7.94836 8.05157 7.07094 7.7419 6.45159 7.53544C5.00642 7.17415 3.92255 7.53544 2.73546 6.70964C2.32255 6.39996 2.06449 6.09028 1.96126 5.98706C1.39352 5.16125 1.03223 3.7677 1.65159 2.94189C2.01288 2.47738 2.47739 2.32254 2.529 2.32254C3.3032 2.06447 3.66449 2.47738 4.02578 2.21931C4.38707 1.90964 4.07739 1.39351 4.49029 0.825765C4.85159 0.361249 5.41933 0.20641 5.62578 0.20641C7.01933 -0.0516542 8.15481 1.23867 8.20642 1.34189C8.56771 1.7548 8.67094 2.1677 8.72255 2.27093C9.13546 3.66448 8.25804 4.64512 8.25804 6.29673C8.20642 6.86448 8.30965 7.79351 8.87739 8.92899Z" fill="#E44126"/>
        <path d="M8.87739 8.92899C7.94836 8.05157 7.07094 7.74189 6.45159 7.53544C5.00642 7.17415 3.92255 7.53544 2.73546 6.70964C2.32255 6.39996 2.06449 6.09028 1.96126 5.98706C1.39352 5.16125 1.03223 3.7677 1.65159 2.94189C2.01288 2.47738 2.47739 2.32254 2.529 2.32254C3.3032 2.06447 3.66449 2.47738 4.02578 2.21931C4.38707 1.90964 4.07739 1.39351 4.49029 0.825765C4.85159 0.361249 5.41933 0.20641 5.62578 0.20641C7.01933 -0.0516542 8.15481 1.23867 8.20642 1.34189C8.56771 1.7548 8.67094 2.1677 8.72255 2.27093C9.13546 3.66448 8.25804 4.64512 8.25804 6.29673C8.20642 6.86448 8.30965 7.79351 8.87739 8.92899Z" stroke="white" stroke-width="0.3489" stroke-miterlimit="10" stroke-linecap="round" stroke-linejoin="round"/>
        <path d="M9.44494 7.17423C8.36107 7.79358 7.74171 8.51616 7.38042 9.0839C6.55462 10.3226 6.60623 11.4581 5.41913 12.3871C5.00623 12.6968 4.59333 12.8516 4.4901 12.9033C3.56107 13.2129 2.11591 13.1613 1.49655 12.2323C1.18688 11.7678 1.18688 11.2516 1.18688 11.2C1.18688 10.4258 1.70301 10.1678 1.54817 9.75487C1.39333 9.29036 0.773973 9.44519 0.36107 8.87745C-0.000220634 8.41294 0.103005 7.79358 0.103005 7.63874C0.257844 6.24519 1.85784 5.57423 1.96107 5.52261C2.4772 5.31616 2.8901 5.31616 3.04494 5.31616C4.54171 5.31616 5.21268 6.45165 6.76107 6.96777C7.32881 7.17423 8.20623 7.38068 9.44494 7.17423Z" fill="#E44126"/>
        <path d="M9.44494 7.17423C8.36107 7.79358 7.74171 8.51616 7.38042 9.0839C6.55462 10.3226 6.60623 11.4581 5.41913 12.3871C5.00623 12.6968 4.59333 12.8516 4.4901 12.9033C3.56107 13.2129 2.11591 13.1613 1.49655 12.2323C1.18688 11.7678 1.18688 11.2516 1.18688 11.2C1.18688 10.4258 1.70301 10.1678 1.54817 9.75487C1.39333 9.29036 0.773973 9.44519 0.36107 8.87745C-0.000220634 8.41294 0.103005 7.79358 0.103005 7.63874C0.257844 6.24519 1.85784 5.57423 1.96107 5.52261C2.4772 5.31616 2.8901 5.31616 3.04494 5.31616C4.54171 5.31616 5.21268 6.45165 6.76107 6.96777C7.32881 7.17423 8.20623 7.38068 9.44494 7.17423Z" stroke="white" stroke-width="0.3489" stroke-miterlimit="10" stroke-linecap="round" stroke-linejoin="round"/>
        <path d="M7.99967 6.14209C8.25773 7.3808 8.77386 8.20661 9.18676 8.67112C10.1158 9.80661 11.2513 10.1679 11.7158 11.5098C11.8706 12.026 11.9222 12.3873 11.9222 12.5421C11.9222 13.5227 11.4061 14.8647 10.3739 15.1743C9.85773 15.3292 9.3416 15.1743 9.28999 15.1743C8.56741 14.9163 8.46418 14.4002 8.05128 14.4002C7.58676 14.4002 7.53515 15.0195 6.86418 15.2776C6.29644 15.484 5.78031 15.226 5.57386 15.1227C4.23192 14.555 4.1287 12.8002 4.1287 12.6969C4.07708 12.1808 4.23192 11.7679 4.23192 11.6131C4.69644 10.2195 5.98676 9.90983 6.96741 8.61951C7.3287 8.15499 7.79321 7.3808 7.99967 6.14209Z" fill="#E44126"/>
        <path d="M7.99966 6.14209C8.25773 7.3808 8.77386 8.20661 9.18676 8.67112C10.1158 9.80661 11.2513 10.1679 11.7158 11.5098C11.8706 12.026 11.9222 12.3873 11.9222 12.5421C11.9222 13.5227 11.4061 14.8647 10.3739 15.1743C9.85773 15.3292 9.3416 15.1743 9.28999 15.1743C8.56741 14.9163 8.46418 14.4002 8.05128 14.4002C7.58676 14.4002 7.53515 15.0195 6.86418 15.2776C6.29644 15.484 5.78031 15.226 5.57386 15.1227C4.23192 14.555 4.1287 12.8002 4.1287 12.6969C4.07708 12.1808 4.23192 11.7679 4.23192 11.6131C4.69644 10.2195 5.98676 9.90983 6.96741 8.61951C7.3287 8.15499 7.79321 7.3808 7.99966 6.14209Z" stroke="white" stroke-width="0.3489" stroke-miterlimit="10" stroke-linecap="round" stroke-linejoin="round"/>
        <path d="M8.10305 8.87738C7.94821 8.10319 7.63854 7.58706 7.38047 7.27738C6.81273 6.5548 6.09015 6.34835 5.78047 5.47093C5.67725 5.16125 5.67725 4.90319 5.67725 4.79996C5.67725 4.18061 5.98692 3.3548 6.65789 3.14835C7.01918 3.04512 7.32886 3.14835 7.32886 3.14835C7.79338 3.30319 7.84499 3.66448 8.10305 3.66448C8.41273 3.66448 8.46434 3.25157 8.87725 3.09674C9.23854 2.99351 9.59983 3.14835 9.70305 3.19996C10.5289 3.56125 10.5805 4.69674 10.5805 4.74835C10.5805 5.10964 10.5289 5.3677 10.4772 5.41932C10.2192 6.29674 9.39337 6.50319 8.72241 7.32899C8.51596 7.58706 8.20628 8.10319 8.10305 8.87738Z" fill="white"/>
        <path d="M8.10305 8.87738C7.94821 8.10319 7.63854 7.58706 7.38047 7.27738C6.81273 6.5548 6.09015 6.34835 5.78047 5.47093C5.67725 5.16125 5.67725 4.90319 5.67725 4.79996C5.67725 4.18061 5.98692 3.3548 6.65789 3.14835C7.01918 3.04512 7.32886 3.14835 7.32886 3.14835C7.79337 3.30319 7.84499 3.66448 8.10305 3.66448C8.41273 3.66448 8.46434 3.25157 8.87725 3.09674C9.23854 2.99351 9.59983 3.14835 9.70305 3.19996C10.5289 3.56125 10.5805 4.69674 10.5805 4.74835C10.5805 5.10964 10.5289 5.3677 10.4772 5.41932C10.2192 6.29674 9.39337 6.50319 8.72241 7.32899C8.51596 7.58706 8.20628 8.10319 8.10305 8.87738Z" stroke="#E44126" stroke-width="0.3489" stroke-miterlimit="10" stroke-linecap="round" stroke-linejoin="round"/>
        <path d="M9.39349 7.6388C8.6193 7.79364 8.10317 8.10331 7.79349 8.36138C7.07091 8.92912 6.86446 9.6517 5.98704 9.96138C5.67736 10.0646 5.4193 10.0646 5.31607 10.0646C4.69672 10.0646 3.87091 9.75493 3.66446 9.08396C3.56124 8.72267 3.66446 8.41299 3.66446 8.41299C3.8193 7.94847 4.18059 7.89686 4.18059 7.6388C4.18059 7.32912 3.76769 7.27751 3.61285 6.8646C3.50962 6.50331 3.66446 6.14202 3.71607 6.0388C4.07736 5.21299 5.21285 5.16138 5.26446 5.16138C5.62575 5.16138 5.88382 5.21299 5.93543 5.2646C6.81285 5.52267 7.0193 6.34847 7.84511 7.01944C8.10317 7.17428 8.56769 7.48396 9.39349 7.6388Z" fill="white"/>
        <path d="M9.39349 7.6388C8.6193 7.79364 8.10317 8.10331 7.79349 8.36138C7.07091 8.92912 6.86446 9.6517 5.98704 9.96138C5.67736 10.0646 5.4193 10.0646 5.31607 10.0646C4.69672 10.0646 3.87091 9.75493 3.66446 9.08396C3.56124 8.72267 3.66446 8.41299 3.66446 8.41299C3.8193 7.94847 4.18059 7.89686 4.18059 7.6388C4.18059 7.32912 3.76769 7.27751 3.61285 6.8646C3.50962 6.50331 3.66446 6.14202 3.71607 6.0388C4.07736 5.21299 5.21285 5.16138 5.26446 5.16138C5.62575 5.16138 5.88382 5.21299 5.93543 5.2646C6.81285 5.52267 7.0193 6.34847 7.84511 7.01944C8.10317 7.17428 8.56769 7.48396 9.39349 7.6388Z" stroke="#E44126" stroke-width="0.3489" stroke-miterlimit="10" stroke-linecap="round" stroke-linejoin="round"/>
        <path d="M8.10291 6.34839C8.25775 7.12258 8.56742 7.63871 8.82549 7.94839C9.39323 8.67097 10.1158 8.87742 10.4255 9.75484C10.5287 10.0645 10.5287 10.3226 10.5287 10.4258C10.5287 11.0452 10.219 11.871 9.54807 12.0774C9.18678 12.1806 8.8771 12.0774 8.8771 12.0774C8.41259 11.9226 8.36097 11.5613 8.10291 11.5613C7.79323 11.5613 7.74162 11.9742 7.32871 12.129C6.96742 12.2323 6.60613 12.0774 6.50291 12.0258C5.6771 11.6645 5.62549 10.529 5.62549 10.4774C5.62549 10.1161 5.6771 9.85807 5.72871 9.80645C5.98678 8.92903 6.81259 8.72258 7.48355 7.89678C7.69 7.63871 7.94807 7.12258 8.10291 6.34839Z" fill="white"/>
        <path d="M8.10291 6.34839C8.25775 7.12258 8.56742 7.63871 8.82549 7.94839C9.39323 8.67097 10.1158 8.87742 10.4255 9.75484C10.5287 10.0645 10.5287 10.3226 10.5287 10.4258C10.5287 11.0452 10.219 11.871 9.54807 12.0774C9.18678 12.1806 8.8771 12.0774 8.8771 12.0774C8.41259 11.9226 8.36097 11.5613 8.10291 11.5613C7.79323 11.5613 7.74162 11.9742 7.32871 12.129C6.96742 12.2323 6.60613 12.0774 6.50291 12.0258C5.6771 11.6645 5.62549 10.529 5.62549 10.4774C5.62549 10.1161 5.6771 9.85807 5.72871 9.80645C5.98678 8.92903 6.81259 8.72258 7.48355 7.89678C7.69 7.63871 7.94807 7.12258 8.10291 6.34839Z" stroke="#E44126" stroke-width="0.3489" stroke-miterlimit="10" stroke-linecap="round" stroke-linejoin="round"/>
        <path d="M6.8125 7.6387C7.58669 7.48386 8.10282 7.17418 8.4125 6.91612C9.13508 6.34837 9.34153 5.62579 10.219 5.31612C10.5286 5.21289 10.7867 5.21289 10.8899 5.21289C11.5093 5.21289 12.3351 5.52257 12.5415 6.19354C12.6448 6.55483 12.5415 6.8645 12.5415 6.8645C12.3867 7.32902 12.0254 7.38063 12.0254 7.6387C12.0254 7.94837 12.4383 7.99999 12.5931 8.41289C12.6964 8.77418 12.5415 9.13547 12.4899 9.2387C12.1286 10.0645 10.9931 10.1161 10.9415 10.1161C10.5802 10.1161 10.3222 10.0645 10.2706 10.0129C9.39314 9.75483 9.18669 8.92902 8.36089 8.25805C8.10282 8.0516 7.58669 7.74192 6.8125 7.6387Z" fill="white"/>
        <path d="M6.8125 7.6387C7.58669 7.48386 8.10282 7.17418 8.4125 6.91612C9.13508 6.34837 9.34153 5.62579 10.219 5.31612C10.5286 5.21289 10.7867 5.21289 10.8899 5.21289C11.5093 5.21289 12.3351 5.52257 12.5415 6.19354C12.6448 6.55483 12.5415 6.8645 12.5415 6.8645C12.3867 7.32902 12.0254 7.38063 12.0254 7.6387C12.0254 7.94837 12.4383 7.99999 12.5931 8.41289C12.6964 8.77418 12.5415 9.13547 12.4899 9.2387C12.1286 10.0645 10.9931 10.1161 10.9415 10.1161C10.5802 10.1161 10.3222 10.0645 10.2706 10.0129C9.39314 9.75483 9.18669 8.92902 8.36089 8.25805C8.10282 8.0516 7.58669 7.74192 6.8125 7.6387Z" stroke="#E44126" stroke-width="0.3489" stroke-miterlimit="10" stroke-linecap="round" stroke-linejoin="round"/>
        <path d="M8.6193 5.93549C9.54833 6.24517 10.0645 7.22581 9.75478 8.20646C9.4451 9.13549 8.46446 9.65162 7.48381 9.34194C6.55478 9.03226 6.03865 8.05162 6.34833 7.07097C6.70962 6.14194 7.69027 5.62581 8.6193 5.93549Z" fill="#F26664"/>
    </g>
    <defs>
        <clipPath id="clip0_207_7732">
            <rect width="16" height="15.4323" fill="white"/>
        </clipPath>
    </defs>
</svg>
