<svg width="16" height="16" viewBox="0 0 16 16" fill="none" xmlns="http://www.w3.org/2000/svg">
    <g clip-path="url(#clip0_207_8349)">
        <path d="M6.10398 2.82089C6.75138 2.77465 7.35254 2.72841 7.99993 2.63592C7.99993 2.54344 7.95369 2.40471 7.86121 2.26598C7.53751 1.80355 6.70514 1.66482 6.33519 2.08101C6.05774 2.31222 6.05774 2.68216 6.10398 2.82089Z" fill="#50254A"/>
        <path d="M9.84957 2.82089C9.20217 2.77465 8.60101 2.72841 7.95361 2.63592C7.95361 2.54344 7.99986 2.40471 8.09234 2.26598C8.41604 1.80355 9.24841 1.66482 9.61835 2.08101C9.89581 2.31222 9.84957 2.68216 9.84957 2.82089Z" fill="#50254A"/>
        <path d="M7.95338 2.40454C7.95338 2.40454 6.93604 2.54327 6.93604 3.60685C6.93604 4.67044 7.95338 5.27159 7.95338 5.27159C7.95338 5.27159 8.97072 4.62419 8.97072 3.60685C8.97072 2.58951 7.95338 2.40454 7.95338 2.40454Z" fill="#883F71"/>
        <path d="M8.36954 2.63574H7.62965C7.49092 2.72823 7.39844 2.9132 7.39844 3.14441C7.39844 3.79181 7.95335 4.16175 7.95335 4.16175C7.95335 4.16175 8.50826 3.74557 8.50826 3.14441C8.55451 2.9132 8.46202 2.72823 8.36954 2.63574Z" fill="#50254A"/>
        <path d="M7.95341 0.0925293C7.95341 0.0925293 7.25977 0.647443 7.25977 1.5723C7.25977 2.49715 7.95341 2.63588 7.95341 2.63588C7.95341 2.63588 8.64705 2.49715 8.64705 1.5723C8.69329 0.647443 7.95341 0.0925293 7.95341 0.0925293Z" fill="#883F71" stroke="white" stroke-width="0.2712" stroke-miterlimit="10"/>
        <path d="M7.95361 2.72849C7.76864 2.636 7.30621 2.45103 6.7513 2.54352C6.05765 2.636 5.27153 3.19092 5.17904 3.9308C5.17904 4.02329 5.1328 4.53196 5.4565 4.94814C5.7802 5.31808 6.33511 5.45681 6.89002 5.36433C6.70505 5.27184 6.47384 5.04063 6.33511 4.71693C6.05765 4.02329 6.52008 3.14467 7.16748 2.86722C7.49118 2.68225 7.81488 2.68225 7.95361 2.72849Z" fill="#883F71"/>
        <path d="M7.95361 2.72849C8.13858 2.636 8.60101 2.45103 9.15592 2.54352C9.84957 2.636 10.6357 3.19092 10.7282 3.9308C10.7282 4.02329 10.7744 4.53196 10.4507 4.94814C10.127 5.31808 9.57211 5.45681 9.0172 5.36433C9.20217 5.27184 9.43338 5.04063 9.57211 4.71693C9.84957 4.02329 9.38714 3.14467 8.73974 2.86722C8.46228 2.68225 8.13858 2.68225 7.95361 2.72849Z" fill="#883F71"/>
        <path d="M6.89014 3.14456C6.89014 3.14456 7.21384 2.68213 7.99996 2.68213C8.78609 2.68213 9.10979 3.14456 9.10979 3.14456" stroke="white" stroke-width="0.1806" stroke-miterlimit="10"/>
        <path d="M2.8204 9.89571C2.77416 9.24831 2.72792 8.64715 2.63543 7.99976C2.54295 7.99976 2.40422 8.046 2.26549 8.13848C1.80306 8.46218 1.66433 9.29455 2.08052 9.6645C2.31173 9.94195 2.68168 9.94195 2.8204 9.89571Z" fill="#50254A"/>
        <path d="M2.8204 6.15011C2.77416 6.79751 2.72792 7.39866 2.63543 8.04606C2.54295 8.04606 2.40422 7.99982 2.26549 7.90733C1.80306 7.58363 1.66433 6.75126 2.08052 6.38132C2.31173 6.10386 2.68168 6.15011 2.8204 6.15011Z" fill="#50254A"/>
        <path d="M2.4043 8.04615C2.4043 8.04615 2.54303 9.06349 3.60661 9.06349C4.62395 9.06349 5.27135 8.04615 5.27135 8.04615C5.27135 8.04615 4.62395 7.02881 3.60661 7.02881C2.58927 6.98257 2.4043 8.04615 2.4043 8.04615Z" fill="#883F71"/>
        <path d="M2.63574 7.67625V8.41613C2.72823 8.50862 2.9132 8.6011 3.14441 8.6011C3.79181 8.6011 4.16175 8.04619 4.16175 8.04619C4.16175 8.04619 3.74557 7.49128 3.14441 7.49128C2.9132 7.44503 2.72823 7.53752 2.63574 7.67625Z" fill="#50254A"/>
        <path d="M0.0922852 8.04606C0.0922852 8.04606 0.647199 8.73971 1.57205 8.73971C2.49691 8.73971 2.63564 8.04606 2.63564 8.04606C2.63564 8.04606 2.49691 7.35242 1.57205 7.35242C0.647199 7.30618 0.0922852 8.04606 0.0922852 8.04606Z" fill="#883F71" stroke="white" stroke-width="0.2712" stroke-miterlimit="10"/>
        <path d="M2.72824 8.04614C2.63576 8.23111 2.45079 8.69354 2.54327 9.24846C2.63576 9.9421 3.19067 10.7282 3.93056 10.8207C4.02304 10.8207 4.53171 10.867 4.9479 10.5433C5.31784 10.2196 5.45657 9.66464 5.36408 9.10973C5.2716 9.2947 5.04038 9.52591 4.71668 9.66464C4.02304 9.9421 3.14443 9.47967 2.86697 8.83227C2.682 8.50857 2.682 8.23111 2.72824 8.04614Z" fill="#883F71"/>
        <path d="M2.72824 8.04614C2.63576 7.86117 2.45079 7.39874 2.54327 6.84383C2.63576 6.15018 3.19067 5.36406 3.93056 5.27157C4.02304 5.27157 4.53171 5.22533 4.9479 5.54903C5.31784 5.87273 5.45657 6.42764 5.36408 6.98255C5.2716 6.79758 5.04038 6.56637 4.71668 6.42764C4.02304 6.15018 3.14443 6.61261 2.86697 7.26001C2.682 7.58371 2.682 7.86117 2.72824 8.04614Z" fill="#883F71"/>
        <path d="M3.14407 9.10979C3.14407 9.10979 2.68164 8.78609 2.68164 7.99996C2.68164 7.21384 3.14407 6.89014 3.14407 6.89014" stroke="white" stroke-width="0.1806" stroke-miterlimit="10"/>
        <path d="M9.89547 13.1792C9.24807 13.2254 8.64691 13.2717 7.99951 13.3642C7.99951 13.4567 8.04576 13.5954 8.13824 13.7341C8.46194 14.1965 9.29431 14.3353 9.66425 13.9191C9.94171 13.6879 9.94171 13.3179 9.89547 13.1792Z" fill="#50254A"/>
        <path d="M6.14986 13.1792C6.79726 13.2254 7.39842 13.2717 8.04582 13.3642C8.04582 13.4567 7.99957 13.5954 7.90709 13.7341C7.58339 14.1965 6.75102 14.3353 6.38108 13.9191C6.10362 13.6879 6.14986 13.3179 6.14986 13.1792Z" fill="#50254A"/>
        <path d="M8.04566 13.5953C8.04566 13.5953 9.063 13.4566 9.063 12.393C9.063 11.3294 8.04566 10.7283 8.04566 10.7283C8.04566 10.7283 7.02832 11.3757 7.02832 12.393C7.02832 13.4104 8.04566 13.5953 8.04566 13.5953Z" fill="#883F71"/>
        <path d="M7.676 13.3641H8.41589C8.50837 13.2717 8.60086 13.0867 8.60086 12.8555C8.60086 12.2081 8.04595 11.8381 8.04595 11.8381C8.04595 11.8381 7.49103 12.2543 7.49103 12.8555C7.44479 13.0867 7.53728 13.2717 7.676 13.3641Z" fill="#50254A"/>
        <path d="M8.04582 15.9074C8.04582 15.9074 8.73946 15.3525 8.73946 14.4276C8.73946 13.5027 8.04582 13.364 8.04582 13.364C8.04582 13.364 7.35218 13.5027 7.35218 14.4276C7.30594 15.3525 8.04582 15.9074 8.04582 15.9074Z" fill="#883F71" stroke="white" stroke-width="0.2712" stroke-miterlimit="10"/>
        <path d="M8.0459 13.3179C8.23087 13.4104 8.6933 13.5953 9.24821 13.5029C9.94185 13.4104 10.728 12.8555 10.8205 12.1156C10.8205 12.0231 10.8667 11.5144 10.543 11.0982C10.2193 10.7283 9.6644 10.5896 9.10948 10.682C9.29445 10.7745 9.52567 11.0057 9.6644 11.3294C9.94185 12.0231 9.47942 12.9017 8.83203 13.1792C8.50833 13.3179 8.23087 13.3179 8.0459 13.3179Z" fill="#883F71"/>
        <path d="M8.04589 13.3179C7.86092 13.4104 7.39849 13.5953 6.84358 13.5029C6.14994 13.4104 5.36381 12.8555 5.27133 12.1156C5.27133 12.0231 5.22508 11.5144 5.54878 11.0982C5.87248 10.7283 6.4274 10.5896 6.98231 10.682C6.79734 10.7745 6.56612 11.0057 6.4274 11.3294C6.14994 12.0231 6.61237 12.9017 7.25977 13.1792C7.58347 13.3179 7.86092 13.3179 8.04589 13.3179Z" fill="#883F71"/>
        <path d="M9.1093 12.8555C9.1093 12.8555 8.7856 13.3179 7.99948 13.3179C7.21335 13.3179 6.88965 12.8555 6.88965 12.8555" stroke="white" stroke-width="0.1806" stroke-miterlimit="10"/>
        <path d="M13.1792 6.10422C13.2254 6.75162 13.2717 7.35278 13.3642 8.00018C13.4567 8.00018 13.5954 7.95394 13.7341 7.86145C14.1965 7.53775 14.3353 6.70538 13.9191 6.33544C13.6879 6.05798 13.3179 6.05798 13.1792 6.10422Z" fill="#50254A"/>
        <path d="M13.1792 9.84981C13.2254 9.20241 13.2717 8.60126 13.3642 7.95386C13.4567 7.95386 13.5954 8.0001 13.7341 8.09259C14.1965 8.41628 14.3353 9.24865 13.9191 9.6186C13.6879 9.89605 13.3179 9.84981 13.1792 9.84981Z" fill="#50254A"/>
        <path d="M13.5956 7.95387C13.5956 7.95387 13.4568 6.93652 12.3933 6.93652C11.3297 6.93652 10.7285 7.95387 10.7285 7.95387C10.7285 7.95387 11.3759 8.97121 12.3933 8.97121C13.4106 8.97121 13.5956 7.95387 13.5956 7.95387Z" fill="#883F71"/>
        <path d="M13.3639 8.37017V7.63028C13.2714 7.5378 13.0864 7.44531 12.8552 7.44531C12.2078 7.44531 11.8379 8.00023 11.8379 8.00023C11.8379 8.00023 12.2541 8.55514 12.8552 8.55514C13.0864 8.55514 13.2714 8.46265 13.3639 8.37017Z" fill="#50254A"/>
        <path d="M15.9076 7.9539C15.9076 7.9539 15.3527 7.26025 14.4278 7.26025C13.503 7.26025 13.3643 7.9539 13.3643 7.9539C13.3643 7.9539 13.503 8.64754 14.4278 8.64754C15.3527 8.69378 15.9076 7.9539 15.9076 7.9539Z" fill="#883F71" stroke="white" stroke-width="0.2712" stroke-miterlimit="10"/>
        <path d="M13.3179 7.95385C13.4104 7.76888 13.5953 7.30645 13.5029 6.75154C13.4104 6.0579 12.8555 5.27177 12.1156 5.17929C12.0231 5.17929 11.5144 5.13304 11.0982 5.45674C10.7283 5.78044 10.5896 6.33536 10.682 6.89027C10.7745 6.7053 11.0057 6.47408 11.3294 6.33536C12.0231 6.0579 12.9017 6.52033 13.1792 7.16773C13.3179 7.49143 13.3179 7.81513 13.3179 7.95385Z" fill="#883F71"/>
        <path d="M13.3179 7.95386C13.4104 8.13883 13.5953 8.60126 13.5029 9.15617C13.4104 9.84981 12.8555 10.6359 12.1156 10.7284C12.0231 10.7284 11.5144 10.7747 11.0982 10.451C10.7283 10.1273 10.5896 9.57235 10.682 9.01744C10.7745 9.20241 11.0057 9.43363 11.3294 9.57235C12.0231 9.84981 12.9017 9.38738 13.1792 8.73998C13.3179 8.46253 13.3179 8.13883 13.3179 7.95386Z" fill="#883F71"/>
        <path d="M12.8555 6.89014C12.8555 6.89014 13.3179 7.21384 13.3179 7.99996C13.3179 8.78609 12.8555 9.10979 12.8555 9.10979" stroke="white" stroke-width="0.1806" stroke-miterlimit="10"/>
        <path d="M7.99962 7.99995C8.09211 7.99995 8.13835 8.04619 8.1846 8.09244C8.23084 7.99995 8.27708 7.86122 8.27708 7.72249C8.27708 7.35255 7.99962 7.16758 7.99962 7.12134C7.95338 7.12134 7.72217 7.35255 7.72217 7.72249C7.72217 7.90747 7.76841 7.99995 7.81465 8.09244C7.8609 8.04619 7.90714 7.99995 7.99962 7.99995Z" fill="#50254A"/>
        <path d="M7.76855 8.27736C7.76855 8.23112 7.76855 8.23112 7.76855 8.27736C7.62982 8.23112 7.49109 8.27736 7.35236 8.36984C7.02866 8.55481 6.98242 8.87851 6.98242 8.92476C7.02866 8.92476 7.35236 9.06349 7.62982 8.87851C7.81479 8.78603 7.90728 8.6473 7.95352 8.55481C7.81479 8.46233 7.76855 8.36984 7.76855 8.27736Z" fill="#50254A"/>
        <path d="M8.69344 8.32369C8.55471 8.2312 8.41598 8.2312 8.27726 8.2312C8.27726 8.2312 8.27726 8.2312 8.27726 8.27744C8.27726 8.41617 8.18477 8.50866 8.09229 8.50866C8.13853 8.60114 8.23101 8.73987 8.41599 8.83236C8.73968 9.01733 9.06338 8.8786 9.06338 8.8786C9.01714 8.83236 8.9709 8.50866 8.69344 8.32369Z" fill="#50254A"/>
    </g>
    <defs>
        <clipPath id="clip0_207_8349">
            <rect width="16" height="16" fill="white"/>
        </clipPath>
    </defs>
</svg>
