<svg width="15" height="15" viewBox="0 0 15 15" fill="none" xmlns="http://www.w3.org/2000/svg">
    <path d="M6.14502 6.72578C7.3547 6.87094 8.17728 6.629 8.75792 6.43545C10.0644 5.95158 10.645 5.03223 12.0482 5.03223C12.5321 5.03223 12.9192 5.129 13.016 5.17739C13.887 5.46771 14.9515 6.29029 14.9031 7.30642C14.9031 7.83868 14.6128 8.22578 14.5644 8.27416C14.1289 8.85481 13.5966 8.75803 13.4999 9.14513C13.3547 9.58061 13.9353 9.82255 13.9353 10.4516C13.9353 10.9838 13.5482 11.4193 13.4515 11.5645C12.5321 12.5322 10.9837 12.1451 10.887 12.1451C10.4031 12 10.0644 11.8064 9.9676 11.7096C8.8547 10.8871 8.95147 9.67739 8.0805 8.41932C7.74179 7.93545 7.16115 7.25803 6.14502 6.72578Z" fill="#E44126"/>
    <path d="M6.14502 6.72578C7.3547 6.87094 8.17728 6.629 8.75792 6.43545C10.0644 5.95158 10.645 5.03223 12.0482 5.03223C12.5321 5.03223 12.9192 5.129 13.016 5.17739C13.887 5.46771 14.9515 6.29029 14.9031 7.30642C14.9031 7.83868 14.6128 8.22578 14.5644 8.27416C14.1289 8.85481 13.5966 8.75803 13.4999 9.14513C13.3547 9.58061 13.9353 9.82255 13.9353 10.4516C13.9353 10.9838 13.5482 11.4193 13.4515 11.5645C12.5321 12.5322 10.9837 12.1451 10.887 12.1451C10.4031 12 10.0644 11.8064 9.9676 11.7096C8.8547 10.8871 8.95147 9.67739 8.0805 8.41932C7.74179 7.93545 7.16115 7.25803 6.14502 6.72578Z" stroke="white" stroke-width="0.3489" stroke-miterlimit="10" stroke-linecap="round" stroke-linejoin="round"/>
    <path d="M6.62891 8.32246C7.11278 7.20956 7.16116 6.33859 7.16116 5.75795C7.11278 4.35472 6.43536 3.53214 6.82245 2.1773C6.96762 1.69343 7.16116 1.40311 7.25794 1.30633C7.7902 0.532139 8.9031 -0.193667 9.87084 0.145043C10.3547 0.338591 10.645 0.725688 10.6934 0.774075C11.1289 1.35472 10.8386 1.83859 11.2257 2.08053C11.6128 2.32246 11.9999 1.88698 12.6289 2.08053C13.1612 2.22569 13.4515 2.75795 13.4999 2.90311C14.1773 4.0644 13.3063 5.46762 13.2096 5.51601C12.9192 5.95149 12.6289 6.19343 12.5321 6.24182C11.4192 7.0644 10.2579 6.58053 8.80633 7.01601C8.27407 7.16117 7.49987 7.49988 6.62891 8.32246Z" fill="#E44126"/>
    <path d="M6.62891 8.32246C7.11278 7.20956 7.16116 6.33859 7.16116 5.75795C7.11278 4.35472 6.43536 3.53214 6.82245 2.1773C6.96762 1.69343 7.16116 1.40311 7.25794 1.30633C7.7902 0.532139 8.9031 -0.193667 9.87084 0.145043C10.3547 0.338591 10.645 0.725688 10.6934 0.774075C11.1289 1.35472 10.8386 1.83859 11.2257 2.08053C11.6128 2.32246 11.9999 1.88698 12.6289 2.08053C13.1612 2.22569 13.4515 2.75795 13.4999 2.90311C14.1773 4.0644 13.3063 5.46762 13.2096 5.51601C12.9192 5.95149 12.6289 6.19343 12.5321 6.24182C11.4192 7.0644 10.2579 6.58053 8.80633 7.01601C8.27407 7.16117 7.49987 7.49988 6.62891 8.32246Z" stroke="white" stroke-width="0.3489" stroke-miterlimit="10" stroke-linecap="round" stroke-linejoin="round"/>
    <path d="M8.32252 8.37096C7.45156 7.54838 6.62898 7.25806 6.04833 7.06451C4.69349 6.7258 3.67736 7.06451 2.56446 6.29031C2.17736 5.99999 1.93543 5.70967 1.83865 5.6129C1.30639 4.8387 0.967685 3.53225 1.54833 2.75806C1.88704 2.32257 2.32252 2.17741 2.37091 2.17741C3.09672 1.93548 3.43543 2.32257 3.77414 2.08064C4.11285 1.79031 3.82252 1.30644 4.20962 0.774185C4.54833 0.338702 5.08059 0.19354 5.27414 0.19354C6.58059 -0.0483952 7.6451 1.16128 7.69349 1.25806C8.0322 1.64515 8.12898 2.03225 8.17736 2.12902C8.56446 3.43548 7.74188 4.35483 7.74188 5.90322C7.69349 6.43548 7.79027 7.30644 8.32252 8.37096Z" fill="#E44126"/>
    <path d="M8.32252 8.37096C7.45156 7.54838 6.62898 7.25806 6.04833 7.06451C4.69349 6.7258 3.67736 7.06451 2.56446 6.29031C2.17736 5.99999 1.93543 5.70967 1.83865 5.6129C1.30639 4.8387 0.967685 3.53225 1.54833 2.75806C1.88704 2.32257 2.32252 2.17741 2.37091 2.17741C3.09672 1.93548 3.43543 2.32257 3.77414 2.08064C4.11285 1.79031 3.82252 1.30644 4.20962 0.774185C4.54833 0.338702 5.08059 0.19354 5.27414 0.19354C6.58059 -0.0483952 7.6451 1.16128 7.69349 1.25806C8.0322 1.64515 8.12898 2.03225 8.17736 2.12902C8.56446 3.43548 7.74188 4.35483 7.74188 5.90322C7.69349 6.43548 7.79027 7.30644 8.32252 8.37096Z" stroke="white" stroke-width="0.3489" stroke-miterlimit="10" stroke-linecap="round" stroke-linejoin="round"/>
    <path d="M8.85485 6.72558C7.83872 7.30622 7.25807 7.98364 6.91936 8.5159C6.14517 9.67719 6.19355 10.7417 5.08065 11.6127C4.69356 11.903 4.30646 12.0482 4.20968 12.0965C3.33872 12.3869 1.98388 12.3385 1.40323 11.4675C1.11291 11.032 1.11291 10.5482 1.11291 10.4998C1.11291 9.77397 1.59678 9.53203 1.45162 9.14493C1.30646 8.70945 0.725813 8.85461 0.338716 8.32235C6.78003e-06 7.88687 0.096781 7.30622 0.096781 7.16106C0.241942 5.85461 1.74194 5.22558 1.83872 5.17719C2.32259 4.98364 2.70968 4.98364 2.85485 4.98364C4.25807 4.98364 4.8871 6.04816 6.33872 6.53203C6.87097 6.72558 7.69355 6.91913 8.85485 6.72558Z" fill="#E44126"/>
    <path d="M8.85484 6.72558C7.83872 7.30622 7.25807 7.98364 6.91936 8.5159C6.14517 9.67719 6.19356 10.7417 5.08065 11.6127C4.69356 11.903 4.30646 12.0482 4.20968 12.0965C3.33872 12.3869 1.98388 12.3385 1.40323 11.4675C1.11291 11.032 1.11291 10.5482 1.11291 10.4998C1.11291 9.77397 1.59678 9.53203 1.45162 9.14493C1.30646 8.70945 0.725813 8.85461 0.338716 8.32235C6.7782e-06 7.88687 0.096781 7.30622 0.096781 7.16106C0.241942 5.85461 1.74194 5.22558 1.83872 5.17719C2.32259 4.98364 2.70968 4.98364 2.85485 4.98364C4.25807 4.98364 4.8871 6.04816 6.33872 6.53203C6.87097 6.72558 7.69355 6.91913 8.85484 6.72558Z" stroke="white" stroke-width="0.3489" stroke-miterlimit="10" stroke-linecap="round" stroke-linejoin="round"/>
    <path d="M7.50023 5.75806C7.74217 6.91935 8.22604 7.69354 8.61314 8.12902C9.48411 9.19354 10.5486 9.53225 10.9841 10.7903C11.1293 11.2742 11.1777 11.6129 11.1777 11.7581C11.1777 12.6774 10.6938 13.9355 9.72604 14.2258C9.24217 14.371 8.7583 14.2258 8.70991 14.2258C8.03249 13.9839 7.93572 13.5 7.54862 13.5C7.11314 13.5 7.06475 14.0806 6.43572 14.3226C5.90346 14.5161 5.41959 14.2742 5.22604 14.1774C3.96798 13.6452 3.8712 12 3.8712 11.9032C3.82282 11.4193 3.96798 11.0323 3.96798 10.8871C4.40346 9.58064 5.61314 9.29032 6.53249 8.08064C6.8712 7.64515 7.30669 6.91935 7.50023 5.75806Z" fill="#E44126"/>
    <path d="M7.50023 5.75806C7.74217 6.91935 8.22604 7.69354 8.61314 8.12902C9.48411 9.19354 10.5486 9.53225 10.9841 10.7903C11.1293 11.2742 11.1777 11.6129 11.1777 11.7581C11.1777 12.6774 10.6938 13.9355 9.72604 14.2258C9.24217 14.371 8.7583 14.2258 8.70991 14.2258C8.03249 13.9839 7.93572 13.5 7.54862 13.5C7.11314 13.5 7.06475 14.0806 6.43572 14.3226C5.90346 14.5161 5.41959 14.2742 5.22604 14.1774C3.96798 13.6452 3.8712 12 3.8712 11.9032C3.82282 11.4193 3.96798 11.0323 3.96798 10.8871C4.40346 9.58064 5.61314 9.29032 6.53249 8.08064C6.8712 7.64515 7.30669 6.91935 7.50023 5.75806Z" stroke="white" stroke-width="0.3489" stroke-miterlimit="10" stroke-linecap="round" stroke-linejoin="round"/>
    <path d="M7.59695 8.32251C7.45179 7.59671 7.16146 7.11284 6.91953 6.82251C6.38727 6.14509 5.70985 5.95155 5.41953 5.12897C5.32275 4.83864 5.32275 4.59671 5.32275 4.49993C5.32275 3.91929 5.61308 3.14509 6.24211 2.95155C6.58082 2.85477 6.87114 2.95155 6.87114 2.95155C7.30662 3.09671 7.35501 3.43542 7.59695 3.43542C7.88727 3.43542 7.93566 3.04832 8.32275 2.90316C8.66146 2.80638 9.00017 2.95155 9.09695 2.99993C9.87114 3.33864 9.91953 4.40316 9.91953 4.45155C9.91953 4.79026 9.87114 5.03219 9.82275 5.08058C9.58082 5.90316 8.80662 6.09671 8.17759 6.8709C7.98404 7.11284 7.69372 7.59671 7.59695 8.32251Z" fill="white"/>
    <path d="M7.59695 8.32251C7.45179 7.59671 7.16146 7.11284 6.91953 6.82251C6.38727 6.14509 5.70985 5.95155 5.41953 5.12897C5.32275 4.83864 5.32275 4.59671 5.32275 4.49993C5.32275 3.91929 5.61308 3.14509 6.24211 2.95155C6.58082 2.85477 6.87114 2.95155 6.87114 2.95155C7.30662 3.09671 7.35501 3.43542 7.59695 3.43542C7.88727 3.43542 7.93566 3.04832 8.32275 2.90316C8.66146 2.80638 9.00017 2.95155 9.09695 2.99993C9.87114 3.33864 9.91953 4.40316 9.91953 4.45155C9.91953 4.79026 9.87114 5.03219 9.82275 5.08058C9.58082 5.90316 8.80662 6.09671 8.17759 6.8709C7.98404 7.11284 7.69372 7.59671 7.59695 8.32251Z" stroke="#E44126" stroke-width="0.3489" stroke-miterlimit="10" stroke-linecap="round" stroke-linejoin="round"/>
    <path d="M8.8064 7.1612C8.08059 7.30637 7.59672 7.59669 7.3064 7.83862C6.62898 8.37088 6.43543 9.0483 5.61285 9.33862C5.32253 9.4354 5.08059 9.4354 4.98382 9.4354C4.40317 9.4354 3.62898 9.14507 3.43543 8.51604C3.33866 8.17733 3.43543 7.88701 3.43543 7.88701C3.58059 7.45153 3.9193 7.40314 3.9193 7.1612C3.9193 6.87088 3.53221 6.82249 3.38705 6.4354C3.29027 6.09669 3.43543 5.75798 3.48382 5.6612C3.82253 4.88701 4.88705 4.83862 4.93543 4.83862C5.27414 4.83862 5.51608 4.88701 5.56446 4.9354C6.38705 5.17733 6.58059 5.95153 7.35479 6.58056C7.59672 6.72572 8.03221 7.01604 8.8064 7.1612Z" fill="white"/>
    <path d="M8.8064 7.1612C8.08059 7.30637 7.59672 7.59669 7.3064 7.83862C6.62898 8.37088 6.43543 9.0483 5.61285 9.33862C5.32253 9.4354 5.08059 9.4354 4.98382 9.4354C4.40317 9.4354 3.62898 9.14507 3.43543 8.51604C3.33866 8.17733 3.43543 7.88701 3.43543 7.88701C3.58059 7.45153 3.9193 7.40314 3.9193 7.1612C3.9193 6.87088 3.53221 6.82249 3.38705 6.4354C3.29027 6.09669 3.43543 5.75798 3.48382 5.6612C3.82253 4.88701 4.88705 4.83862 4.93543 4.83862C5.27414 4.83862 5.51608 4.88701 5.56446 4.9354C6.38705 5.17733 6.58059 5.95153 7.35479 6.58056C7.59672 6.72572 8.03221 7.01604 8.8064 7.1612Z" stroke="#E44126" stroke-width="0.3489" stroke-miterlimit="10" stroke-linecap="round" stroke-linejoin="round"/>
    <path d="M7.59651 5.95142C7.74167 6.67722 8.03199 7.16109 8.27393 7.45142C8.80618 8.12883 9.4836 8.32238 9.77393 9.14496C9.8707 9.43529 9.8707 9.67722 9.8707 9.774C9.8707 10.3546 9.58038 11.1288 8.95135 11.3224C8.61264 11.4192 8.32231 11.3224 8.32231 11.3224C7.88683 11.1772 7.83844 10.8385 7.59651 10.8385C7.30618 10.8385 7.2578 11.2256 6.8707 11.3708C6.53199 11.4675 6.19328 11.3224 6.09651 11.274C5.32231 10.9353 5.27393 9.87077 5.27393 9.82238C5.27393 9.48367 5.32231 9.24174 5.3707 9.19335C5.61264 8.37077 6.38683 8.17722 7.01586 7.40303C7.20941 7.16109 7.45135 6.67722 7.59651 5.95142Z" fill="white"/>
    <path d="M7.59651 5.95142C7.74167 6.67722 8.03199 7.16109 8.27393 7.45142C8.80618 8.12883 9.4836 8.32238 9.77393 9.14496C9.8707 9.43529 9.8707 9.67722 9.8707 9.774C9.8707 10.3546 9.58038 11.1288 8.95135 11.3224C8.61264 11.4192 8.32231 11.3224 8.32231 11.3224C7.88683 11.1772 7.83844 10.8385 7.59651 10.8385C7.30618 10.8385 7.2578 11.2256 6.8707 11.3708C6.53199 11.4675 6.19328 11.3224 6.09651 11.274C5.32231 10.9353 5.27393 9.87077 5.27393 9.82238C5.27393 9.48367 5.32231 9.24174 5.3707 9.19335C5.61264 8.37077 6.38683 8.17722 7.01586 7.40303C7.20941 7.16109 7.45135 6.67722 7.59651 5.95142Z" stroke="#E44126" stroke-width="0.3489" stroke-miterlimit="10" stroke-linecap="round" stroke-linejoin="round"/>
    <path d="M6.38721 7.16116C7.11301 7.016 7.59688 6.72567 7.88721 6.48374C8.56463 5.95148 8.75817 5.27406 9.58075 4.98374C9.87108 4.88696 10.113 4.88696 10.2098 4.88696C10.7904 4.88696 11.5646 5.17729 11.7582 5.80632C11.8549 6.14503 11.7582 6.43535 11.7582 6.43535C11.613 6.87083 11.2743 6.91922 11.2743 7.16116C11.2743 7.45148 11.6614 7.49987 11.8066 7.88696C11.9033 8.22567 11.7582 8.56438 11.7098 8.66116C11.3711 9.43535 10.3066 9.48374 10.2582 9.48374C9.91947 9.48374 9.67753 9.43535 9.62914 9.38696C8.80656 9.14503 8.61301 8.37083 7.83882 7.7418C7.59688 7.54825 7.11301 7.25793 6.38721 7.16116Z" fill="white"/>
    <path d="M6.38721 7.16116C7.11301 7.016 7.59688 6.72567 7.88721 6.48374C8.56463 5.95148 8.75817 5.27406 9.58075 4.98374C9.87108 4.88696 10.113 4.88696 10.2098 4.88696C10.7904 4.88696 11.5646 5.17729 11.7582 5.80632C11.8549 6.14503 11.7582 6.43535 11.7582 6.43535C11.613 6.87083 11.2743 6.91922 11.2743 7.16116C11.2743 7.45148 11.6614 7.49987 11.8066 7.88696C11.9033 8.22567 11.7582 8.56438 11.7098 8.66116C11.3711 9.43535 10.3066 9.48374 10.2582 9.48374C9.91947 9.48374 9.67753 9.43535 9.62914 9.38696C8.80656 9.14503 8.61301 8.37083 7.83882 7.7418C7.59688 7.54825 7.11301 7.25793 6.38721 7.16116Z" stroke="#E44126" stroke-width="0.3489" stroke-miterlimit="10" stroke-linecap="round" stroke-linejoin="round"/>
    <path d="M8.08062 5.56438C8.95159 5.85471 9.43546 6.77406 9.14514 7.69341C8.85482 8.56438 7.93546 9.04825 7.01611 8.75793C6.14514 8.46761 5.66127 7.54825 5.95159 6.6289C6.2903 5.75793 7.20965 5.27406 8.08062 5.56438Z" fill="#F26664"/>
</svg>
