<svg width="65" height="65" viewBox="0 0 65 65" fill="none" xmlns="http://www.w3.org/2000/svg">
    <path d="M12.9482 23.4497H1V63.7336H12.9482V23.4497Z" stroke="#E44126" stroke-width="1.5" stroke-linecap="round" stroke-linejoin="round"/>
    <path d="M6.97412 53.278V57.7589" stroke="#E44126" stroke-width="1.5" stroke-linecap="round" stroke-linejoin="round"/>
    <path d="M12.9482 27.8858H17.4288C21.9094 27.8858 24.8964 21.9112 29.377 18.9239C33.3349 16.295 35.3511 14.4429 36.8446 9.96193C38.5473 4.8387 36.8446 1 41.3252 1C47.2993 1 48.7929 3.98731 47.2993 12.9492C46.6571 16.7879 44.3123 24.8985 44.3123 24.8985H59.2475C61.7268 24.8985 63.7281 26.9 63.7281 29.3795C63.7281 31.8589 61.7268 33.8604 59.2475 33.8604C61.7268 33.8604 63.7281 35.8619 63.7281 38.3414C63.7281 40.8209 61.7268 42.8224 59.2475 42.8224H57.754C60.2333 42.8224 62.2346 44.8239 62.2346 47.3033C62.2346 49.7828 60.2333 51.7843 57.754 51.7843H56.2605C58.7397 51.7843 60.7411 53.7858 60.7411 56.2653C60.7411 58.7447 58.7397 60.7462 56.2605 60.7462C56.2605 60.7462 37.2479 60.7462 21.9094 60.7462C17.4288 60.7462 15.9353 59.2526 12.9482 59.2526" stroke="#E44126" stroke-width="1.5" stroke-linecap="round" stroke-linejoin="round"/>
    <path d="M56.2603 33.8605H59.2473" stroke="#E44126" stroke-width="1.5" stroke-linecap="round" stroke-linejoin="round"/>
    <path d="M53.2734 51.7843H56.2605" stroke="#E44126" stroke-width="1.5" stroke-linecap="round" stroke-linejoin="round"/>
    <path d="M54.7671 42.8224H57.7541" stroke="#E44126" stroke-width="1.5" stroke-linecap="round" stroke-linejoin="round"/>
</svg>
