<svg width="203" height="70" viewBox="0 0 203 70" fill="none" xmlns="http://www.w3.org/2000/svg">
    <g clip-path="url(#clip0_207_8830)">
        <path d="M31.6233 21.7113C33.1204 21.5881 34.6176 21.4649 36.0842 21.3109C36.0536 21.0953 35.9619 20.7566 35.7175 20.4178C34.9537 19.3707 32.9677 19.032 32.0816 19.9867C31.5622 20.5718 31.5927 21.3725 31.6233 21.7113Z" fill="#50254A"/>
        <path d="M40.5146 21.7113C39.0174 21.5881 37.5203 21.4649 36.0537 21.3109C36.0843 21.0953 36.1759 20.7566 36.4204 20.4178C37.1842 19.3707 39.1702 19.032 40.0563 19.9867C40.5757 20.5718 40.5451 21.3725 40.5146 21.7113Z" fill="#50254A"/>
        <path d="M36.0844 20.7874C36.0844 20.7874 33.6401 21.1569 33.6401 23.5898C33.6401 26.0227 36.0844 27.5317 36.0844 27.5317C36.0844 27.5317 38.5288 26.0227 38.5288 23.5898C38.5288 21.1569 36.0844 20.7874 36.0844 20.7874Z" fill="#883F71"/>
        <path d="M36.9707 21.3108H35.1985C34.9541 21.588 34.7402 21.9575 34.7402 22.5734C34.7402 24.1133 36.0846 25.0371 36.0846 25.0371C36.0846 25.0371 37.429 24.0825 37.429 22.5734C37.429 21.9575 37.2151 21.588 36.9707 21.3108Z" fill="#50254A"/>
        <path d="M36.0843 15.2131C36.0843 15.2131 34.4038 16.5682 34.4038 18.7547C34.4038 20.9412 36.0843 21.28 36.0843 21.28C36.0843 21.28 37.7647 20.9412 37.7647 18.7547C37.7342 16.599 36.0843 15.2131 36.0843 15.2131Z" fill="#883F71" stroke="white" stroke-width="0.2712" stroke-miterlimit="10"/>
        <path d="M36.0844 21.4958C35.5955 21.2802 34.5567 20.849 33.304 21.0646C31.6846 21.311 29.8209 22.5736 29.607 24.3906C29.5459 24.5754 29.4237 25.7764 30.2792 26.7311C31.043 27.6242 32.3263 27.9938 33.6095 27.6858C33.1818 27.4086 32.6013 26.9159 32.2957 26.146C31.6846 24.5138 32.6929 22.4196 34.2512 21.7113C34.9845 21.4034 35.6566 21.4342 36.0844 21.4958Z" fill="#883F71"/>
        <path d="M36.0845 21.4958C36.5733 21.2802 37.6122 20.849 38.8649 21.0646C40.4842 21.311 42.348 22.5736 42.5619 24.3906C42.5925 24.6062 42.7147 25.7764 41.8592 26.7619C41.0953 27.655 39.812 28.0246 38.5288 27.7166C38.9565 27.4394 39.5371 26.9467 39.8426 26.1768C40.4537 24.5446 39.4454 22.4504 37.8871 21.7421C37.1844 21.4034 36.4817 21.4342 36.0845 21.4958Z" fill="#883F71"/>
        <path d="M33.4873 22.512C33.4873 22.512 34.2206 21.4033 36.0844 21.4033C37.9482 21.4033 38.6815 22.512 38.6815 22.512" stroke="white" stroke-width="0.1806" stroke-miterlimit="10"/>
        <path d="M23.8629 38.6493C23.7407 37.1403 23.6185 35.6313 23.4657 34.1531C23.2518 34.1531 22.9157 34.2455 22.6102 34.4918C21.5714 35.2617 21.2353 37.2635 22.1824 38.1566C22.7324 38.7109 23.5268 38.6801 23.8629 38.6493Z" fill="#50254A"/>
        <path d="M23.8627 29.6876C23.7405 31.1966 23.6183 32.7057 23.4655 34.1839C23.2516 34.1531 22.9155 34.0607 22.5794 33.8143C21.5406 33.0444 21.2045 31.0427 22.1517 30.1496C22.7322 29.626 23.5266 29.6568 23.8627 29.6876Z" fill="#50254A"/>
        <path d="M22.9458 34.1532C22.9458 34.1532 23.3124 36.6169 25.7262 36.6169C28.14 36.6169 29.6371 34.1532 29.6371 34.1532C29.6371 34.1532 28.14 31.6895 25.7262 31.6895C23.3124 31.6895 22.9458 34.1532 22.9458 34.1532Z" fill="#883F71"/>
        <path d="M23.4653 33.26V35.0462C23.7403 35.2926 24.107 35.5082 24.718 35.5082C26.2457 35.5082 27.1624 34.1531 27.1624 34.1531C27.1624 34.1531 26.2152 32.7981 24.718 32.7981C24.1375 32.7981 23.7403 33.0137 23.4653 33.26Z" fill="#50254A"/>
        <path d="M17.4155 34.153C17.4155 34.153 18.7599 35.8468 20.9292 35.8468C23.0985 35.8468 23.4346 34.153 23.4346 34.153C23.4346 34.153 23.0985 32.4592 20.9292 32.4592C18.7905 32.49 17.4155 34.153 17.4155 34.153Z" fill="#883F71" stroke="white" stroke-width="0.2712" stroke-miterlimit="10"/>
        <path d="M23.6482 34.1533C23.4343 34.6461 23.0065 35.6931 23.2204 36.9558C23.4648 38.588 24.7175 40.4666 26.5202 40.6821C26.7341 40.7129 27.8951 40.8361 28.8729 39.9738C29.7589 39.2039 30.1256 37.9105 29.82 36.617C29.5451 37.0482 29.0562 37.6333 28.2923 37.9413C26.673 38.5572 24.5953 37.5409 23.8926 35.9703C23.5565 35.262 23.587 34.5845 23.6482 34.1533Z" fill="#883F71"/>
        <path d="M23.6482 34.1531C23.4343 33.6604 23.0065 32.6133 23.2204 31.3506C23.4648 29.7184 24.7175 27.8399 26.5202 27.6243C26.7341 27.5935 27.8951 27.4703 28.8729 28.3326C29.7589 29.1025 30.1256 30.396 29.82 31.6894C29.5451 31.2583 29.0562 30.6731 28.2923 30.3652C26.673 29.7492 24.5953 30.7655 23.8926 32.3361C23.5565 33.0444 23.587 33.722 23.6482 34.1531Z" fill="#883F71"/>
        <path d="M24.6566 36.771C24.6566 36.771 23.5566 36.0319 23.5566 34.1533C23.5566 32.2748 24.6566 31.5356 24.6566 31.5356" stroke="white" stroke-width="0.1806" stroke-miterlimit="10"/>
        <path d="M40.6674 46.4717C39.1703 46.5949 37.6731 46.718 36.2065 46.872C36.2371 47.0876 36.3288 47.4264 36.5732 47.7651C37.337 48.8122 39.323 49.1509 40.2091 48.1963C40.7285 47.6111 40.698 46.8104 40.6674 46.4717Z" fill="#50254A"/>
        <path d="M31.7761 46.4717C33.2733 46.5949 34.7704 46.718 36.237 46.872C36.2064 47.0876 36.1148 47.4264 35.8703 47.7651C35.1065 48.8122 33.1205 49.1509 32.2344 48.1963C31.715 47.6111 31.7456 46.8104 31.7761 46.4717Z" fill="#50254A"/>
        <path d="M36.2065 47.3645C36.2065 47.3645 38.6508 46.995 38.6508 44.5621C38.6508 42.1291 36.2065 40.6201 36.2065 40.6201C36.2065 40.6201 33.7622 42.1291 33.7622 44.5621C33.7622 46.995 36.2065 47.3645 36.2065 47.3645Z" fill="#883F71"/>
        <path d="M35.3201 46.8719H37.0923C37.3367 46.5947 37.5506 46.2251 37.5506 45.6092C37.5506 44.0694 36.2062 43.1455 36.2062 43.1455C36.2062 43.1455 34.8618 44.1002 34.8618 45.6092C34.8618 46.1943 35.0757 46.5947 35.3201 46.8719Z" fill="#50254A"/>
        <path d="M36.2063 52.9389C36.2063 52.9389 37.8868 51.5839 37.8868 49.3974C37.8868 47.2108 36.2063 46.8721 36.2063 46.8721C36.2063 46.8721 34.5259 47.2108 34.5259 49.3974C34.5564 51.5839 36.2063 52.9389 36.2063 52.9389Z" fill="#883F71" stroke="white" stroke-width="0.2712" stroke-miterlimit="10"/>
        <path d="M36.2061 46.6871C36.6949 46.9027 37.7337 47.3338 38.9865 47.1182C40.6058 46.8719 42.4696 45.6092 42.6835 43.7922C42.714 43.5767 42.8363 42.4064 41.9807 41.4209C41.2169 40.5278 39.9336 40.1583 38.6504 40.4662C39.0781 40.7434 39.6586 41.2362 39.9642 42.0061C40.5753 43.6383 39.567 45.7324 38.0087 46.4407C37.306 46.7795 36.6338 46.7487 36.2061 46.6871Z" fill="#883F71"/>
        <path d="M36.2063 46.6871C35.7174 46.9027 34.6786 47.3338 33.4259 47.1182C31.8065 46.8719 29.9427 45.6092 29.7288 43.7922C29.6983 43.5767 29.5761 42.4064 30.4316 41.4209C31.1954 40.5278 32.4787 40.1583 33.762 40.4662C33.3342 40.7434 32.7537 41.2362 32.4481 42.0061C31.8371 43.6383 32.8453 45.7324 34.4036 46.4407C35.1063 46.7795 35.8091 46.7487 36.2063 46.6871Z" fill="#883F71"/>
        <path d="M38.8035 45.6709C38.8035 45.6709 38.0702 46.7796 36.2065 46.7796C34.3427 46.7796 33.6094 45.6709 33.6094 45.6709" stroke="white" stroke-width="0.1806" stroke-miterlimit="10"/>
        <path d="M48.4277 29.5336C48.5499 31.0426 48.6722 32.5516 48.8249 34.0298C49.0388 33.999 49.3749 33.9066 49.711 33.6603C50.7498 32.8904 51.0859 30.8886 50.1387 29.9955C49.5582 29.472 48.7638 29.5028 48.4277 29.5336Z" fill="#50254A"/>
        <path d="M48.4277 38.4953C48.5499 36.9863 48.6722 35.4772 48.8249 33.999C49.0388 34.0298 49.3749 34.1222 49.711 34.3686C50.7498 35.1385 51.0859 37.1402 50.1387 38.0333C49.5582 38.5569 48.7638 38.5261 48.4277 38.4953Z" fill="#50254A"/>
        <path d="M49.3139 34.0299C49.3139 34.0299 48.9472 31.5662 46.5335 31.5662C44.1197 31.5662 42.6226 34.0299 42.6226 34.0299C42.6226 34.0299 44.1197 36.4936 46.5335 36.4936C48.9472 36.4936 49.3139 34.0299 49.3139 34.0299Z" fill="#883F71"/>
        <path d="M48.825 34.9229V33.1368C48.55 32.8904 48.1833 32.6748 47.5722 32.6748C46.0445 32.6748 45.1279 34.0298 45.1279 34.0298C45.1279 34.0298 46.0751 35.3849 47.5722 35.3849C48.1528 35.3849 48.55 35.1693 48.825 34.9229Z" fill="#50254A"/>
        <path d="M54.8746 34.0297C54.8746 34.0297 53.5302 32.3359 51.3609 32.3359C49.1916 32.3359 48.8555 34.0297 48.8555 34.0297C48.8555 34.0297 49.1916 35.7235 51.3609 35.7235C53.4997 35.6927 54.8746 34.0297 54.8746 34.0297Z" fill="#883F71" stroke="white" stroke-width="0.2712" stroke-miterlimit="10"/>
        <path d="M48.6417 34.0298C48.8556 33.5371 49.2833 32.49 49.0694 31.2274C48.825 29.5952 47.5723 27.7166 45.7696 27.501C45.5557 27.4702 44.3947 27.347 43.417 28.2093C42.5309 28.9792 42.1643 30.2727 42.4698 31.5661C42.7448 31.135 43.2336 30.5498 43.9975 30.2419C45.6168 29.6259 47.6945 30.6422 48.3973 32.2128C48.7333 32.9212 48.7028 33.5987 48.6417 34.0298Z" fill="#883F71"/>
        <path d="M48.6417 34.03C48.8556 34.5228 49.2833 35.5698 49.0694 36.8325C48.825 38.4647 47.5723 40.3433 45.7696 40.5588C45.5557 40.5896 44.3947 40.7128 43.417 39.8505C42.5309 39.0806 42.1643 37.7872 42.4698 36.4937C42.7448 36.9249 43.2336 37.51 43.9975 37.818C45.6168 38.4339 47.6945 37.4176 48.3973 35.847C48.7333 35.1387 48.7028 34.4304 48.6417 34.03Z" fill="#883F71"/>
        <path d="M47.6333 31.4124C47.6333 31.4124 48.7332 32.1515 48.7332 34.03C48.7332 35.9086 47.6333 36.6477 47.6333 36.6477" stroke="white" stroke-width="0.1806" stroke-miterlimit="10"/>
        <path d="M70.4262 34.7072L72.29 35.0152L70.4262 35.3231C69.754 35.4463 69.2346 35.9699 69.1124 36.6474L68.8069 38.526L68.5013 36.6474C68.3791 35.9699 67.8597 35.4463 67.1875 35.3231L65.3237 35.0152L67.1875 34.7072C67.8597 34.584 68.3791 34.0605 68.5013 33.383L68.8069 31.5044L69.1124 33.383C69.2346 34.0605 69.754 34.584 70.4262 34.7072Z" fill="#50254A"/>
        <path d="M5.07194 34.7072L6.93573 35.0152L5.07194 35.3231C4.39976 35.4463 3.88034 35.9699 3.75813 36.6474L3.45259 38.526L3.14705 36.6474C3.05539 35.9391 2.53597 35.4155 1.86379 35.3231L0 35.0152L1.86379 34.7072C2.53597 34.584 3.05539 34.0605 3.1776 33.383L3.48314 31.5044L3.78868 33.383C3.88034 34.0605 4.39976 34.584 5.07194 34.7072Z" fill="#50254A"/>
        <path d="M36.1456 34.0913C36.3289 34.0913 36.4817 34.1529 36.5734 34.2761C36.7261 34.0297 36.8484 33.7217 36.8484 33.3522C36.8484 32.4899 36.2067 31.9971 36.1456 31.9355C36.0845 31.9971 35.4429 32.4899 35.4429 33.3522C35.4429 33.7525 35.5651 34.0605 35.7179 34.2761C35.8095 34.1529 35.9623 34.0913 36.1456 34.0913Z" fill="#50254A"/>
        <path d="M35.5344 34.7073C35.5344 34.6765 35.5344 34.6765 35.5344 34.6457C35.2594 34.6149 34.8928 34.6765 34.5567 34.8613C33.8234 35.2925 33.7012 36.0932 33.7012 36.1856C33.7928 36.2164 34.5261 36.5243 35.29 36.0932C35.6872 35.8776 35.9011 35.5388 36.0233 35.2617C35.7483 35.2309 35.5344 34.9845 35.5344 34.7073Z" fill="#50254A"/>
        <path d="M37.7344 34.8612C37.3983 34.6456 37.0316 34.6148 36.7566 34.6456C36.7566 34.6764 36.7566 34.6764 36.7566 34.7072C36.7566 34.9844 36.5733 35.2307 36.2983 35.2923C36.4206 35.5695 36.6344 35.8775 37.0316 36.1238C37.7955 36.555 38.5288 36.247 38.6204 36.2162C38.5899 36.1238 38.4677 35.2923 37.7344 34.8612Z" fill="#50254A"/>
        <path d="M96.9773 21.7113C98.4744 21.5881 99.9716 21.4649 101.438 21.3109C101.408 21.0953 101.316 20.7566 101.072 20.4178C100.308 19.3707 98.3217 19.032 97.4356 19.9867C96.9468 20.5718 96.9468 21.3725 96.9773 21.7113Z" fill="#50254A"/>
        <path d="M105.869 21.7113C104.371 21.5881 102.874 21.4649 101.408 21.3109C101.438 21.0953 101.53 20.7566 101.774 20.4178C102.538 19.3707 104.524 19.032 105.41 19.9867C105.93 20.5718 105.899 21.3725 105.869 21.7113Z" fill="#50254A"/>
        <path d="M101.438 20.7874C101.438 20.7874 98.9941 21.1569 98.9941 23.5898C98.9941 26.0227 101.438 27.5317 101.438 27.5317C101.438 27.5317 103.883 26.0535 103.883 23.6206C103.883 21.1877 101.438 20.7874 101.438 20.7874Z" fill="#883F71"/>
        <path d="M102.324 21.3108H100.552C100.308 21.588 100.094 21.9575 100.094 22.5734C100.094 24.1133 101.438 25.0371 101.438 25.0371C101.438 25.0371 102.782 24.0825 102.782 22.5734C102.782 21.9575 102.569 21.588 102.324 21.3108Z" fill="#50254A"/>
        <path d="M101.438 15.2131C101.438 15.2131 99.7578 16.5682 99.7578 18.7547C99.7578 20.9412 101.438 21.28 101.438 21.28C101.438 21.28 103.119 20.9412 103.119 18.7547C103.088 16.599 101.438 15.2131 101.438 15.2131Z" fill="#883F71" stroke="white" stroke-width="0.2712" stroke-miterlimit="10"/>
        <path d="M101.438 21.4958C100.949 21.2802 99.9105 20.849 98.6578 21.0646C97.0384 21.311 95.1747 22.5736 94.9608 24.3906C94.9302 24.6062 94.808 25.7764 95.6635 26.7619C96.4274 27.655 97.7106 28.0246 98.9939 27.7166C98.5661 27.4394 97.9856 26.9467 97.6801 26.1768C97.069 24.5446 98.0773 22.4504 99.6355 21.7421C100.338 21.4034 101.01 21.4342 101.438 21.4958Z" fill="#883F71"/>
        <path d="M101.438 21.4958C101.927 21.2802 102.966 20.849 104.218 21.0646C105.838 21.311 107.702 22.5736 107.915 24.3906C107.946 24.6062 108.068 25.7764 107.213 26.7619C106.449 27.6242 105.166 27.9938 103.882 27.6858C104.31 27.4087 104.891 26.9159 105.196 26.146C105.807 24.5138 104.799 22.4197 103.241 21.7113C102.538 21.4034 101.866 21.4342 101.438 21.4958Z" fill="#883F71"/>
        <path d="M98.8413 22.512C98.8413 22.512 99.5746 21.4033 101.438 21.4033C103.302 21.4033 104.035 22.512 104.035 22.512" stroke="white" stroke-width="0.1806" stroke-miterlimit="10"/>
        <path d="M89.2167 38.6493C89.0945 37.1403 88.9723 35.6313 88.8195 34.1531C88.6056 34.1839 88.2695 34.2763 87.9334 34.5226C86.8946 35.2925 86.5585 37.2943 87.5057 38.1874C88.0862 38.7109 88.8806 38.6801 89.2167 38.6493Z" fill="#50254A"/>
        <path d="M89.2167 29.6876C89.0945 31.1966 88.9723 32.7057 88.8195 34.1839C88.6056 34.1531 88.2695 34.0607 87.9334 33.8143C86.8946 33.0444 86.5585 31.0427 87.5057 30.1496C88.0862 29.626 88.8806 29.6568 89.2167 29.6876Z" fill="#50254A"/>
        <path d="M88.3306 34.1532C88.3306 34.1532 88.6972 36.6169 91.111 36.6169C93.5247 36.6169 95.0219 34.1532 95.0219 34.1532C95.0219 34.1532 93.5247 31.6895 91.111 31.6895C88.6972 31.6895 88.3306 34.1532 88.3306 34.1532Z" fill="#883F71"/>
        <path d="M88.8193 33.26V35.0462C89.0943 35.2926 89.461 35.5082 90.072 35.5082C91.5997 35.5082 92.5164 34.1531 92.5164 34.1531C92.5164 34.1531 91.5692 32.7981 90.072 32.7981C89.4915 32.7981 89.0943 33.0137 88.8193 33.26Z" fill="#50254A"/>
        <path d="M82.8003 34.153C82.8003 34.153 84.1447 35.8468 86.314 35.8468C88.4833 35.8468 88.8194 34.153 88.8194 34.153C88.8194 34.153 88.4833 32.4592 86.314 32.4592C84.1447 32.49 82.8003 34.153 82.8003 34.153Z" fill="#883F71" stroke="white" stroke-width="0.2712" stroke-miterlimit="10"/>
        <path d="M89.0026 34.1533C88.7888 34.6461 88.361 35.6931 88.5749 36.9558C88.8193 38.588 90.072 40.4666 91.8747 40.6821C92.0886 40.7129 93.2496 40.8361 94.2274 39.9738C95.1134 39.2039 95.4801 37.9105 95.1745 36.617C94.8995 37.0482 94.4107 37.6333 93.6468 37.9413C92.0275 38.5572 89.9498 37.5409 89.2471 35.9703C88.911 35.262 88.9415 34.5845 89.0026 34.1533Z" fill="#883F71"/>
        <path d="M89.0026 34.1531C88.7888 33.6604 88.361 32.6133 88.5749 31.3506C88.8193 29.7184 90.072 27.8399 91.8747 27.6243C92.0886 27.5935 93.2496 27.4703 94.2274 28.3326C95.1134 29.1025 95.4801 30.396 95.1745 31.6894C94.8995 31.2583 94.4107 30.6731 93.6468 30.3652C92.0275 29.7492 89.9498 30.7655 89.2471 32.3361C88.911 33.0444 88.9415 33.722 89.0026 34.1531Z" fill="#883F71"/>
        <path d="M90.0413 36.771C90.0413 36.771 88.9414 36.0319 88.9414 34.1533C88.9414 32.2748 90.0413 31.5356 90.0413 31.5356" stroke="white" stroke-width="0.1806" stroke-miterlimit="10"/>
        <path d="M106.021 46.4717C104.524 46.5949 103.027 46.718 101.561 46.872C101.591 47.0876 101.683 47.4264 101.927 47.7651C102.691 48.8122 104.677 49.1509 105.563 48.1963C106.083 47.6111 106.052 46.8104 106.021 46.4717Z" fill="#50254A"/>
        <path d="M97.1301 46.4717C98.6273 46.5949 100.124 46.718 101.591 46.872C101.56 47.0876 101.469 47.4264 101.224 47.7651C100.46 48.8122 98.4745 49.1509 97.5884 48.1963C97.069 47.6111 97.0996 46.8104 97.1301 46.4717Z" fill="#50254A"/>
        <path d="M101.561 47.3645C101.561 47.3645 104.005 46.995 104.005 44.5621C104.005 42.1291 101.561 40.6201 101.561 40.6201C101.561 40.6201 99.1162 42.1291 99.1162 44.5621C99.1162 46.995 101.561 47.3645 101.561 47.3645Z" fill="#883F71"/>
        <path d="M100.674 46.8719H102.446C102.691 46.5947 102.905 46.2251 102.905 45.6092C102.905 44.0694 101.56 43.1455 101.56 43.1455C101.56 43.1455 100.216 44.1002 100.216 45.6092C100.216 46.1943 100.43 46.5947 100.674 46.8719Z" fill="#50254A"/>
        <path d="M101.56 52.9389C101.56 52.9389 103.241 51.5839 103.241 49.3974C103.241 47.2108 101.56 46.8721 101.56 46.8721C101.56 46.8721 99.8799 47.2108 99.8799 49.3974C99.9104 51.5839 101.56 52.9389 101.56 52.9389Z" fill="#883F71" stroke="white" stroke-width="0.2712" stroke-miterlimit="10"/>
        <path d="M101.56 46.6871C102.049 46.9027 103.088 47.3338 104.34 47.1182C105.96 46.8719 107.824 45.6092 108.037 43.7922C108.068 43.5767 108.19 42.4064 107.335 41.4209C106.571 40.5278 105.288 40.1583 104.004 40.4662C104.432 40.7434 105.013 41.2362 105.318 42.0061C105.929 43.6383 104.921 45.7324 103.363 46.4407C102.691 46.7795 101.988 46.7487 101.56 46.6871Z" fill="#883F71"/>
        <path d="M101.56 46.6871C101.071 46.9027 100.033 47.3338 98.7799 47.1182C97.1605 46.8719 95.2967 45.6092 95.0828 43.7922C95.0523 43.5767 94.9301 42.4064 95.7856 41.4209C96.5494 40.5278 97.8327 40.1583 99.1159 40.4662C98.6882 40.7434 98.1077 41.2362 97.8021 42.0061C97.1911 43.6383 98.1993 45.7324 99.7576 46.4407C100.46 46.7795 101.163 46.7487 101.56 46.6871Z" fill="#883F71"/>
        <path d="M104.158 45.6709C104.158 45.6709 103.424 46.7796 101.56 46.7796C99.6967 46.7796 98.9634 45.6709 98.9634 45.6709" stroke="white" stroke-width="0.1806" stroke-miterlimit="10"/>
        <path d="M113.782 29.5336C113.904 31.0426 114.026 32.5516 114.179 34.0298C114.393 33.999 114.729 33.9066 115.065 33.6603C116.104 32.8904 116.44 30.8886 115.493 29.9955C114.912 29.472 114.118 29.5028 113.782 29.5336Z" fill="#50254A"/>
        <path d="M113.782 38.4953C113.904 36.9863 114.026 35.4772 114.179 33.999C114.393 34.0298 114.729 34.1222 115.065 34.3686C116.104 35.1385 116.44 37.1402 115.493 38.0333C114.912 38.5569 114.118 38.5261 113.782 38.4953Z" fill="#50254A"/>
        <path d="M114.699 34.0299C114.699 34.0299 114.332 31.5662 111.918 31.5662C109.504 31.5662 108.007 34.0299 108.007 34.0299C108.007 34.0299 109.504 36.4936 111.918 36.4936C114.301 36.4936 114.699 34.0299 114.699 34.0299Z" fill="#883F71"/>
        <path d="M114.179 34.9229V33.1368C113.904 32.8904 113.538 32.6748 112.927 32.6748C111.399 32.6748 110.482 34.0298 110.482 34.0298C110.482 34.0298 111.43 35.3849 112.927 35.3849C113.538 35.3849 113.904 35.1693 114.179 34.9229Z" fill="#50254A"/>
        <path d="M120.229 34.0297C120.229 34.0297 118.885 32.3359 116.715 32.3359C114.546 32.3359 114.21 34.0297 114.21 34.0297C114.21 34.0297 114.546 35.7235 116.715 35.7235C118.854 35.6927 120.229 34.0297 120.229 34.0297Z" fill="#883F71" stroke="white" stroke-width="0.2712" stroke-miterlimit="10"/>
        <path d="M114.026 34.0298C114.24 33.5371 114.668 32.49 114.454 31.2274C114.21 29.5952 112.957 27.7166 111.154 27.501C110.941 27.4702 109.779 27.347 108.802 28.2093C107.916 28.9792 107.549 30.2727 107.855 31.5661C108.13 31.135 108.618 30.5498 109.382 30.2419C111.002 29.6259 113.079 30.6422 113.782 32.2128C114.088 32.9212 114.057 33.5987 114.026 34.0298Z" fill="#883F71"/>
        <path d="M114.026 34.03C114.24 34.5228 114.668 35.5698 114.454 36.8325C114.21 38.4647 112.957 40.3433 111.154 40.5588C110.941 40.5896 109.779 40.7128 108.802 39.8505C107.916 39.0806 107.549 37.7872 107.855 36.4937C108.13 36.9249 108.618 37.51 109.382 37.818C111.002 38.4339 113.079 37.4176 113.782 35.847C114.088 35.1387 114.057 34.4304 114.026 34.03Z" fill="#883F71"/>
        <path d="M112.987 31.4124C112.987 31.4124 114.087 32.1515 114.087 34.03C114.087 35.9086 112.987 36.6477 112.987 36.6477" stroke="white" stroke-width="0.1806" stroke-miterlimit="10"/>
        <path d="M135.781 34.7072L137.645 35.0152L135.781 35.3231C135.109 35.4463 134.589 35.9699 134.467 36.6474L134.161 38.526L133.856 36.6474C133.734 35.9699 133.214 35.4463 132.542 35.3231L130.678 35.0152L132.542 34.7072C133.214 34.584 133.734 34.0605 133.856 33.383L134.161 31.5044L134.467 33.383C134.589 34.0605 135.109 34.584 135.781 34.7072Z" fill="#50254A"/>
        <path d="M70.4262 34.7072L72.29 35.0152L70.4262 35.3231C69.754 35.4463 69.2346 35.9699 69.1124 36.6474L68.8069 38.526L68.5013 36.6474C68.3791 35.9699 67.8597 35.4463 67.1875 35.3231L65.3237 35.0152L67.1875 34.7072C67.8597 34.584 68.3791 34.0605 68.5013 33.383L68.8069 31.5044L69.1124 33.383C69.2346 34.0605 69.754 34.584 70.4262 34.7072Z" fill="#50254A"/>
        <path d="M101.5 34.0913C101.683 34.0913 101.836 34.1529 101.927 34.2761C102.08 34.0297 102.202 33.7217 102.202 33.3522C102.202 32.4899 101.561 31.9971 101.5 31.9355C101.439 31.9971 100.797 32.4899 100.797 33.3522C100.797 33.7525 100.919 34.0605 101.072 34.2761C101.164 34.1529 101.316 34.0913 101.5 34.0913Z" fill="#50254A"/>
        <path d="M100.888 34.7073C100.888 34.6765 100.888 34.6765 100.888 34.6457C100.613 34.6149 100.247 34.6765 99.9107 34.8613C99.1774 35.2925 99.0552 36.0932 99.0552 36.1856C99.1468 36.2164 99.8801 36.5243 100.644 36.0932C101.041 35.8776 101.255 35.5388 101.377 35.2617C101.102 35.2309 100.888 34.9845 100.888 34.7073Z" fill="#50254A"/>
        <path d="M103.088 34.8612C102.752 34.6456 102.386 34.6148 102.111 34.6456C102.111 34.6764 102.111 34.6764 102.111 34.7072C102.111 34.9844 101.927 35.2307 101.652 35.2923C101.775 35.5695 101.988 35.8775 102.386 36.1238C103.149 36.555 103.883 36.247 103.974 36.2162C103.944 36.1238 103.822 35.2923 103.088 34.8612Z" fill="#50254A"/>
        <path d="M162.364 21.7115C163.861 21.5883 165.358 21.4651 166.824 21.3111C166.794 21.0956 166.702 20.7568 166.458 20.4181C165.694 19.371 163.708 19.0322 162.822 19.9869C162.302 20.572 162.333 21.3727 162.364 21.7115Z" fill="#50254A"/>
        <path d="M171.255 21.7115C169.758 21.5883 168.261 21.4651 166.794 21.3111C166.824 21.0956 166.916 20.7568 167.161 20.4181C167.924 19.371 169.91 19.0322 170.796 19.9869C171.285 20.572 171.285 21.3727 171.255 21.7115Z" fill="#50254A"/>
        <path d="M166.794 20.7876C166.794 20.7876 164.35 21.1572 164.35 23.5901C164.35 26.023 166.794 27.532 166.794 27.532C166.794 27.532 169.238 26.023 169.238 23.5901C169.238 21.1572 166.794 20.7876 166.794 20.7876Z" fill="#883F71"/>
        <path d="M167.68 21.311H165.908C165.663 21.5882 165.449 21.9578 165.449 22.5737C165.449 24.1135 166.794 25.0374 166.794 25.0374C166.794 25.0374 168.138 24.0827 168.138 22.5737C168.138 21.9578 167.924 21.5882 167.68 21.311Z" fill="#50254A"/>
        <path d="M166.794 15.2134C166.794 15.2134 165.113 16.5684 165.113 18.755C165.113 20.9415 166.794 21.2803 166.794 21.2803C166.794 21.2803 168.474 20.9415 168.474 18.755C168.474 16.5992 166.794 15.2134 166.794 15.2134Z" fill="#883F71" stroke="white" stroke-width="0.2712" stroke-miterlimit="10"/>
        <path d="M166.794 21.496C166.305 21.2804 165.266 20.8493 164.013 21.0649C162.394 21.3112 160.53 22.5739 160.316 24.3909C160.286 24.6064 160.163 25.7767 161.019 26.7622C161.783 27.6553 163.066 28.0248 164.349 27.7169C163.922 27.4397 163.341 26.947 163.036 26.177C162.424 24.5448 163.433 22.4507 164.991 21.7424C165.694 21.4036 166.366 21.4344 166.794 21.496Z" fill="#883F71"/>
        <path d="M166.793 21.496C167.282 21.2804 168.321 20.8493 169.574 21.0649C171.193 21.3112 173.057 22.5739 173.271 24.3909C173.301 24.6064 173.424 25.7767 172.568 26.7622C171.804 27.6553 170.521 28.0248 169.238 27.7169C169.666 27.4397 170.246 26.947 170.552 26.177C171.163 24.5448 170.154 22.4507 168.596 21.7424C167.893 21.4036 167.221 21.4344 166.793 21.496Z" fill="#883F71"/>
        <path d="M164.197 22.5122C164.197 22.5122 164.93 21.4036 166.794 21.4036C168.658 21.4036 169.391 22.5122 169.391 22.5122" stroke="white" stroke-width="0.1806" stroke-miterlimit="10"/>
        <path d="M154.572 38.6493C154.45 37.1403 154.328 35.6313 154.175 34.1531C153.961 34.1839 153.625 34.2763 153.289 34.5226C152.25 35.2925 151.914 37.2943 152.861 38.1874C153.442 38.7109 154.267 38.6801 154.572 38.6493Z" fill="#50254A"/>
        <path d="M154.572 29.6876C154.45 31.1966 154.328 32.7057 154.175 34.1839C153.961 34.1531 153.625 34.0607 153.289 33.8143C152.25 33.0444 151.914 31.0427 152.861 30.1496C153.442 29.626 154.267 29.6568 154.572 29.6876Z" fill="#50254A"/>
        <path d="M153.686 34.1532C153.686 34.1532 154.053 36.6169 156.466 36.6169C158.88 36.6169 160.377 34.1532 160.377 34.1532C160.377 34.1532 158.88 31.6895 156.466 31.6895C154.053 31.6895 153.686 34.1532 153.686 34.1532Z" fill="#883F71"/>
        <path d="M154.175 33.26V35.0462C154.45 35.2926 154.847 35.5082 155.428 35.5082C156.955 35.5082 157.872 34.1531 157.872 34.1531C157.872 34.1531 156.925 32.7981 155.428 32.7981C154.847 32.7981 154.45 33.0137 154.175 33.26Z" fill="#50254A"/>
        <path d="M148.156 34.153C148.156 34.153 149.5 35.8468 151.669 35.8468C153.839 35.8468 154.175 34.153 154.175 34.153C154.175 34.153 153.839 32.4592 151.669 32.4592C149.5 32.49 148.156 34.153 148.156 34.153Z" fill="#883F71" stroke="white" stroke-width="0.2712" stroke-miterlimit="10"/>
        <path d="M154.358 34.1533C154.144 34.6461 153.716 35.6931 153.93 36.9558C154.175 38.588 155.427 40.4666 157.23 40.6821C157.444 40.7129 158.605 40.8361 159.583 39.9738C160.469 39.2039 160.836 37.9105 160.53 36.617C160.255 37.0482 159.766 37.6333 159.002 37.9413C157.383 38.5572 155.305 37.5409 154.603 35.9703C154.266 35.262 154.297 34.5845 154.358 34.1533Z" fill="#883F71"/>
        <path d="M154.358 34.1531C154.144 33.6604 153.716 32.6133 153.93 31.3506C154.175 29.7184 155.427 27.8399 157.23 27.6243C157.444 27.5935 158.605 27.4703 159.583 28.3326C160.469 29.1025 160.836 30.396 160.53 31.6894C160.255 31.2583 159.766 30.6731 159.002 30.3652C157.383 29.7492 155.305 30.7655 154.603 32.3361C154.266 33.0444 154.297 33.722 154.358 34.1531Z" fill="#883F71"/>
        <path d="M155.397 36.771C155.397 36.771 154.297 36.0319 154.297 34.1533C154.297 32.2748 155.397 31.5356 155.397 31.5356" stroke="white" stroke-width="0.1806" stroke-miterlimit="10"/>
        <path d="M171.377 46.4717C169.88 46.5949 168.383 46.718 166.916 46.872C166.947 47.0876 167.038 47.4264 167.283 47.7651C168.047 48.8122 170.033 49.1509 170.919 48.1963C171.438 47.6111 171.407 46.8104 171.377 46.4717Z" fill="#50254A"/>
        <path d="M162.486 46.4717C163.983 46.5949 165.48 46.718 166.946 46.872C166.916 47.0876 166.824 47.4264 166.58 47.7651C165.816 48.8122 163.83 49.1509 162.944 48.1963C162.424 47.6111 162.455 46.8104 162.486 46.4717Z" fill="#50254A"/>
        <path d="M166.947 47.3645C166.947 47.3645 169.391 46.995 169.391 44.5621C169.391 42.1291 166.947 40.6201 166.947 40.6201C166.947 40.6201 164.502 42.1291 164.502 44.5621C164.472 46.995 166.947 47.3645 166.947 47.3645Z" fill="#883F71"/>
        <path d="M166.03 46.8719H167.802C168.046 46.5947 168.26 46.2251 168.26 45.6092C168.26 44.0694 166.916 43.1455 166.916 43.1455C166.916 43.1455 165.571 44.1002 165.571 45.6092C165.602 46.1943 165.785 46.5947 166.03 46.8719Z" fill="#50254A"/>
        <path d="M166.947 52.9389C166.947 52.9389 168.627 51.5839 168.627 49.3974C168.627 47.2108 166.947 46.8721 166.947 46.8721C166.947 46.8721 165.266 47.2108 165.266 49.3974C165.266 51.5839 166.947 52.9389 166.947 52.9389Z" fill="#883F71" stroke="white" stroke-width="0.2712" stroke-miterlimit="10"/>
        <path d="M166.946 46.6871C167.435 46.9027 168.474 47.3338 169.727 47.1182C171.346 46.8719 173.21 45.6092 173.424 43.7922C173.454 43.5767 173.576 42.4064 172.721 41.4209C171.957 40.5278 170.674 40.1583 169.391 40.4662C169.818 40.7434 170.399 41.2362 170.704 42.0061C171.315 43.6383 170.307 45.7324 168.749 46.4407C168.046 46.7795 167.343 46.7487 166.946 46.6871Z" fill="#883F71"/>
        <path d="M166.946 46.6871C166.458 46.9027 165.419 47.3338 164.166 47.1182C162.547 46.8719 160.683 45.6092 160.469 43.7922C160.439 43.5767 160.316 42.4064 161.172 41.4209C161.936 40.5278 163.219 40.1583 164.502 40.4662C164.074 40.7434 163.494 41.2362 163.188 42.0061C162.577 43.6383 163.586 45.7324 165.144 46.4407C165.847 46.7795 166.519 46.7487 166.946 46.6871Z" fill="#883F71"/>
        <path d="M169.513 45.6709C169.513 45.6709 168.78 46.7796 166.916 46.7796C165.052 46.7796 164.319 45.6709 164.319 45.6709" stroke="white" stroke-width="0.1806" stroke-miterlimit="10"/>
        <path d="M179.137 29.5338C179.259 31.0428 179.382 32.5518 179.534 34.0301C179.748 33.9993 180.084 33.9069 180.42 33.6605C181.459 32.8906 181.795 30.8888 180.848 29.9957C180.268 29.4722 179.473 29.503 179.137 29.5338Z" fill="#50254A"/>
        <path d="M179.137 38.4955C179.259 36.9865 179.382 35.4775 179.534 33.9993C179.748 34.0301 180.084 34.1225 180.42 34.3688C181.459 35.1387 181.795 37.1405 180.848 38.0336C180.268 38.5571 179.473 38.5263 179.137 38.4955Z" fill="#50254A"/>
        <path d="M180.054 34.0299C180.054 34.0299 179.687 31.5662 177.274 31.5662C174.86 31.5662 173.363 34.0299 173.363 34.0299C173.363 34.0299 174.86 36.4936 177.274 36.4936C179.687 36.4936 180.054 34.0299 180.054 34.0299Z" fill="#883F71"/>
        <path d="M179.535 34.9229V33.1368C179.26 32.8904 178.893 32.6748 178.282 32.6748C176.754 32.6748 175.838 34.0298 175.838 34.0298C175.838 34.0298 176.785 35.3849 178.282 35.3849C178.893 35.3849 179.29 35.1693 179.535 34.9229Z" fill="#50254A"/>
        <path d="M185.585 34.03C185.585 34.03 184.24 32.3362 182.071 32.3362C179.902 32.3362 179.565 34.03 179.565 34.03C179.565 34.03 179.902 35.7238 182.071 35.7238C184.24 35.693 185.585 34.03 185.585 34.03Z" fill="#883F71" stroke="white" stroke-width="0.2712" stroke-miterlimit="10"/>
        <path d="M179.382 34.0299C179.596 33.5372 180.024 32.4901 179.81 31.2275C179.565 29.5953 178.313 27.7167 176.51 27.5011C176.296 27.4395 175.135 27.3163 174.157 28.1786C173.271 28.9485 172.904 30.242 173.21 31.5354C173.485 31.1043 173.974 30.5192 174.738 30.2112C176.357 29.5953 178.435 30.6115 179.137 32.1822C179.474 32.9213 179.443 33.5988 179.382 34.0299Z" fill="#883F71"/>
        <path d="M179.382 34.03C179.596 34.5228 180.024 35.5698 179.81 36.8325C179.565 38.4647 178.313 40.3433 176.51 40.5588C176.296 40.5896 175.135 40.7128 174.157 39.8505C173.271 39.0806 172.904 37.7872 173.21 36.4937C173.485 36.9249 173.974 37.51 174.738 37.818C176.357 38.4339 178.435 37.4176 179.137 35.847C179.474 35.1387 179.443 34.4304 179.382 34.03Z" fill="#883F71"/>
        <path d="M178.343 31.4121C178.343 31.4121 179.443 32.1512 179.443 34.0298C179.443 35.9084 178.343 36.6475 178.343 36.6475" stroke="white" stroke-width="0.1806" stroke-miterlimit="10"/>
        <path d="M201.167 34.7072L203.031 35.0152L201.167 35.3231C200.495 35.4463 199.975 35.9699 199.853 36.6474L199.548 38.526L199.242 36.6474C199.12 35.9699 198.6 35.4463 197.928 35.3231L196.064 35.0152L197.928 34.7072C198.6 34.584 199.12 34.0605 199.242 33.383L199.548 31.5044L199.853 33.383C199.975 34.0605 200.495 34.584 201.167 34.7072Z" fill="#50254A"/>
        <path d="M135.782 34.7072L137.645 35.0152L135.782 35.3231C135.11 35.4463 134.59 35.9699 134.468 36.6474L134.162 38.526L133.857 36.6474C133.735 35.9699 133.215 35.4463 132.543 35.3231L130.679 35.0152L132.543 34.7072C133.215 34.584 133.735 34.0605 133.857 33.383L134.162 31.5044L134.468 33.383C134.59 34.0605 135.11 34.584 135.782 34.7072Z" fill="#50254A"/>
        <path d="M166.855 34.0913C167.038 34.0913 167.191 34.1529 167.283 34.2761C167.436 34.0297 167.558 33.7217 167.558 33.3522C167.558 32.4899 166.916 31.9971 166.855 31.9355C166.794 31.9971 166.152 32.4899 166.152 33.3522C166.152 33.7525 166.275 34.0605 166.427 34.2761C166.55 34.1529 166.702 34.0913 166.855 34.0913Z" fill="#50254A"/>
        <path d="M166.275 34.7073C166.275 34.6765 166.275 34.6765 166.275 34.6457C166 34.6149 165.633 34.6765 165.297 34.8613C164.564 35.2925 164.441 36.0932 164.441 36.1856C164.533 36.2164 165.266 36.5243 166.03 36.0932C166.427 35.8776 166.641 35.5388 166.764 35.2617C166.458 35.2309 166.275 34.9845 166.275 34.7073Z" fill="#50254A"/>
        <path d="M168.444 34.8612C168.108 34.6456 167.742 34.6148 167.467 34.6456C167.467 34.6764 167.467 34.6764 167.467 34.7072C167.467 34.9844 167.283 35.2307 167.008 35.2923C167.131 35.5695 167.344 35.8775 167.742 36.1238C168.505 36.555 169.239 36.247 169.33 36.2162C169.3 36.1238 169.208 35.2923 168.444 34.8612Z" fill="#50254A"/>
    </g>
    <defs>
        <clipPath id="clip0_207_8830">
            <rect width="203" height="70" fill="white"/>
        </clipPath>
    </defs>
</svg>
