<svg width="31" height="30" viewBox="0 0 31 30" fill="none" xmlns="http://www.w3.org/2000/svg">
<path d="M12.6997 13.9C15.1997 14.2 16.8997 13.7 18.0997 13.3C20.7997 12.3 21.9997 10.4 24.8997 10.4C25.8997 10.4 26.6997 10.6 26.8997 10.7C28.6997 11.3 30.8997 13 30.7997 15.1C30.7997 16.2 30.1997 17 30.0997 17.1C29.1997 18.3 28.0997 18.1 27.8997 18.9C27.5997 19.8 28.7997 20.3 28.7997 21.6C28.7997 22.7 27.9997 23.6 27.7997 23.9C25.8997 25.9 22.6997 25.1 22.4997 25.1C21.4997 24.8 20.7997 24.4 20.5997 24.2C18.2997 22.5 18.4997 20 16.6997 17.4C15.9997 16.4 14.7997 15 12.6997 13.9Z" fill="#E44126"/>
<path d="M12.6997 13.9C15.1997 14.2 16.8997 13.7 18.0997 13.3C20.7997 12.3 21.9997 10.4 24.8997 10.4C25.8997 10.4 26.6997 10.6 26.8997 10.7C28.6997 11.3 30.8997 13 30.7997 15.1C30.7997 16.2 30.1997 17 30.0997 17.1C29.1997 18.3 28.0997 18.1 27.8997 18.9C27.5997 19.8 28.7997 20.3 28.7997 21.6C28.7997 22.7 27.9997 23.6 27.7997 23.9C25.8997 25.9 22.6997 25.1 22.4997 25.1C21.4997 24.8 20.7997 24.4 20.5997 24.2C18.2997 22.5 18.4997 20 16.6997 17.4C15.9997 16.4 14.7997 15 12.6997 13.9Z" stroke="white" stroke-width="0.3489" stroke-miterlimit="10" stroke-linecap="round" stroke-linejoin="round"/>
<path d="M13.6997 17.2001C14.6997 14.9001 14.7997 13.1001 14.7997 11.9001C14.6997 9.00006 13.2997 7.30006 14.0997 4.50006C14.3997 3.50006 14.7997 2.90006 14.9997 2.70006C16.0997 1.10006 18.3997 -0.399944 20.3997 0.300056C21.3997 0.700056 21.9997 1.50006 22.0997 1.60006C22.9997 2.80006 22.3997 3.80006 23.1997 4.30006C23.9997 4.80006 24.7997 3.90006 26.0997 4.30006C27.1997 4.60006 27.7997 5.70006 27.8997 6.00006C29.2997 8.40006 27.4997 11.3001 27.2997 11.4001C26.6997 12.3001 26.0997 12.8001 25.8997 12.9001C23.5997 14.6001 21.1997 13.6001 18.1997 14.5001C17.0997 14.8001 15.4997 15.5001 13.6997 17.2001Z" fill="#E44126"/>
<path d="M13.6997 17.2001C14.6997 14.9001 14.7997 13.1001 14.7997 11.9001C14.6997 9.00006 13.2997 7.30006 14.0997 4.50006C14.3997 3.50006 14.7997 2.90006 14.9997 2.70006C16.0997 1.10006 18.3997 -0.399944 20.3997 0.300056C21.3997 0.700056 21.9997 1.50006 22.0997 1.60006C22.9997 2.80006 22.3997 3.80006 23.1997 4.30006C23.9997 4.80006 24.7997 3.90006 26.0997 4.30006C27.1997 4.60006 27.7997 5.70006 27.8997 6.00006C29.2997 8.40006 27.4997 11.3001 27.2997 11.4001C26.6997 12.3001 26.0997 12.8001 25.8997 12.9001C23.5997 14.6001 21.1997 13.6001 18.1997 14.5001C17.0997 14.8001 15.4997 15.5001 13.6997 17.2001Z" stroke="white" stroke-width="0.3489" stroke-miterlimit="10" stroke-linecap="round" stroke-linejoin="round"/>
<path d="M17.1999 17.3001C15.3999 15.6001 13.6999 15.0001 12.4999 14.6001C9.69991 13.9001 7.59992 14.6001 5.29992 13.0001C4.49992 12.4001 3.99992 11.8001 3.79992 11.6001C2.69992 10.0001 1.99992 7.30007 3.19992 5.70007C3.89992 4.80007 4.79992 4.50007 4.89992 4.50007C6.39992 4.00007 7.09992 4.80007 7.79992 4.30007C8.49992 3.70007 7.89992 2.70007 8.69992 1.60007C9.39992 0.700073 10.4999 0.400073 10.8999 0.400073C13.5999 -0.0999273 15.7999 2.40007 15.8999 2.60007C16.5999 3.40007 16.7999 4.20007 16.8999 4.40007C17.6999 7.10007 15.9999 9.00007 15.9999 12.2001C15.8999 13.3001 16.0999 15.1001 17.1999 17.3001Z" fill="#E44126"/>
<path d="M17.1999 17.3001C15.3999 15.6001 13.6999 15.0001 12.4999 14.6001C9.69992 13.9001 7.59992 14.6001 5.29992 13.0001C4.49992 12.4001 3.99992 11.8001 3.79992 11.6001C2.69992 10.0001 1.99992 7.30007 3.19992 5.70007C3.89992 4.80007 4.79992 4.50007 4.89992 4.50007C6.39992 4.00007 7.09992 4.80007 7.79992 4.30007C8.49992 3.70007 7.89992 2.70007 8.69992 1.60007C9.39992 0.700073 10.4999 0.400073 10.8999 0.400073C13.5999 -0.0999273 15.7999 2.40007 15.8999 2.60007C16.5999 3.40007 16.7999 4.20007 16.8999 4.40007C17.6999 7.10007 15.9999 9.00007 15.9999 12.2001C15.8999 13.3001 16.0999 15.1001 17.1999 17.3001Z" stroke="white" stroke-width="0.3489" stroke-miterlimit="10" stroke-linecap="round" stroke-linejoin="round"/>
<path d="M18.2998 13.9C16.1998 15.1 14.9998 16.5 14.2998 17.6C12.6998 20 12.7998 22.2 10.4998 24C9.69979 24.6 8.89979 24.9 8.69979 25C6.89979 25.6 4.09979 25.5 2.89979 23.7C2.29979 22.8 2.29979 21.8 2.29979 21.7C2.29979 20.2 3.29979 19.7 2.99979 18.9C2.69979 18 1.49979 18.3 0.699786 17.2C-0.000213861 16.3 0.199786 15.1 0.199786 14.8C0.499786 12.1 3.59979 10.8 3.79979 10.7C4.79979 10.3 5.59979 10.3 5.89979 10.3C8.79979 10.3 10.0998 12.5 13.0998 13.5C14.1998 13.9 15.8998 14.3 18.2998 13.9Z" fill="#E44126"/>
<path d="M18.2998 13.9C16.1998 15.1 14.9998 16.5 14.2998 17.6C12.6998 20 12.7998 22.2 10.4998 24C9.69979 24.6 8.89979 24.9 8.69979 25C6.89979 25.6 4.09979 25.5 2.89979 23.7C2.29979 22.8 2.29979 21.8 2.29979 21.7C2.29979 20.2 3.29979 19.7 2.99979 18.9C2.69979 18 1.49979 18.3 0.699786 17.2C-0.000213861 16.3 0.199786 15.1 0.199786 14.8C0.499786 12.1 3.59979 10.8 3.79979 10.7C4.79979 10.3 5.59979 10.3 5.89979 10.3C8.79979 10.3 10.0998 12.5 13.0998 13.5C14.1998 13.9 15.8998 14.3 18.2998 13.9Z" stroke="white" stroke-width="0.3489" stroke-miterlimit="10" stroke-linecap="round" stroke-linejoin="round"/>
<path d="M15.4999 11.9C15.9999 14.3 16.9999 15.9 17.7999 16.8C19.5999 19 21.7999 19.7 22.6999 22.3C22.9999 23.3 23.0999 24 23.0999 24.3C23.0999 26.2 22.0999 28.8 20.0999 29.4C19.0999 29.7 18.0999 29.4 17.9999 29.4C16.5999 28.9 16.3999 27.9 15.5999 27.9C14.6999 27.9 14.5999 29.1 13.2999 29.6C12.1999 30 11.1999 29.5 10.7999 29.3C8.1999 28.2 7.9999 24.8 7.9999 24.6C7.8999 23.6 8.1999 22.8 8.1999 22.5C9.0999 19.8 11.5999 19.2 13.4999 16.7C14.1999 15.8 15.0999 14.3 15.4999 11.9Z" fill="#E44126"/>
<path d="M15.4999 11.9C15.9999 14.3 16.9999 15.9 17.7999 16.8C19.5999 19 21.7999 19.7 22.6999 22.3C22.9999 23.3 23.0999 24 23.0999 24.3C23.0999 26.2 22.0999 28.8 20.0999 29.4C19.0999 29.7 18.0999 29.4 17.9999 29.4C16.5999 28.9 16.3999 27.9 15.5999 27.9C14.6999 27.9 14.5999 29.1 13.2999 29.6C12.1999 30 11.1999 29.5 10.7999 29.3C8.1999 28.2 7.9999 24.8 7.9999 24.6C7.8999 23.6 8.1999 22.8 8.1999 22.5C9.0999 19.8 11.5999 19.2 13.4999 16.7C14.1999 15.8 15.0999 14.3 15.4999 11.9Z" stroke="white" stroke-width="0.3489" stroke-miterlimit="10" stroke-linecap="round" stroke-linejoin="round"/>
<path d="M15.7 17.2C15.4 15.7 14.8 14.7 14.3 14.1C13.2 12.7 11.8 12.3 11.2 10.6C11 10 11 9.50002 11 9.30002C11 8.10002 11.6 6.50002 12.9 6.10002C13.6 5.90002 14.2 6.10002 14.2 6.10002C15.1 6.40002 15.2 7.10002 15.7 7.10002C16.3 7.10002 16.4 6.30002 17.2 6.00002C17.9 5.80002 18.6 6.10002 18.8 6.20002C20.4 6.90002 20.5 9.10002 20.5 9.20002C20.5 9.90002 20.4 10.4 20.3 10.5C19.8 12.2 18.2 12.6 16.9 14.2C16.5 14.7 15.9 15.7 15.7 17.2Z" fill="white"/>
<path d="M15.7 17.2C15.4 15.7 14.8 14.7 14.3 14.1C13.2 12.7 11.8 12.3 11.2 10.6C11 10 11 9.50002 11 9.30002C11 8.10002 11.6 6.50002 12.9 6.10002C13.6 5.90002 14.2 6.10002 14.2 6.10002C15.1 6.40002 15.2 7.10002 15.7 7.10002C16.3 7.10002 16.4 6.30002 17.2 6.00002C17.9 5.80002 18.6 6.10002 18.8 6.20002C20.4 6.90002 20.5 9.10002 20.5 9.20002C20.5 9.90002 20.4 10.4 20.3 10.5C19.8 12.2 18.2 12.6 16.9 14.2C16.5 14.7 15.9 15.7 15.7 17.2Z" stroke="#E44126" stroke-width="0.3489" stroke-miterlimit="10" stroke-linecap="round" stroke-linejoin="round"/>
<path d="M18.1999 14.8C16.6999 15.1 15.6999 15.7 15.0999 16.2C13.6999 17.3 13.2999 18.7 11.5999 19.3C10.9999 19.5 10.4999 19.5 10.2999 19.5C9.09989 19.5 7.49989 18.9 7.09989 17.6C6.89989 16.9 7.09989 16.3 7.09989 16.3C7.39989 15.4 8.09989 15.3 8.09989 14.8C8.09989 14.2 7.29989 14.1 6.99989 13.3C6.79989 12.6 7.09989 11.9 7.19989 11.7C7.89989 10.1 10.0999 10 10.1999 10C10.8999 10 11.3999 10.1 11.4999 10.2C13.1999 10.7 13.5999 12.3 15.1999 13.6C15.6999 13.9 16.5999 14.5 18.1999 14.8Z" fill="white"/>
<path d="M18.1999 14.8C16.6999 15.1 15.6999 15.7 15.0999 16.2C13.6999 17.3 13.2999 18.7 11.5999 19.3C10.9999 19.5 10.4999 19.5 10.2999 19.5C9.09989 19.5 7.49989 18.9 7.09989 17.6C6.89989 16.9 7.09989 16.3 7.09989 16.3C7.39989 15.4 8.09989 15.3 8.09989 14.8C8.09989 14.2 7.29989 14.1 6.99989 13.3C6.79989 12.6 7.09989 11.9 7.19989 11.7C7.89989 10.1 10.0999 10 10.1999 10C10.8999 10 11.3999 10.1 11.4999 10.2C13.1999 10.7 13.5999 12.3 15.1999 13.6C15.6999 13.9 16.5999 14.5 18.1999 14.8Z" stroke="#E44126" stroke-width="0.3489" stroke-miterlimit="10" stroke-linecap="round" stroke-linejoin="round"/>
<path d="M15.6999 12.3C15.9999 13.8 16.5999 14.8 17.0999 15.4C18.1999 16.8 19.5999 17.2 20.1999 18.9C20.3999 19.5 20.3999 20 20.3999 20.2C20.3999 21.4 19.7999 23 18.4999 23.4C17.7999 23.6 17.1999 23.4 17.1999 23.4C16.2999 23.1 16.1999 22.4 15.6999 22.4C15.0999 22.4 14.9999 23.2 14.1999 23.5C13.4999 23.7 12.7999 23.4 12.5999 23.3C10.9999 22.6 10.8999 20.4 10.8999 20.3C10.8999 19.6 10.9999 19.1 11.0999 19C11.5999 17.3 13.1999 16.9 14.4999 15.3C14.8999 14.8 15.3999 13.8 15.6999 12.3Z" fill="white"/>
<path d="M15.6999 12.3C15.9999 13.8 16.5999 14.8 17.0999 15.4C18.1999 16.8 19.5999 17.2 20.1999 18.9C20.3999 19.5 20.3999 20 20.3999 20.2C20.3999 21.4 19.7999 23 18.4999 23.4C17.7999 23.6 17.1999 23.4 17.1999 23.4C16.2999 23.1 16.1999 22.4 15.6999 22.4C15.0999 22.4 14.9999 23.2 14.1999 23.5C13.4999 23.7 12.7999 23.4 12.5999 23.3C10.9999 22.6 10.8999 20.4 10.8999 20.3C10.8999 19.6 10.9999 19.1 11.0999 19C11.5999 17.3 13.1999 16.9 14.4999 15.3C14.8999 14.8 15.3999 13.8 15.6999 12.3Z" stroke="#E44126" stroke-width="0.3489" stroke-miterlimit="10" stroke-linecap="round" stroke-linejoin="round"/>
<path d="M13.1997 14.8001C14.6997 14.5001 15.6997 13.9001 16.2997 13.4001C17.6997 12.3001 18.0997 10.9001 19.7997 10.3001C20.3997 10.1001 20.8997 10.1001 21.0997 10.1001C22.2997 10.1001 23.8997 10.7001 24.2997 12.0001C24.4997 12.7001 24.2997 13.3001 24.2997 13.3001C23.9997 14.2001 23.2997 14.3001 23.2997 14.8001C23.2997 15.4001 24.0997 15.5001 24.3997 16.3001C24.5997 17.0001 24.2997 17.7001 24.1997 17.9001C23.4997 19.5001 21.2997 19.6001 21.1997 19.6001C20.4997 19.6001 19.9997 19.5001 19.8997 19.4001C18.1997 18.9001 17.7997 17.3001 16.1997 16.0001C15.6997 15.6001 14.6997 15.0001 13.1997 14.8001Z" fill="white"/>
<path d="M13.1997 14.8001C14.6997 14.5001 15.6997 13.9001 16.2997 13.4001C17.6997 12.3001 18.0997 10.9001 19.7997 10.3001C20.3997 10.1001 20.8997 10.1001 21.0997 10.1001C22.2997 10.1001 23.8997 10.7001 24.2997 12.0001C24.4997 12.7001 24.2997 13.3001 24.2997 13.3001C23.9997 14.2001 23.2997 14.3001 23.2997 14.8001C23.2997 15.4001 24.0997 15.5001 24.3997 16.3001C24.5997 17.0001 24.2997 17.7001 24.1997 17.9001C23.4997 19.5001 21.2997 19.6001 21.1997 19.6001C20.4997 19.6001 19.9997 19.5001 19.8997 19.4001C18.1997 18.9001 17.7997 17.3001 16.1997 16.0001C15.6997 15.6001 14.6997 15.0001 13.1997 14.8001Z" stroke="#E44126" stroke-width="0.3489" stroke-miterlimit="10" stroke-linecap="round" stroke-linejoin="round"/>
<path d="M16.6999 11.5001C18.4999 12.1001 19.4999 14.0001 18.8999 15.9001C18.2999 17.7001 16.3999 18.7001 14.4999 18.1001C12.6999 17.5001 11.6999 15.6001 12.2999 13.7001C12.9999 11.9001 14.8999 10.9001 16.6999 11.5001Z" fill="#F26664"/>
</svg>
