<svg width="157" height="83" viewBox="0 0 157 83" fill="none" xmlns="http://www.w3.org/2000/svg">
<path d="M52.32 8.86399C52.128 7.232 51.792 5.648 51.072 4.20799C50.4 2.86399 49.392 1.856 48.048 1.136C46.8 0.463997 45.408 0.511999 43.92 1.184C43.104 1.51999 42.336 2.048 41.616 2.62399C40.368 3.584 39.216 4.64 38.112 5.744L37.392 6.56C36.624 7.472 35.808 8.432 35.04 9.392C34.608 9.92 34.128 10.496 33.744 11.072C32.784 12.416 31.824 13.808 30.864 15.152L29.856 16.736C29.232 17.744 28.608 18.704 28.032 19.712C27.552 20.48 27.072 21.248 26.64 22.064C25.632 23.84 24.576 25.616 23.664 27.44L21.648 31.328C21.552 31.568 21.408 31.808 21.264 32.048C20.928 32.48 20.736 33.008 20.448 33.488C20.16 34.16 19.824 34.832 19.488 35.504L17.328 39.968C16.848 41.024 16.368 42.128 15.84 43.184L13.488 48.272C12.72 50 12 51.728 11.232 53.456C10.944 54.176 10.848 54.224 10.08 54.128C9.408 54.032 8.736 53.936 8.064 53.792C6.24 53.36 4.608 52.64 3.216 51.44C2.544 50.864 1.968 50.24 1.536 49.472C1.392 49.232 1.248 48.944 1.2 48.704C1.056 48.368 1.152 48.032 1.44 47.744C1.536 47.648 1.632 47.552 1.728 47.408C1.632 47.408 1.584 47.36 1.536 47.36C1.344 47.408 1.2 47.552 1.104 47.696L0.624 48.416C0.576 48.8 0.72 49.184 0.912 49.52C1.344 50.432 2.016 51.2 2.784 51.872C4.08 52.928 5.568 53.696 7.2 54.224C8.16 54.56 9.12 54.8 10.08 54.944C10.224 54.992 10.32 55.04 10.416 55.088L10.32 55.472C9.936 56.384 9.552 57.344 9.168 58.304L8.736 59.312C8.352 60.272 7.92 61.28 7.536 62.288C7.056 63.44 6.576 64.592 6.096 65.792L4.656 69.584C4.512 70.064 4.32 70.496 4.128 70.976C3.936 71.6 3.744 72.224 3.456 72.896C2.832 74.336 2.256 75.824 1.728 77.312C1.248 78.608 0.768 79.904 0.096 81.152C0.096 81.248 0.048 81.296 0.048 81.344C-0.048 81.584 0.048 81.776 0.24 81.872C0.384 81.968 0.528 81.968 0.672 82.064C0.816 82.256 1.008 82.304 1.296 82.16C1.584 82.304 1.824 82.16 1.968 81.968C2.112 81.536 2.208 81.2 2.352 80.816C2.784 79.664 3.264 78.512 3.744 77.408C3.84 77.12 3.936 76.88 4.128 76.64L4.272 76.112C4.8 74.768 5.328 73.424 5.904 72.08C6.576 70.304 7.296 68.528 8.016 66.704C8.688 65.168 9.312 63.632 9.936 62.096C10.848 59.936 11.712 57.776 12.624 55.568L12.768 55.376C13.104 55.184 13.44 55.184 13.728 55.184C15.36 55.232 16.992 55.088 18.624 54.752C21.36 54.272 24.096 53.408 26.784 52.208C28.32 51.536 29.856 50.72 31.296 49.808C32.304 49.184 33.36 48.512 34.32 47.744C35.136 47.072 36 46.4 36.816 45.68C37.392 45.152 38.016 44.672 38.448 44.048C38.496 43.952 38.592 43.904 38.688 43.808C39.168 43.328 39.648 42.896 40.032 42.368C40.512 41.744 41.04 41.168 41.52 40.592C41.616 40.496 41.664 40.448 41.712 40.352C41.856 40.16 41.952 39.968 42.096 39.824C42.72 38.912 43.344 38 44.016 37.088C44.256 36.704 44.544 36.32 44.832 35.936L44.784 35.984C44.928 35.552 45.168 35.168 45.504 34.832V34.88C45.696 34.16 46.128 33.536 46.56 32.912C46.608 32.864 46.656 32.864 46.704 32.912C46.752 32.672 46.848 32.432 46.944 32.192C47.376 31.184 47.808 30.224 48.432 29.264C48.432 29.168 48.432 29.12 48.48 29.024C48.912 28.112 49.344 27.152 49.632 26.192C49.68 25.952 49.776 25.76 49.872 25.52C50.064 24.992 50.256 24.512 50.4 23.984C50.736 22.88 51.024 21.776 51.36 20.72C51.36 20.528 51.408 20.384 51.456 20.24C51.6 19.328 51.792 18.416 51.936 17.552L52.176 16.016C52.224 15.44 52.32 14.864 52.368 14.336C52.416 13.52 52.464 12.752 52.464 11.984C52.512 10.928 52.416 9.92 52.32 8.86399ZM50.064 16.208C49.776 18.224 49.248 20.192 48.72 22.208C48.288 23.792 47.712 25.328 47.088 26.864C46.8 27.632 46.512 28.352 46.128 29.072C45.84 29.6 45.648 30.176 45.36 30.752L43.92 33.392C42.96 35.12 41.856 36.752 40.704 38.384C40.32 38.912 39.888 39.392 39.504 39.872C38.16 41.552 36.72 43.088 35.136 44.528C34.128 45.44 33.024 46.352 31.92 47.168C29.616 48.896 27.216 50.288 24.672 51.44C23.52 51.968 22.32 52.4 21.12 52.832C19.44 53.36 17.808 53.744 16.128 53.984L14.016 54.224C13.68 54.224 13.68 54.224 13.392 53.888L13.968 52.496C14.784 50.672 15.6 48.848 16.416 47.024L16.752 46.448C16.8 46.448 16.8 46.448 16.8 46.4L16.752 46.448C16.848 45.968 17.088 45.488 17.28 45.056C18.048 43.424 18.816 41.744 19.632 40.112C20.304 38.672 21.024 37.232 21.696 35.792C21.792 35.6 21.888 35.36 22.032 35.168C22.128 34.976 22.272 34.832 22.368 34.64C22.464 34.4 22.512 34.208 22.608 34.016C23.424 32.432 24.24 30.848 25.056 29.312C25.104 29.168 25.248 29.024 25.344 28.88L25.488 28.448C25.824 27.776 26.208 27.152 26.544 26.528C26.592 26.432 26.688 26.336 26.784 26.24C26.832 26.048 26.928 25.808 27.024 25.664L30.288 19.952C30.432 19.712 30.624 19.52 30.816 19.28L30.96 19.04C31.104 18.8 31.2 18.56 31.296 18.32C32.112 17.072 32.928 15.776 33.84 14.528C34.32 13.904 34.752 13.232 35.232 12.56C35.328 12.416 35.472 12.32 35.616 12.176C35.856 11.648 36.24 11.168 36.72 10.736C36.768 10.64 36.816 10.496 36.912 10.4C37.44 9.72799 38.016 9.056 38.592 8.384C38.592 8.336 38.688 8.336 38.736 8.288C39.168 7.664 39.648 7.136 40.272 6.704C40.272 6.65599 40.32 6.56 40.368 6.512V6.704C40.512 6.56 40.656 6.41599 40.656 6.224C41.664 5.31199 42.72 4.496 43.776 3.68C44.496 3.152 45.312 2.672 46.128 2.432C47.376 2.048 48.432 2.384 49.008 3.34399C49.536 4.16 49.776 5.12 50.016 6.08C50.304 7.376 50.448 8.768 50.496 10.16C50.544 12.128 50.352 14.144 50.064 16.208ZM42.432 2.816L42.384 2.86399C42.384 2.816 42.384 2.816 42.432 2.816ZM36 9.296L36.288 8.912C36.48 8.48 36.816 8.144 37.2 7.808C37.344 7.51999 37.536 7.27999 37.824 7.088C37.872 6.944 37.968 6.848 38.016 6.752C39.072 5.6 40.176 4.44799 41.424 3.488L41.712 3.296C41.808 3.392 41.712 3.44 41.664 3.488L40.848 4.20799C40.704 4.352 40.512 4.544 40.464 4.784C40.272 5.12 39.984 5.408 39.6 5.55199C39.504 5.84 39.264 6.08 38.976 6.272L38.544 6.752C38.448 6.896 38.304 7.04 38.112 7.088C38.16 6.992 38.208 6.944 38.256 6.848L37.872 7.136C37.824 7.184 37.824 7.27999 37.776 7.328C37.872 7.27999 37.968 7.232 38.064 7.136C38.016 7.328 37.92 7.424 37.776 7.51999V7.568C37.776 7.568 37.728 7.568 37.728 7.616C37.68 7.75999 37.536 7.904 37.344 8C37.392 7.904 37.44 7.808 37.488 7.712L37.248 7.856C37.2 7.904 37.2 8 37.2 8.048C37.248 8.048 37.248 8.048 37.296 8C37.248 8.096 37.152 8.24 37.056 8.336C37.104 8.24 37.152 8.144 37.152 8.096C37.008 8.192 36.912 8.288 36.864 8.432C36.912 8.432 36.96 8.384 37.008 8.384L36.768 8.672C36.816 8.62399 36.816 8.528 36.864 8.432C36.72 8.528 36.624 8.62399 36.576 8.816C36.624 8.768 36.672 8.768 36.72 8.768C36.624 8.86399 36.576 8.96 36.528 9.056C36.432 9.152 36.288 9.296 36.192 9.392L35.904 9.776C35.808 9.872 35.712 9.96799 35.616 10.064V10.16H35.568L35.424 10.4C35.472 10.304 35.472 10.208 35.472 10.112C35.376 10.16 35.328 10.208 35.232 10.208C35.376 9.872 35.616 9.536 36 9.296ZM12.96 54.032C12.816 53.936 12.912 53.84 12.96 53.744C13.296 52.88 13.68 52.016 14.064 51.2L16.656 45.392C17.472 43.616 18.336 41.84 19.152 40.064C20.016 38.288 20.88 36.464 21.792 34.688C22.848 32.624 23.856 30.464 25.008 28.4C26.016 26.624 26.976 24.8 28.032 23.024C29.088 21.104 30.192 19.184 31.44 17.36C32.304 16.064 33.12 14.816 33.984 13.52L35.856 10.976C37.056 9.392 38.352 7.856 39.792 6.41599C40.752 5.36 41.808 4.4 42.96 3.584C43.056 3.536 43.152 3.488 43.248 3.392C43.248 3.44 43.296 3.44 43.296 3.488C43.248 3.536 43.152 3.632 43.104 3.72799C41.136 5.264 39.408 7.088 37.776 8.96C36.528 10.448 35.376 11.984 34.224 13.52C32.592 15.776 31.152 18.128 29.664 20.48L28.272 22.928C26.784 25.472 25.44 28.016 24.096 30.608C23.376 31.952 22.656 33.296 21.984 34.688L20.064 38.576C19.056 40.784 18 42.992 16.992 45.2C15.936 47.456 14.928 49.76 13.872 52.064C13.632 52.64 13.392 53.216 13.104 53.84C13.104 53.888 13.008 53.936 12.96 54.032ZM39.456 5.6C39.504 5.6 39.552 5.55199 39.6 5.55199C39.648 5.456 39.648 5.36 39.696 5.31199L39.456 5.6ZM38.976 6.032C38.928 6.08 38.88 6.17599 38.88 6.224H38.928C38.928 6.128 38.976 6.08 38.976 6.032ZM38.544 6.512C38.496 6.56 38.448 6.65599 38.4 6.704H38.496C38.496 6.65599 38.496 6.56 38.544 6.512ZM37.728 7.616V7.568C37.728 7.568 37.776 7.568 37.776 7.51999C37.776 7.472 37.776 7.424 37.776 7.328L37.488 7.712C37.584 7.664 37.632 7.616 37.728 7.616ZM36.528 9.056C36.528 8.96 36.528 8.86399 36.576 8.768L36.288 8.912C36.288 9.008 36.24 9.10399 36.24 9.152C36.336 9.10399 36.432 9.10399 36.528 9.056ZM36.192 9.392C36.24 9.344 36.24 9.248 36.24 9.152L36 9.296C35.952 9.344 35.952 9.44 35.952 9.536C36.048 9.488 36.144 9.44 36.192 9.392ZM35.712 9.776H35.904C35.904 9.68 35.952 9.584 35.952 9.536C35.856 9.584 35.808 9.68 35.712 9.776ZM35.472 10.16C35.52 10.16 35.52 10.16 35.568 10.16V10.112C35.568 10.112 35.616 10.112 35.616 10.064C35.616 9.96799 35.616 9.872 35.664 9.824C35.568 9.92 35.52 10.064 35.472 10.16ZM34.608 10.928C34.656 10.928 34.704 10.88 34.752 10.88C34.8 10.592 34.944 10.448 35.184 10.304C35.136 10.496 34.992 10.736 34.752 10.88C34.704 10.88 34.704 10.928 34.704 10.976C34.656 11.024 34.656 11.024 34.608 11.024V10.928ZM36.192 11.6L36.144 11.648C36.192 11.648 36.192 11.6 36.192 11.6ZM32.976 13.328C33.024 13.232 33.072 13.136 33.12 13.088C33.168 12.992 33.216 12.896 33.312 12.848C33.264 12.896 33.168 12.992 33.12 13.088L32.976 13.328C32.928 13.424 32.88 13.472 32.784 13.568C32.832 13.472 32.928 13.376 32.976 13.328ZM34.944 13.328V13.28L34.896 13.328H34.944ZM32.256 14.24L32.304 14.288L32.208 14.432C32.208 14.432 32.16 14.432 32.16 14.384L32.256 14.24ZM31.296 15.728C31.392 15.68 31.44 15.584 31.488 15.488C31.536 15.44 31.584 15.344 31.632 15.248H31.68L31.632 15.296C31.584 15.344 31.536 15.44 31.488 15.536C31.44 15.584 31.392 15.68 31.296 15.776V15.728ZM30.72 16.784C30.624 16.832 30.576 16.88 30.528 16.928C30.528 16.88 30.528 16.832 30.576 16.784C30.576 16.784 30.624 16.736 30.72 16.784ZM29.952 17.84C30.048 17.744 30.096 17.648 30.144 17.6C30.096 17.648 30.048 17.744 30 17.84C29.904 17.936 29.856 17.984 29.808 18.08C29.856 17.984 29.904 17.888 29.952 17.84ZM31.248 18.8C31.248 18.848 31.2 18.896 31.2 18.896L31.296 18.8H31.248ZM31.104 19.04C31.152 18.992 31.152 18.944 31.2 18.896L31.104 19.04ZM31.104 19.04H30.96C30.96 19.088 30.96 19.184 30.912 19.28C31.008 19.184 31.056 19.136 31.104 19.04ZM28.416 20.384C28.368 20.48 28.32 20.576 28.272 20.624L28.416 20.384ZM29.232 22.208V22.16L29.184 22.208H29.232ZM26.688 23.312C26.64 23.408 26.592 23.552 26.496 23.648L26.688 23.312ZM26.16 24.272V24.32H26.112L26.16 24.272ZM25.488 28.928C25.44 28.928 25.392 28.928 25.344 28.88C25.344 29.024 25.296 29.168 25.296 29.312C25.344 29.168 25.392 29.024 25.488 28.928ZM25.056 29.648L25.104 29.6H25.056V29.648ZM44.928 35.984H44.832C44.832 36.08 44.832 36.08 44.928 35.984ZM43.392 37.568C42.24 39.248 40.992 40.928 39.6 42.464L38.16 44C37.968 44.144 37.776 44.288 37.632 44.432C37.392 44.72 37.104 44.96 36.72 45.152L36.864 44.96C37.104 44.768 37.344 44.576 37.584 44.336C37.728 44.192 37.824 44 38.016 43.856C40.128 41.696 41.952 39.392 43.632 36.944C43.776 36.704 43.872 36.512 44.112 36.368C43.872 36.8 43.68 37.184 43.392 37.568ZM19.728 36.608C19.728 36.608 19.728 36.608 19.68 36.608H19.728ZM19.296 37.424L19.392 37.328C19.344 37.376 19.344 37.376 19.344 37.424L19.296 37.472V37.424ZM35.76 44.816H35.712C35.76 44.72 35.76 44.672 35.808 44.624C37.2 43.376 38.4 42.032 39.6 40.64L40.032 40.208C40.08 40.064 40.176 39.92 40.368 39.872H40.32C40.416 39.632 40.608 39.44 40.8 39.296C40.752 39.488 40.704 39.584 40.608 39.728C40.512 39.776 40.416 39.824 40.368 39.872C40.32 39.968 40.32 40.016 40.272 40.112H40.32C40.368 40.112 40.368 40.112 40.416 40.112L40.272 40.352C40.128 40.496 40.032 40.592 39.936 40.736C39.888 40.88 39.792 41.024 39.648 41.072C39.6 41.264 39.504 41.36 39.36 41.456C39.168 41.792 38.88 42.08 38.592 42.32C38.448 42.512 38.304 42.752 38.064 42.8H37.968C37.968 42.992 37.824 43.136 37.68 43.28C37.68 43.232 37.68 43.136 37.68 43.088L37.44 43.376C37.392 43.472 37.296 43.568 37.2 43.664C37.152 43.712 37.104 43.808 37.056 43.904C37.104 43.808 37.104 43.76 37.104 43.664C36.96 43.808 36.816 43.952 36.672 44.144C36.336 44.384 36.048 44.624 35.76 44.816ZM19.92 39.968V39.92H19.872L19.92 39.968ZM39.984 40.496L40.272 40.352C40.272 40.256 40.272 40.208 40.32 40.112L40.032 40.256C40.032 40.304 39.984 40.4 39.984 40.496ZM39.792 40.736H39.936C39.984 40.64 39.984 40.544 39.984 40.496C39.936 40.544 39.888 40.64 39.792 40.736ZM39.504 41.072H39.648C39.648 41.024 39.648 40.928 39.696 40.832C39.648 40.928 39.552 41.024 39.504 41.072ZM16.224 43.904C16.224 43.952 16.224 43.952 16.176 44C16.176 43.952 16.224 43.952 16.224 43.904ZM15.84 44.768C15.792 44.96 15.792 45.152 15.6 45.392C15.6 45.104 15.744 44.912 15.84 44.768ZM14.4 47.888C14.448 47.84 14.448 47.84 14.448 47.84V47.888C14.4 47.936 14.4 47.984 14.4 47.984V47.888ZM12.288 55.76C12 56.48 11.664 57.2 11.376 57.872C10.896 59.072 10.368 60.272 9.888 61.424L8.16 65.696C7.392 67.568 6.672 69.488 5.904 71.36C5.136 73.328 4.32 75.296 3.504 77.312C3.12 78.368 2.688 79.424 2.256 80.528C2.208 80.624 2.16 80.816 1.92 80.864C1.968 80.72 2.016 80.624 2.064 80.528L4.656 74.144C5.232 72.704 5.76 71.312 6.288 69.92L8.88 63.536C9.36 62.336 9.84 61.088 10.368 59.84C10.896 58.544 11.472 57.2 12.048 55.856C12.096 55.712 12.192 55.568 12.288 55.424C12.384 55.568 12.336 55.664 12.288 55.76ZM10.032 58.112C9.984 58.112 9.984 58.16 9.984 58.16C9.984 58.208 9.984 58.208 9.936 58.208V58.16C9.984 58.112 9.984 58.112 10.032 58.112ZM9.84 58.352C9.888 58.352 9.888 58.352 9.888 58.304V58.352C9.888 58.4 9.84 58.4 9.84 58.448V58.352ZM7.872 67.616C7.92 67.616 7.92 67.616 7.92 67.616V67.568C7.92 67.568 7.92 67.616 7.872 67.616ZM42.906 55.616C42.714 55.28 42.426 54.992 42.138 54.704C41.61 54.176 41.034 53.984 40.362 54.08C39.642 54.176 38.922 54.416 38.298 54.704C37.29 55.184 36.33 55.664 35.418 56.192C34.698 56.624 34.026 56.96 33.354 57.44C32.49 58.064 31.626 58.592 30.858 59.36L30.378 59.792C30.33 59.84 30.234 59.936 30.138 59.84C30.042 59.744 30.042 59.696 30.042 59.6C30.042 59.504 30.138 59.408 30.138 59.264C30.138 58.304 30.57 57.392 30.714 56.384C30.762 56 30.81 55.616 30.666 55.232C30.57 54.944 30.378 54.752 30.138 54.608C30.042 54.56 29.946 54.56 29.898 54.656L29.754 54.944C29.514 55.424 29.37 55.952 29.226 56.48C28.89 57.632 28.458 58.736 28.074 59.888C27.642 61.232 27.306 62.528 26.874 63.824C26.778 64.112 26.826 64.352 27.066 64.592C27.162 64.688 27.306 64.784 27.354 64.928C27.498 65.312 27.786 65.408 28.122 65.552C28.362 65.648 28.554 65.6 28.746 65.552C28.938 65.504 28.89 65.312 28.938 65.216C28.938 65.216 28.986 65.216 29.034 65.168C29.034 65.12 29.082 65.072 29.13 65.024L29.226 64.928C29.466 64.352 29.85 63.92 30.282 63.488C30.378 63.296 30.522 63.104 30.666 63.008C30.714 63.056 30.714 63.152 30.714 63.248C30.858 63.056 31.002 62.912 31.098 62.768H30.858C31.098 62.432 31.338 62.096 31.722 61.904C31.722 61.856 31.77 61.856 31.77 61.808C31.818 61.76 31.866 61.712 31.866 61.664C31.914 61.664 31.962 61.616 32.01 61.568C32.058 61.424 32.154 61.376 32.298 61.328C32.346 61.28 32.394 61.232 32.394 61.184L32.49 61.088C32.49 61.136 32.49 61.136 32.538 61.184C32.538 61.136 32.538 61.136 32.49 61.088H32.538C32.586 60.848 32.778 60.704 33.018 60.608L33.114 60.464C33.21 60.32 33.354 60.176 33.546 60.128L33.642 59.984C33.738 59.936 33.786 59.888 33.882 59.888C33.882 59.84 33.93 59.792 33.978 59.744H33.93C34.026 59.648 34.122 59.552 34.266 59.504L34.362 59.408C34.458 59.264 34.602 59.216 34.698 59.12C34.794 59.024 34.938 58.976 35.034 58.88C35.082 58.736 35.226 58.688 35.322 58.64V58.688C35.322 58.736 35.37 58.736 35.37 58.784C35.37 58.736 35.418 58.736 35.466 58.688V58.64C35.61 58.592 35.754 58.496 35.898 58.448C35.898 58.448 35.898 58.448 35.898 58.4L35.994 58.304C36.186 58.16 36.474 58.064 36.522 57.872C36.57 57.728 36.714 57.728 36.81 57.68C37.002 57.584 37.194 57.488 37.338 57.392C37.674 57.152 38.01 56.912 38.394 56.72C39.114 56.384 39.834 56 40.602 55.712C40.842 55.616 41.082 55.568 41.37 55.472C41.754 55.328 42.042 55.424 42.426 55.808C42.474 55.856 42.474 55.856 42.522 55.856C42.666 55.856 42.714 56 42.81 55.904C42.906 55.808 42.954 55.712 42.906 55.616ZM39.21 54.944C39.258 54.944 39.114 55.04 38.922 55.04C38.97 54.992 39.066 54.944 39.21 54.944ZM32.058 59.264C32.154 59.072 32.298 58.976 32.49 58.928C32.538 58.784 32.634 58.688 32.778 58.688C32.826 58.496 32.97 58.448 33.066 58.4C33.162 58.304 33.306 58.208 33.402 58.16C33.546 58.016 33.738 57.872 33.93 57.776C34.074 57.632 34.266 57.488 34.506 57.44C34.746 57.2 35.082 56.96 35.466 56.816C36.234 56.336 37.002 55.856 37.866 55.52C37.914 55.424 38.01 55.424 38.106 55.424C38.25 55.232 38.442 55.184 38.682 55.184C38.73 55.088 38.826 55.088 38.874 55.088C38.922 55.088 38.922 55.136 38.922 55.184C38.826 55.184 38.778 55.184 38.682 55.184V55.28C38.538 55.376 38.394 55.52 38.154 55.424V55.52C38.058 55.568 38.01 55.568 37.914 55.568C37.914 55.616 37.914 55.616 37.914 55.664L37.722 55.808V55.76C37.578 55.856 37.53 56 37.386 56.048C37.338 56.096 37.242 56.144 37.146 56.144C37.098 56.24 37.05 56.24 36.954 56.288L36.714 56.384C36.618 56.576 36.426 56.672 36.186 56.72V56.624C36.09 56.672 36.042 56.72 35.994 56.72L36.186 56.768C36.138 56.816 36.042 56.864 35.994 56.864C35.946 56.816 35.946 56.816 35.946 56.768C35.898 56.816 35.802 56.816 35.754 56.864H35.946C35.946 56.96 35.85 56.96 35.754 57.008C35.706 57.056 35.61 57.104 35.562 57.104C35.514 57.056 35.514 57.056 35.514 57.008V57.104C35.418 57.296 35.226 57.392 34.986 57.488C34.938 57.536 34.89 57.584 34.794 57.584C34.698 57.728 34.602 57.776 34.458 57.824C34.41 57.92 34.314 57.92 34.266 57.968C34.218 57.92 34.218 57.872 34.218 57.824L34.026 57.872C34.026 57.92 34.026 57.92 33.978 57.968H34.218C34.17 58.064 34.074 58.16 33.93 58.208C33.882 58.256 33.786 58.304 33.69 58.304C33.69 58.256 33.69 58.208 33.69 58.208H33.498C33.45 58.304 33.402 58.352 33.354 58.448H33.594C33.546 58.496 33.498 58.544 33.402 58.544C33.402 58.496 33.354 58.448 33.354 58.448C33.306 58.448 33.21 58.448 33.162 58.496C33.114 58.544 33.066 58.592 33.066 58.688H33.258C33.21 58.688 33.114 58.736 33.066 58.784C33.066 58.736 33.066 58.688 33.066 58.688H32.826C32.778 58.736 32.73 58.832 32.73 58.928C32.826 58.928 32.874 58.928 32.97 58.928L32.73 59.024C32.73 58.976 32.73 58.928 32.73 58.928H32.49C32.442 58.976 32.442 59.072 32.394 59.168H32.634C32.586 59.264 32.49 59.36 32.346 59.36C32.346 59.36 32.298 59.312 32.298 59.264C32.25 59.264 32.154 59.264 32.106 59.312C32.058 59.312 32.01 59.36 32.01 59.36C32.01 59.312 32.058 59.312 32.058 59.264ZM39.834 55.712C37.674 56.432 35.85 57.872 34.122 59.216C32.442 60.512 31.05 62.048 29.754 63.632C29.562 63.872 29.418 64.16 29.13 64.352H29.082V64.304C29.082 64.112 29.226 63.968 29.322 63.872C30.81 62.384 31.962 60.704 33.594 59.36C35.13 58.064 36.858 57.056 38.682 56.048C39.21 55.76 39.69 55.568 40.266 55.424C40.17 55.568 39.978 55.664 39.834 55.712ZM35.562 56.912V56.96C35.61 56.96 35.706 56.96 35.754 57.008C35.754 56.96 35.754 56.912 35.706 56.864C35.658 56.912 35.61 56.912 35.562 56.912ZM34.746 57.488H34.986C34.986 57.44 34.986 57.392 34.986 57.344L34.746 57.488ZM34.554 57.488C34.554 57.536 34.554 57.584 34.554 57.584H34.794C34.794 57.536 34.746 57.488 34.746 57.488H34.554ZM34.218 57.824H34.458C34.458 57.776 34.458 57.728 34.458 57.68L34.218 57.824ZM33.69 58.208C33.786 58.208 33.834 58.208 33.93 58.208V58.064C33.834 58.112 33.738 58.16 33.69 58.208ZM35.034 59.024V58.88C34.986 58.928 35.034 58.928 35.034 59.024ZM35.034 59.024L35.082 59.072C35.082 59.024 35.034 59.024 35.034 59.024ZM31.962 59.408C31.962 59.456 31.914 59.552 31.914 59.6H31.674C31.722 59.504 31.818 59.408 31.962 59.408ZM34.41 59.504H34.266C34.266 59.552 34.314 59.6 34.314 59.6L34.41 59.504ZM34.218 59.744C34.218 59.696 34.266 59.696 34.314 59.648V59.6C34.266 59.648 34.218 59.696 34.17 59.744H34.218ZM31.53 59.744C31.482 59.888 31.386 59.936 31.242 59.984C31.338 59.888 31.434 59.792 31.53 59.744ZM33.978 59.888L34.17 59.744C34.122 59.744 34.026 59.744 33.978 59.744V59.888ZM33.882 59.984C33.93 59.936 33.93 59.888 33.978 59.888C33.93 59.888 33.882 59.888 33.882 59.888V59.984ZM33.642 60.08C33.642 60.128 33.642 60.128 33.642 60.128L33.882 59.984C33.786 59.984 33.738 59.984 33.642 59.984V60.08ZM33.69 60.128H33.642H33.69ZM33.546 60.224L33.642 60.128C33.594 60.128 33.594 60.128 33.546 60.128V60.224ZM33.546 60.224L33.45 60.368C33.498 60.32 33.546 60.272 33.546 60.224ZM33.354 60.464C33.402 60.416 33.45 60.416 33.45 60.368C33.402 60.368 33.402 60.416 33.354 60.464ZM33.162 60.608C33.21 60.56 33.258 60.512 33.354 60.464H33.114C33.114 60.512 33.162 60.56 33.162 60.608ZM30.81 60.512C30.762 60.608 30.666 60.656 30.522 60.704C30.618 60.608 30.714 60.512 30.81 60.512ZM33.114 60.608H33.018C33.018 60.656 33.066 60.656 33.066 60.704C33.066 60.656 33.114 60.656 33.114 60.608ZM32.874 60.992C32.874 60.944 32.922 60.896 32.922 60.848L32.826 60.992H32.874ZM32.442 61.328C32.49 61.28 32.49 61.232 32.538 61.184H32.394C32.442 61.232 32.442 61.28 32.442 61.328ZM32.346 61.424C32.346 61.376 32.394 61.376 32.442 61.328H32.298C32.298 61.376 32.346 61.376 32.346 61.424ZM32.25 61.568C32.25 61.52 32.298 61.472 32.346 61.424C32.298 61.472 32.25 61.52 32.202 61.568H32.25ZM32.01 61.664C32.106 61.616 32.154 61.616 32.202 61.568C32.154 61.568 32.058 61.568 32.01 61.568V61.664ZM31.914 61.808L32.01 61.664C31.962 61.664 31.914 61.664 31.914 61.664V61.808ZM31.818 61.904L31.914 61.808C31.866 61.808 31.818 61.808 31.818 61.808V61.904ZM31.722 62C31.77 62 31.77 61.952 31.818 61.904C31.77 61.904 31.722 61.904 31.722 61.904V62ZM31.722 62.048C31.674 62.048 31.626 62.096 31.626 62.144C31.626 62.096 31.674 62.096 31.722 62.048ZM31.434 62.384C31.434 62.336 31.482 62.336 31.53 62.288C31.53 62.24 31.578 62.192 31.626 62.144L31.482 62.288C31.482 62.288 31.434 62.336 31.386 62.384L31.29 62.528C31.29 62.528 31.242 62.576 31.194 62.624L31.338 62.528C31.338 62.48 31.386 62.432 31.434 62.384ZM31.194 62.624C31.194 62.672 31.146 62.72 31.098 62.768H31.146C31.146 62.72 31.194 62.672 31.194 62.624ZM30.714 63.248L30.618 63.344C30.666 63.296 30.714 63.296 30.714 63.248ZM30.138 63.968L30.186 63.92H30.138L30.042 64.064C30.09 64.016 30.09 63.968 30.138 63.968ZM29.946 64.208C29.946 64.16 29.994 64.112 30.042 64.064L29.898 64.208C29.898 64.256 29.85 64.256 29.85 64.304C29.898 64.304 29.898 64.256 29.946 64.208ZM29.85 64.304L29.802 64.352C29.85 64.352 29.85 64.304 29.85 64.304ZM29.802 64.352L29.706 64.448C29.706 64.496 29.658 64.496 29.658 64.544L29.754 64.448C29.802 64.4 29.802 64.4 29.802 64.352ZM29.658 64.544L29.562 64.64C29.514 64.688 29.514 64.736 29.466 64.736C29.514 64.736 29.562 64.688 29.562 64.688L29.658 64.544ZM29.418 64.832C29.418 64.832 29.466 64.784 29.466 64.736C29.466 64.784 29.418 64.784 29.418 64.832ZM29.418 64.832C29.37 64.832 29.37 64.88 29.322 64.928C29.37 64.88 29.418 64.88 29.418 64.832ZM29.322 64.928H29.226C29.226 64.976 29.226 64.976 29.226 65.024L29.322 64.928ZM29.13 65.168C29.178 65.12 29.226 65.072 29.226 65.024C29.178 65.024 29.178 65.024 29.13 65.024V65.168ZM29.034 65.168H29.13C29.082 65.12 29.034 65.12 29.034 65.168ZM57.2276 56.96C57.3236 56.768 57.5636 56.816 57.6116 56.576C57.6596 56.384 57.3716 56.336 57.2756 56.144V56.096C57.2756 55.856 56.9396 55.808 56.6996 55.808C56.5556 55.808 56.4116 55.808 56.3156 55.856C54.7796 56.24 55.9316 56.288 50.9876 56.912C50.2676 57.008 49.5956 57.008 48.8756 56.96C48.5876 56.96 48.3956 56.864 48.3476 56.528C48.2036 56 47.8676 55.616 47.5316 55.232C47.3396 54.992 47.0516 54.944 46.9076 55.376C46.8116 55.808 46.6196 56.24 46.4756 56.672C46.1396 57.728 45.7076 58.784 45.1316 59.744C44.4116 60.896 43.5476 61.904 42.4916 62.816C42.3476 62.912 42.2036 63.056 42.0596 63.104C41.8676 63.152 41.7236 63.056 41.7716 62.912C41.7716 62.624 41.8196 62.336 41.9156 62.096C42.1556 60.992 42.6356 60.032 43.0676 59.024C43.3076 58.544 43.5956 58.064 43.8836 57.632C44.2676 57.008 44.6996 56.384 45.0836 55.808C45.2276 55.568 45.2756 55.328 45.3236 55.088C45.3236 54.8 45.1316 54.656 44.9876 54.56C44.7956 54.464 44.6516 54.56 44.5556 54.656C44.4116 54.752 44.3156 54.848 44.2196 54.944C43.7876 55.472 43.3076 56 42.8756 56.576C42.1076 57.68 41.3876 58.832 40.8596 60.08C40.6676 60.56 40.4756 60.992 40.3316 61.424C40.0436 62.432 40.1876 63.344 40.9076 64.112C41.1956 64.448 41.5796 64.688 42.0116 64.736C42.7796 64.832 43.3556 64.4 43.9796 64.064C44.0276 64.016 44.0276 64.016 44.0276 63.968C44.2196 63.584 44.5556 63.344 44.8436 63.056V63.104L44.9876 62.96C44.9876 62.912 45.0356 62.864 45.0836 62.816C45.3236 62.528 45.6596 62.336 45.8036 61.952C45.8036 61.904 45.8516 61.856 45.8996 61.808C46.2356 61.472 46.4276 61.088 46.6676 60.656C46.9556 60.032 47.2436 59.408 47.4836 58.736C47.5316 58.592 47.6276 58.448 47.6756 58.304C47.7236 58.208 47.8196 58.16 47.9156 58.208L48.2036 58.352C48.7316 58.688 49.3076 58.832 49.9796 58.832C50.9876 58.88 52.0436 58.736 53.0516 58.544C54.9716 58.208 54.9716 58.016 56.8436 57.392C56.9876 57.344 57.1316 57.344 57.3236 57.296C57.4676 57.248 57.6116 57.104 57.7076 56.96H57.2276ZM42.9236 63.44C42.8756 63.44 42.8276 63.44 42.8276 63.44H42.5876C42.6356 63.296 42.7796 63.2 42.8756 63.152C42.9236 63.152 42.9716 63.104 43.0676 63.104C43.0676 63.104 43.0676 63.152 43.0196 63.2H43.2596C43.2116 63.248 43.1156 63.296 43.0676 63.296L42.9236 63.44ZM43.3076 64.064C43.2596 64.064 43.2596 64.064 43.2116 64.112C43.2116 64.064 43.2596 64.016 43.2596 64.016C43.5476 63.68 43.8836 63.44 44.2196 63.2C44.0756 63.632 43.7396 63.92 43.3076 64.064ZM81.1024 26.24C80.9104 25.856 80.5744 25.616 80.3344 25.328C80.0944 25.136 79.8544 25.136 79.6624 25.376C79.4704 25.568 79.2784 25.76 79.1344 26L76.2544 30.272C75.5824 31.28 74.9584 32.288 74.3824 33.344L72.3184 36.8C71.6464 38.096 70.9264 39.392 70.2064 40.64C70.0144 40.976 69.8224 41.264 69.6784 41.6C69.4864 41.936 69.2944 42.272 69.1504 42.56L68.0944 44.432C67.4224 45.68 66.7984 46.928 66.0784 48.128C65.2144 49.664 64.3024 51.2 63.3904 52.736C63.0544 53.312 62.6704 53.888 62.3344 54.512C62.0944 54.8 62.0464 54.8 61.6624 54.704C61.3264 54.608 60.9904 54.512 60.6544 54.512C59.5024 54.416 58.4944 54.8 57.5824 55.472C56.7184 56.096 56.0464 56.912 55.4704 57.776C55.2304 58.16 55.0864 58.544 54.8944 58.928C54.7504 59.312 54.6544 59.744 54.6544 60.176C54.6544 60.416 54.6544 60.656 54.7984 60.848C55.0864 61.472 55.5664 61.904 56.2384 62.144C56.5264 62.288 56.8624 62.288 57.1504 62.192C57.6304 62.096 58.0144 61.952 58.3984 61.712C60.0784 60.752 61.4224 59.408 62.5744 57.872V57.824C62.5744 57.824 62.6224 57.776 62.6704 57.728H62.5744C62.5744 57.68 62.6224 57.632 62.6704 57.584C62.7184 57.584 62.7184 57.536 62.7664 57.488C62.8624 57.344 62.9104 57.248 62.9584 57.104C63.0064 57.104 63.0544 57.056 63.1024 57.008C63.1024 57.056 63.1024 57.056 63.1024 57.104L63.1984 57.008C63.3424 56.96 63.4864 57.008 63.4864 57.152C63.5344 57.392 63.5344 57.584 63.5344 57.824C63.5824 58.016 63.5824 58.16 63.8224 58.256C63.9184 58.256 63.9184 58.352 63.9184 58.448C63.8704 58.592 63.8704 58.736 63.8224 58.832C63.6784 59.456 63.4864 60.032 63.3424 60.608C62.9104 62.24 62.3824 63.872 62.1424 65.6C62.0944 66.032 62.0464 66.464 62.0944 66.896C62.1424 67.376 62.3344 67.76 62.7184 68C62.8144 68.048 62.8624 68.096 62.9584 68.192C63.4384 68.528 63.9664 68.576 64.4464 68.288C64.6864 68.144 64.9264 68 65.1184 67.808C66.0304 66.944 66.8464 66.032 67.6144 65.072C68.1424 64.496 68.6224 63.824 69.1504 63.2L71.6944 60.224C71.7904 60.128 71.9344 59.984 71.9824 59.792C71.7424 59.936 71.5984 60.128 71.4544 60.32C71.3104 60.464 71.1664 60.656 70.9744 60.752C70.9264 60.752 70.9264 60.8 70.8784 60.848L70.7824 60.944C70.7824 60.896 70.8304 60.848 70.8784 60.848C70.8784 60.8 70.9264 60.752 70.9744 60.752C70.9744 60.608 71.0704 60.512 71.1184 60.416C71.8864 59.648 72.6064 58.832 73.3264 58.016C73.4224 57.968 73.5184 57.92 73.6144 57.824C73.6624 57.824 73.7104 57.776 73.7104 57.728C73.7584 57.68 73.8064 57.632 73.8544 57.632C73.8544 57.584 73.9024 57.536 73.9504 57.488C73.9984 57.44 73.9984 57.392 74.0464 57.392C74.0464 57.392 74.0464 57.44 74.0944 57.488C74.2384 57.44 74.3824 57.296 74.4784 57.2C74.7664 56.864 75.0544 56.576 75.3424 56.288C75.5824 56.048 75.5824 55.904 75.2944 55.712C74.9104 55.424 74.8144 55.424 74.5264 55.712L74.3824 55.856C73.5184 56.624 72.7504 57.536 71.8864 58.352C71.0704 59.216 70.2064 60.128 69.3904 61.04L67.1344 63.488C66.2704 64.448 65.4544 65.36 64.6384 66.32C64.4944 66.464 64.3504 66.608 64.2064 66.704C64.0624 66.8 64.0624 66.8 63.7744 66.608H63.8224C63.7744 66.272 63.8224 65.936 63.9664 65.648C64.0144 64.88 64.2064 64.16 64.4944 63.488C64.4944 63.2 64.5424 62.96 64.6384 62.672C64.8304 61.952 65.0704 61.184 65.3104 60.464C65.3584 60.32 65.3584 60.128 65.5024 59.984C65.5504 59.936 65.5984 59.84 65.5984 59.744V59.792C65.5984 59.552 65.6944 59.36 65.7904 59.168C65.7904 59.024 65.8384 58.88 65.8864 58.784C65.8864 58.544 65.9824 58.352 66.0784 58.16C66.1264 57.872 66.2224 57.584 66.3664 57.344C66.3664 57.248 66.4144 57.2 66.4624 57.104C66.4624 56.816 66.6064 56.528 66.7504 56.24C66.7504 55.856 66.9424 55.52 67.1344 55.184C67.1824 55.088 67.1824 54.944 67.2304 54.848L67.3264 54.608C67.5664 53.6 67.9984 52.64 68.3824 51.728C68.4304 51.536 68.5264 51.392 68.5744 51.248C68.6224 51.152 68.6704 51.056 68.6704 51.008C68.7664 50.672 68.8624 50.336 69.0544 50.048C69.2944 49.376 69.5344 48.752 69.8704 48.128C69.9184 47.984 69.9664 47.84 70.0624 47.744C70.1104 47.648 70.1104 47.552 70.1584 47.504C70.3024 46.928 70.5904 46.4 70.8784 45.92C70.8784 45.872 70.9264 45.776 70.9744 45.68V45.728C71.0224 45.632 71.0704 45.536 71.0704 45.44V45.488C71.1184 45.248 71.2144 45.008 71.4064 44.864C71.4064 44.768 71.4544 44.72 71.4544 44.672C71.6464 44.288 71.6944 43.856 71.9824 43.52C72.0784 43.232 72.1744 42.944 72.4144 42.704C72.4144 42.608 72.4144 42.512 72.5104 42.464C72.5584 42.224 72.6544 42.032 72.7984 41.84C72.8464 41.696 72.8944 41.6 73.0384 41.504C73.0384 41.408 73.0864 41.36 73.1344 41.264C73.1344 41.168 73.1824 41.12 73.2304 41.024H73.1824C73.4224 40.4 73.7104 39.728 74.1424 39.2C74.2864 38.672 74.5744 38.24 74.8144 37.76C75.0064 37.424 75.1024 37.088 75.3904 36.8C75.4384 36.752 75.5344 36.656 75.5824 36.56H75.6304C75.5824 36.56 75.5824 36.512 75.5824 36.464C75.5824 36.368 75.6304 36.272 75.6784 36.224L75.8224 36.08C75.8704 35.792 75.9664 35.456 76.2064 35.264C76.2544 35.024 76.3504 34.832 76.4944 34.64C76.4944 34.592 76.4944 34.544 76.5424 34.544C76.8304 33.968 77.1184 33.344 77.5504 32.816C77.6464 32.72 77.6944 32.624 77.7424 32.48H77.7904C77.7904 32.432 77.7424 32.432 77.7424 32.384C77.9824 32 78.2704 31.664 78.4144 31.232C78.4624 30.992 78.6064 30.848 78.7984 30.704V30.56C78.8464 30.416 78.8944 30.272 78.9904 30.224C79.2304 29.936 79.4224 29.696 79.5184 29.36C79.5184 29.264 79.6144 29.216 79.6624 29.12H79.6144C79.7584 28.928 79.8544 28.736 79.9504 28.544C80.1424 28.208 80.3344 27.92 80.5744 27.68C80.5744 27.632 80.5744 27.584 80.5744 27.584H80.7184V27.536C80.8624 27.296 81.0064 27.056 81.1024 26.768C81.2464 26.624 81.1984 26.432 81.1024 26.24ZM75.8224 36.224V36.08C75.7744 36.128 75.7744 36.128 75.7744 36.176C75.7744 36.176 75.8224 36.176 75.8224 36.224ZM75.6784 36.224H75.8224C75.7744 36.176 75.7264 36.176 75.6784 36.224ZM72.5104 41.648C72.5104 41.648 72.4624 41.648 72.4624 41.696C72.4624 41.648 72.5104 41.6 72.5104 41.6V41.648ZM72.1264 42.512C72.0784 42.512 72.0784 42.512 72.0304 42.56C72.0304 42.512 72.0784 42.512 72.0784 42.464C72.0784 42.416 72.1264 42.416 72.1264 42.464V42.512ZM71.6464 43.424C71.6464 43.328 71.6944 43.28 71.7424 43.184C71.7424 43.28 71.6944 43.376 71.6464 43.424ZM71.1184 44.48C71.1664 44.336 71.2144 44.24 71.3584 44.192C71.3104 44.288 71.2624 44.432 71.1184 44.48ZM71.0224 44.768C70.9744 44.96 70.8784 45.2 70.7344 45.296C70.7824 45.104 70.8784 44.912 71.0224 44.768C71.0224 44.672 71.0704 44.576 71.1184 44.528C71.1184 44.624 71.0704 44.672 71.0224 44.768ZM70.1104 46.64C70.1104 46.592 70.1104 46.592 70.1584 46.544V46.496C70.2064 46.544 70.2064 46.544 70.2064 46.592C70.1584 46.592 70.1584 46.64 70.1104 46.64ZM70.0144 46.832L70.1104 46.688C70.1104 46.736 70.0624 46.784 70.0144 46.832ZM69.9184 47.12C69.9664 47.024 69.9664 46.976 70.0144 46.928C69.9664 46.976 69.9664 47.072 69.9184 47.12ZM69.6304 47.84C69.5824 47.6 69.6784 47.504 69.8224 47.408C69.8224 47.552 69.7744 47.696 69.6304 47.84ZM68.9104 49.376C68.9584 49.28 69.0064 49.136 69.1024 48.992C69.1504 49.232 69.0544 49.328 68.9104 49.376ZM68.7184 49.904C68.7184 49.808 68.7664 49.76 68.8144 49.712C68.8144 49.76 68.7664 49.856 68.7184 49.904ZM68.3824 50.768C68.3824 50.816 68.3344 50.816 68.3344 50.816V50.768C68.3824 50.72 68.3824 50.672 68.4304 50.72C68.4304 50.768 68.3824 50.768 68.3824 50.768ZM68.8144 51.008C68.7664 51.008 68.7664 51.008 68.7184 51.008H68.6704C68.7184 51.056 68.7184 51.152 68.7184 51.2C68.7664 51.152 68.7664 51.056 68.8144 51.008ZM65.5984 52.4C65.5984 52.304 65.6464 52.16 65.7904 52.112C65.7424 52.208 65.6944 52.352 65.5984 52.4ZM67.5664 52.88C67.5664 52.832 67.6144 52.784 67.6144 52.688C67.6144 52.784 67.6144 52.832 67.5664 52.88ZM63.5824 55.712C63.5824 55.712 63.5344 55.76 63.4864 55.712V55.616C63.6304 55.376 63.7264 55.136 63.9664 54.944C64.0144 54.848 64.0144 54.752 64.0624 54.704C64.4464 54.08 64.7824 53.456 65.2144 52.928C65.2144 53.072 65.2144 53.168 65.1664 53.264C64.7824 53.84 64.4944 54.464 64.0144 54.992C63.9664 55.28 63.8224 55.52 63.5824 55.712ZM67.2784 53.696C67.2304 53.456 67.3264 53.312 67.4224 53.168C67.4224 53.36 67.4224 53.504 67.2784 53.696ZM65.2144 53.984C65.2624 54.08 65.3104 54.128 65.3104 54.224C65.3104 54.272 65.3104 54.368 65.2624 54.416C64.9264 55.424 64.6384 56.384 64.3024 57.344C64.2544 57.44 64.2064 57.488 64.2064 57.536C64.0624 57.488 64.0624 57.392 64.0624 57.344C64.0144 57.104 64.0144 56.912 63.9184 56.672C63.6784 56.192 63.7264 55.808 64.1104 55.472C64.3024 55.088 64.4464 54.704 64.7824 54.464C64.9264 54.032 65.1664 53.6 65.5024 53.312L65.2144 53.984ZM66.7504 55.04C66.7984 54.848 66.7984 54.656 66.9424 54.512C66.9424 54.704 66.8464 54.896 66.7504 55.04ZM67.3744 54.848C67.3264 54.752 67.3264 54.656 67.3264 54.608C67.3264 54.704 67.3264 54.752 67.3264 54.848H67.3744ZM57.4864 60.272C57.1984 60.512 56.8624 60.704 56.4784 60.848C56.2864 60.944 56.1424 60.848 56.1424 60.608C56.1904 60.032 56.2864 59.456 56.5264 58.976C56.8144 58.448 57.1024 57.92 57.5344 57.488C57.6784 57.344 57.8224 57.2 57.8224 57.008C57.5824 57.104 57.4864 57.296 57.2944 57.44C57.1984 57.584 57.1024 57.776 56.9104 57.872C56.8624 58.064 56.7664 58.208 56.6224 58.304C56.6224 58.112 56.7184 57.92 56.9104 57.824C57.1984 57.152 57.6784 56.672 58.3024 56.288C58.3984 56.144 58.4944 56.048 58.6864 56.048C58.6384 56.192 58.4944 56.24 58.3504 56.336C58.2544 56.528 58.0144 56.624 57.9184 56.912C58.1584 56.864 58.3024 56.72 58.4464 56.576C58.8784 56.24 59.3104 55.952 59.7904 55.712C60.2224 55.52 60.6544 55.376 61.1824 55.376H61.4224C61.5184 55.424 61.5664 55.52 61.5184 55.616C61.4224 55.808 61.3264 56.048 61.1824 56.192C60.8464 56.624 60.5104 57.056 60.2224 57.488C59.4064 58.544 58.4944 59.456 57.4864 60.272ZM66.6544 55.568H66.6064C66.5584 55.568 66.5584 55.568 66.5584 55.52C66.6064 55.472 66.6064 55.424 66.6544 55.376V55.568ZM64.1104 55.472H64.2544C64.2064 55.424 64.1584 55.424 64.1104 55.472ZM58.0144 55.712C58.0144 55.808 57.9184 55.808 57.8224 55.808C57.8704 55.712 57.9664 55.712 58.0144 55.712ZM62.3824 55.808C62.3344 55.856 62.2864 55.904 62.2864 55.904H62.1424C62.1904 55.712 62.2384 55.712 62.3824 55.808ZM57.6784 55.904C57.7264 55.856 57.7744 55.856 57.7744 55.808C57.7744 55.856 57.7744 55.904 57.7264 55.952C57.6304 56.288 57.3424 56.528 57.0544 56.768C57.0064 56.816 57.0064 56.816 56.9584 56.864V56.768C56.9584 56.768 57.0064 56.768 57.0544 56.768L56.9104 56.624C57.1024 56.288 57.3424 56.048 57.6784 55.904ZM74.6704 55.904C74.4784 56.288 74.4784 56.288 74.1424 56.48C74.2864 56.288 74.4304 56.096 74.6704 55.904ZM60.0304 59.024C60.0304 59.024 60.0304 58.976 60.0304 58.928L59.8864 59.072C59.7424 59.12 59.6464 59.264 59.4544 59.264C59.7424 58.832 60.1264 58.448 60.5104 58.064C60.7024 57.728 60.8944 57.44 61.1344 57.2L61.2784 57.104C61.3264 56.912 61.4224 56.768 61.6144 56.624C61.6144 56.576 61.6624 56.528 61.7104 56.528C61.7584 56.336 61.8544 56.192 62.0464 56.048C62.0464 56.144 62.0464 56.192 62.0464 56.288H62.1904C62.1424 56.336 62.1424 56.384 62.0944 56.384C62.0944 56.336 62.0944 56.336 62.0464 56.288C62.0464 56.336 61.9984 56.384 61.9504 56.432H62.0464C62.0464 56.528 61.9504 56.672 61.8544 56.768C61.8544 56.672 61.8544 56.576 61.8544 56.528H61.7104C61.7104 56.576 61.6624 56.624 61.6624 56.672C61.6624 56.72 61.6624 56.816 61.6144 56.864C61.6144 56.912 61.5664 56.96 61.5184 57.008H61.6144C61.6144 57.056 61.5664 57.056 61.5184 57.104V57.008C61.4704 57.056 61.4704 57.104 61.4224 57.104C61.3744 57.152 61.3744 57.152 61.3264 57.152V57.248C61.3264 57.2 61.3744 57.152 61.4224 57.152H61.5184C61.5184 57.296 61.4704 57.392 61.3264 57.488C61.2784 57.536 61.2784 57.584 61.2304 57.584V57.488C61.2304 57.488 61.2784 57.488 61.3264 57.488V57.248C61.2784 57.248 61.2784 57.296 61.2304 57.296C61.2304 57.344 61.2304 57.44 61.1824 57.488C61.1824 57.536 61.1344 57.584 61.0864 57.632H61.2304C61.1824 57.68 61.1824 57.728 61.1344 57.728C61.0864 57.68 61.0864 57.632 61.0864 57.632C61.0384 57.632 61.0384 57.68 60.9904 57.728H61.0864C61.0864 57.776 61.0384 57.824 60.9904 57.824V57.728C60.9424 57.776 60.9424 57.824 60.8944 57.824H60.9424C60.9424 57.824 60.9904 57.824 60.9904 57.872C60.9424 58.112 60.7504 58.304 60.5584 58.448C60.5584 58.496 60.5104 58.496 60.4624 58.544C60.4624 58.496 60.4624 58.496 60.4624 58.448L60.3664 58.544C60.3184 58.592 60.2704 58.64 60.2224 58.688H60.3184C60.3184 58.736 60.2704 58.784 60.2224 58.784C60.2224 58.784 60.2224 58.736 60.2224 58.688L60.1264 58.832C60.1744 58.832 60.1744 58.832 60.2224 58.832L60.1264 58.928C60.0784 58.976 60.0784 59.024 60.0304 59.024ZM63.0544 56.528C63.0544 56.576 63.0544 56.576 63.0064 56.624C62.3824 57.536 61.7584 58.4 60.9904 59.168C60.8944 59.312 60.7504 59.456 60.5584 59.552C60.5584 59.6 60.5104 59.648 60.4624 59.696C60.4144 59.792 60.3184 59.84 60.2224 59.888C60.2224 59.744 60.3184 59.696 60.4144 59.6C60.4624 59.6 60.4624 59.552 60.5104 59.504C60.6064 59.408 60.6544 59.264 60.7504 59.168C61.4704 58.352 62.1424 57.488 62.7664 56.624C62.8144 56.528 62.8624 56.48 62.9584 56.384H63.0544C63.1024 56.432 63.1024 56.48 63.0544 56.528ZM66.1744 56.72C66.2224 56.624 66.2224 56.528 66.2704 56.432C66.2704 56.528 66.2704 56.624 66.1744 56.72ZM56.8144 56.768L56.9104 56.672C56.9104 56.672 56.9104 56.72 56.9104 56.768H56.8144C56.8144 56.816 56.8144 56.864 56.8144 56.864H56.7184C56.7664 56.864 56.7664 56.816 56.8144 56.768ZM56.7184 56.912C56.7184 56.912 56.7184 56.96 56.7184 57.008H56.8144C56.8144 57.056 56.7664 57.104 56.7184 57.104C56.7184 57.056 56.7184 57.056 56.7184 57.008H56.6224C56.6224 56.96 56.6704 56.912 56.7184 56.912ZM56.9584 56.912C56.9104 56.912 56.8624 56.96 56.8624 57.008C56.8624 56.96 56.8144 56.912 56.8144 56.912H56.9584ZM61.7584 56.912C61.7104 56.912 61.6624 56.96 61.6624 57.008C61.6624 56.96 61.6624 56.912 61.6624 56.912H61.7584ZM56.5744 57.008C56.5744 57.056 56.6224 57.104 56.6224 57.104H56.4784C56.5264 57.104 56.5744 57.056 56.5744 57.008ZM62.9584 57.104V57.152H63.1024V57.104H63.0544H62.9584ZM56.4784 57.152C56.4784 57.152 56.4784 57.2 56.4784 57.248H56.3824C56.4304 57.2 56.4304 57.152 56.4784 57.152ZM56.7184 57.152C56.6704 57.152 56.6704 57.2 56.6224 57.248C56.6224 57.2 56.6224 57.152 56.6224 57.152H56.7184ZM73.1824 57.488C73.0384 57.728 72.8464 57.968 72.7024 58.16C72.5104 58.352 72.3664 58.496 72.1264 58.544C72.4624 58.16 72.7504 57.776 73.1824 57.488ZM74.0464 57.488C73.9984 57.488 73.9984 57.488 73.9504 57.488V57.584C73.9984 57.584 74.0464 57.536 74.0464 57.488ZM62.6704 57.632V57.728C62.7184 57.68 62.7664 57.632 62.7664 57.632H62.6704ZM73.9504 57.632C73.9024 57.632 73.8544 57.632 73.8544 57.632V57.728C73.9024 57.68 73.9024 57.632 73.9504 57.632ZM73.7584 57.824C73.7584 57.824 73.8064 57.776 73.8544 57.728H73.7104C73.7584 57.776 73.7584 57.824 73.7584 57.824ZM73.7104 57.872H73.7584V57.824C73.7584 57.824 73.7584 57.824 73.7104 57.824V57.872ZM65.5984 58.4C65.6464 58.208 65.6464 58.016 65.7904 57.872C65.7904 58.064 65.7424 58.256 65.5984 58.4ZM73.1824 58.448C73.4704 58.304 73.6144 58.112 73.7104 57.872C73.7104 57.872 73.6624 57.872 73.6144 57.872L73.1824 58.448ZM56.5744 58.352C56.5744 58.496 56.5264 58.592 56.3824 58.64C56.4304 58.544 56.4784 58.4 56.5744 58.352ZM73.0384 58.592H73.0864C73.1344 58.544 73.1344 58.496 73.1824 58.448L73.0864 58.544C73.0864 58.592 73.0864 58.592 73.0384 58.592ZM60.4624 58.592C60.4144 58.592 60.3664 58.64 60.3664 58.688C60.3664 58.64 60.3664 58.592 60.3664 58.592H60.4624ZM72.1264 59.648C72.5584 59.408 72.8464 59.024 73.0384 58.592C72.7024 58.88 72.3664 59.216 72.1264 59.648ZM60.0304 58.928C60.0304 58.928 60.0784 58.928 60.1264 58.928V58.832C60.0784 58.832 60.0304 58.88 60.0304 58.928ZM71.4544 59.312C71.2624 59.792 70.9264 60.128 70.4944 60.368C70.7344 59.936 71.0704 59.6 71.4544 59.312ZM71.9824 59.744V59.792C72.0304 59.744 72.0784 59.696 72.0784 59.648C72.0304 59.696 72.0304 59.744 71.9824 59.744ZM59.7904 60.224C59.8864 60.128 59.9824 60.08 60.0784 60.032C59.9824 60.128 59.9344 60.224 59.7904 60.224ZM70.2544 60.608C70.1104 60.992 69.8704 61.28 69.4864 61.424C69.6784 61.088 69.9184 60.848 70.2544 60.608ZM64.8784 60.848V60.8C64.9264 60.8 64.9264 60.8 64.8784 60.848ZM68.8624 63.104C69.2464 62.576 69.6304 62.096 70.1104 61.664C70.1104 61.616 70.1584 61.616 70.2064 61.568L70.3024 61.424C70.3504 61.376 70.3984 61.376 70.3984 61.328L70.5424 61.184C70.5424 61.136 70.5904 61.088 70.6384 61.088C70.6864 61.04 70.6864 60.992 70.7344 60.992C70.7344 61.04 70.6864 61.04 70.6384 61.088C70.6384 61.136 70.5904 61.184 70.5424 61.232C70.5424 61.28 70.4944 61.328 70.4464 61.328C70.4464 61.376 70.3984 61.424 70.3504 61.472L70.2544 61.616C70.2064 61.664 70.1584 61.664 70.1584 61.712C69.7744 62.288 69.3424 62.816 68.8144 63.248C68.8144 63.2 68.8144 63.152 68.8624 63.104ZM69.3424 61.616C69.3424 61.616 69.3424 61.664 69.2944 61.664L69.3424 61.616ZM67.4704 63.68C67.8544 63.2 68.2384 62.72 68.7184 62.336C68.6704 62.384 68.6704 62.48 68.6224 62.576C68.1904 63.056 67.8064 63.584 67.3264 63.968C67.3744 63.872 67.3744 63.776 67.4704 63.68ZM64.2064 62.96C64.2544 62.768 64.2544 62.576 64.3984 62.432C64.4464 62.672 64.3504 62.816 64.2064 62.96ZM68.7184 63.344C68.7184 63.296 68.7664 63.296 68.7664 63.248C68.7664 63.296 68.7184 63.344 68.7184 63.344ZM68.5744 63.488C68.5744 63.584 68.5264 63.584 68.4784 63.632C68.2384 64.112 67.9024 64.448 67.5184 64.784C67.7104 64.4 68.0944 63.92 68.4784 63.632L68.5744 63.488C68.6224 63.44 68.6224 63.392 68.6704 63.392C68.6704 63.44 68.6224 63.488 68.5744 63.488ZM90.0071 57.584C89.9111 57.296 89.4791 57.008 89.0951 57.056L88.3271 57.344C87.6551 57.68 86.9351 58.064 86.2151 58.4C85.4471 58.784 84.7271 59.168 84.0071 59.552C83.8151 59.696 83.5751 59.84 83.3351 59.888C82.5671 60.368 81.7031 60.8 80.8871 61.232C80.5991 61.424 80.2631 61.568 79.9751 61.712C79.8311 61.712 79.6871 61.808 79.5911 61.712C79.4951 61.664 79.5431 61.52 79.5431 61.424C79.5911 61.328 79.6391 61.232 79.6391 61.088C79.7831 60.512 80.1191 60.032 80.3591 59.456C80.3591 59.312 80.4071 59.216 80.4551 59.12C80.5511 58.88 80.5031 58.64 80.3591 58.4C80.1671 58.016 79.7831 57.728 79.4471 57.488C79.2071 57.296 78.9671 57.248 78.6791 57.392L78.3911 57.584C77.6711 58.016 76.9991 58.496 76.2791 58.976C75.3191 59.696 74.3111 60.416 73.3511 61.088C73.0631 61.232 72.8231 61.376 72.5831 61.424C72.2951 61.568 72.1991 61.472 72.2471 61.136L72.3431 60.8C72.3911 60.512 72.4871 60.224 72.5351 59.888C72.5831 59.648 72.6791 59.408 72.8711 59.168C73.0151 59.024 73.0631 58.832 73.1111 58.592C73.2551 58.304 73.3991 58.016 73.5911 57.728C73.8791 57.2 74.2151 56.672 74.4071 56.096C74.5031 55.856 74.5511 55.664 74.5031 55.376C74.4551 55.184 74.2631 55.04 74.0711 55.04C73.9751 54.992 73.8791 55.088 73.7831 55.184L73.6391 55.376C72.7271 56.384 71.9591 57.584 71.2871 58.784C70.9991 59.216 70.7591 59.744 70.6151 60.272C70.4711 60.944 70.5191 61.472 70.9511 62C71.0951 62.096 71.1911 62.288 71.3351 62.384C71.7191 62.864 72.2951 63.008 72.9191 63.008C73.1591 63.008 73.3991 62.96 73.6391 62.912C74.2631 62.72 74.8391 62.384 75.3671 62.048C75.9911 61.712 76.5671 61.232 77.1431 60.8C77.2391 60.704 77.3831 60.608 77.4791 60.56C77.5751 60.464 77.7191 60.56 77.7191 60.704V60.944C77.5271 61.568 77.7671 62.048 78.1991 62.528L78.6791 63.008C78.9671 63.296 79.3031 63.392 79.6871 63.392C80.3111 63.44 80.8871 63.344 81.4151 63.008C82.5671 62.384 83.6231 61.712 84.7271 60.944C85.4471 60.464 86.1671 59.888 86.9351 59.504C87.7511 59.024 88.5671 58.544 89.4311 58.112C89.5751 58.016 89.7671 57.968 89.9111 57.92C90.0551 57.872 90.0551 57.728 90.0071 57.584ZM78.6311 58.16C78.5831 58.208 78.5351 58.208 78.4871 58.208L78.3431 58.4C78.2951 58.4 78.2471 58.448 78.1511 58.448C78.1031 58.496 78.1031 58.544 78.0551 58.592H78.1991C78.1511 58.64 78.1031 58.688 78.0551 58.688V58.592C78.0071 58.64 77.9591 58.688 77.9111 58.688C77.8631 58.736 77.7671 58.784 77.7191 58.832H77.9111C77.9111 58.784 77.9111 58.736 77.9111 58.736H78.0551C78.0071 58.736 77.9591 58.784 77.9111 58.832C77.8151 58.88 77.7671 58.88 77.7191 58.88V58.832C77.6711 58.88 77.6711 58.88 77.6231 58.88C77.5271 58.928 77.4791 58.976 77.4311 59.024H77.6231C77.6231 58.976 77.6231 58.928 77.6231 58.928H77.7191C77.6711 58.928 77.6711 58.976 77.6231 59.024C77.5271 59.12 77.4311 59.168 77.2871 59.216V59.12C77.2391 59.168 77.1431 59.168 77.1431 59.168C77.0951 59.216 77.0471 59.264 76.9991 59.36C77.0471 59.36 77.1431 59.36 77.1431 59.36L76.9991 59.456C76.9511 59.504 76.9031 59.504 76.8551 59.504V59.456C76.8551 59.504 76.7591 59.504 76.6631 59.552H76.8551C76.8071 59.648 76.7111 59.744 76.5671 59.744V59.648C76.5191 59.648 76.4711 59.696 76.4231 59.696C76.3271 59.744 76.2791 59.84 76.2311 59.84H76.4711C76.3751 59.888 76.3271 59.936 76.2311 59.936V59.84C76.1831 59.888 76.1831 59.936 76.1831 59.936C76.0391 59.984 75.8951 60.08 75.8471 60.176C75.7511 60.176 75.6071 60.224 75.5591 60.272C75.4631 60.416 75.3671 60.464 75.2231 60.464C75.2711 60.368 75.4151 60.32 75.5111 60.272C75.7511 59.984 76.0391 59.84 76.3271 59.6C76.5191 59.408 76.8071 59.216 77.0951 59.12C77.3831 58.832 77.7671 58.544 78.1031 58.352C78.1991 58.256 78.2951 58.208 78.4391 58.16L78.5351 58.064C78.5351 58.064 78.5831 58.112 78.6311 58.112V58.16ZM88.2791 58.496C88.2791 58.496 88.2311 58.496 88.1831 58.544C88.2311 58.496 88.2311 58.448 88.2311 58.448C88.2791 58.4 88.3271 58.4 88.3271 58.448L88.2791 58.496ZM86.5511 58.592C86.5511 58.64 86.4551 58.688 86.4071 58.688C86.4551 58.688 86.5031 58.64 86.5511 58.592ZM87.7511 58.688C87.7991 58.64 87.8951 58.64 87.9911 58.592C87.8951 58.64 87.8471 58.688 87.7511 58.688ZM86.4071 58.736C86.3591 58.784 86.3111 58.784 86.2151 58.832C86.2631 58.784 86.3591 58.736 86.4071 58.736ZM87.5591 58.832C87.6071 58.736 87.6551 58.736 87.7511 58.736C87.6551 58.784 87.6551 58.832 87.5591 58.832ZM87.0311 59.12C87.1271 58.928 87.3671 58.88 87.5111 58.832C87.4151 58.976 87.2231 59.072 87.0311 59.12ZM86.0711 58.928C86.0231 58.976 85.9751 58.976 85.8791 59.024C85.9271 58.976 86.0231 58.928 86.0711 58.928ZM85.8311 59.024L85.7351 59.12C85.7351 59.072 85.7831 59.072 85.8311 59.024ZM86.0711 59.648C85.8791 59.936 85.5431 60.08 85.2551 60.176C85.1591 60.32 85.1111 60.368 84.9671 60.416C84.8711 60.512 84.7751 60.56 84.6311 60.608C84.6791 60.464 84.8231 60.416 84.9191 60.368C85.0151 60.224 85.1111 60.176 85.2071 60.128C85.4471 59.936 85.7351 59.744 86.0711 59.648C86.3111 59.456 86.5031 59.264 86.7911 59.216C86.5991 59.504 86.4071 59.6 86.0711 59.648ZM76.9991 59.456V59.36C76.9511 59.36 76.9031 59.408 76.8551 59.456H76.9991ZM77.8631 59.792C77.8151 59.84 77.7671 59.84 77.7671 59.888C77.1431 60.368 76.5191 60.8 75.9431 61.232C75.8471 61.328 75.7031 61.424 75.5591 61.424C75.6071 61.328 75.7031 61.184 75.8471 61.136C76.4231 60.656 77.0471 60.176 77.6711 59.792L77.8151 59.648C77.8151 59.648 77.9111 59.648 77.9111 59.696C77.9111 59.696 77.9111 59.744 77.8631 59.792ZM84.4871 59.792C84.4391 59.888 84.3431 59.936 84.1991 59.984C84.2471 59.84 84.3911 59.84 84.4871 59.792ZM76.1831 60.08C76.1831 60.032 76.1831 59.984 76.1831 59.984H76.2311C76.1831 59.984 76.1831 60.032 76.1831 60.08ZM83.7671 60.176C83.7191 60.272 83.5751 60.32 83.5271 60.416C83.5751 60.272 83.6711 60.224 83.7671 60.176ZM74.8391 60.8C74.8871 60.704 74.9831 60.656 75.0791 60.608C75.0311 60.704 74.9351 60.8 74.8391 60.8ZM83.5271 61.328C83.8631 60.992 84.2471 60.704 84.5831 60.608C84.2951 60.944 83.9111 61.136 83.5271 61.328ZM83.1911 61.52C83.2391 61.424 83.3351 61.376 83.4791 61.328C83.3831 61.424 83.2871 61.472 83.1911 61.52ZM104.212 57.536C104.26 57.44 104.308 57.344 104.356 57.248L103.924 57.008C103.684 56.816 103.396 56.816 103.156 56.912L102.772 57.056C102.244 57.344 101.716 57.632 101.188 57.92L97.1561 60.272C97.0121 60.368 96.8681 60.464 96.7241 60.56L94.5161 61.904C93.8441 62.288 93.1721 62.672 92.5481 63.056C91.6361 63.68 90.7241 64.112 89.8121 64.64C89.4761 64.784 89.1401 64.928 88.7561 65.12C88.6601 65.168 88.5161 65.168 88.3721 65.216C88.2281 65.024 88.2281 64.832 88.2281 64.64C88.1801 64.064 88.2281 63.488 88.3721 62.912C88.4201 62.768 88.4201 62.624 88.3721 62.48C88.4681 62.384 88.5641 62.288 88.5161 62.144C88.4201 61.952 88.5161 61.808 88.6121 61.664L88.7561 61.328C88.8041 61.232 88.8521 61.136 88.8521 60.992V61.04L88.9961 60.704C89.0441 60.608 89.0441 60.512 89.0921 60.416L89.2361 60.176H89.1881C89.2841 60.032 89.3801 59.84 89.4281 59.696C89.6201 59.168 89.9081 58.688 90.2441 58.304C90.2921 58.256 90.3401 58.16 90.3881 58.112L90.4841 57.872C90.5321 57.824 90.5321 57.776 90.5801 57.68C91.1081 56.96 91.6841 56.24 92.3561 55.616C92.4041 55.568 92.5001 55.52 92.5481 55.472L93.3641 55.04C93.5081 54.944 93.6521 54.848 93.7961 54.896C93.8441 54.992 93.8921 55.04 93.8921 55.136C93.9401 55.424 93.9881 55.76 93.9881 56.048C93.9401 56.624 93.8921 57.2 93.8921 57.728C93.8441 57.872 93.8441 57.968 93.8441 58.112C93.8921 58.304 93.9881 58.4 94.1801 58.496C94.3721 58.544 94.5641 58.448 94.6601 58.256L94.9481 57.824C95.1401 57.2 95.2841 56.528 95.2361 55.904C95.2361 55.376 95.0921 54.896 94.7561 54.512C94.4681 54.224 94.1801 53.936 93.8441 53.696C93.3641 53.408 92.8361 53.36 92.3081 53.6L91.6841 53.888C91.2041 54.224 90.8201 54.608 90.4361 54.992C89.6201 55.76 89.0921 56.72 88.4201 57.584C88.0841 58.352 87.5561 59.072 87.2201 59.888C86.7881 61.04 86.4041 62.192 86.3081 63.44C86.2601 64.016 86.2601 64.592 86.5481 65.12C86.8841 65.744 87.4121 66.128 87.9881 66.416C88.1321 66.512 88.3241 66.56 88.4681 66.56C88.8041 66.56 89.0921 66.56 89.4281 66.512C89.9561 66.416 90.4841 66.224 90.9641 66.032C92.2121 65.504 93.3161 64.736 94.4681 64.016C95.1881 63.584 95.8601 63.056 96.6281 62.624C97.8281 61.856 99.0761 61.088 100.276 60.32L103.588 58.256C103.828 58.112 104.02 58.016 104.212 57.872C104.26 57.872 104.308 57.776 104.356 57.68C104.356 57.632 104.26 57.584 104.212 57.536ZM90.8681 55.28L91.1561 55.04C91.5401 54.608 91.5881 54.56 91.9721 54.416L91.8281 54.656C91.8761 54.8 91.8761 54.8 91.6841 54.848C91.6361 54.944 91.5401 54.992 91.4921 55.088H91.2041C91.2041 55.184 91.1561 55.28 91.1561 55.376C91.0121 55.472 90.8201 55.52 90.5801 55.664C90.7241 55.52 90.7721 55.376 90.8681 55.28ZM91.9241 55.52C92.0681 55.328 92.2601 55.184 92.5001 55.04C92.5961 54.944 92.7401 54.896 92.8361 54.848C92.8841 54.848 92.8841 54.8 92.9321 54.8C92.9321 54.752 92.9801 54.8 92.9801 54.8C92.9801 54.8 92.9801 54.848 92.9321 54.848H92.8361C92.7401 54.944 92.6921 55.088 92.5481 55.184C91.7321 55.856 91.0601 56.624 90.4361 57.488C90.3401 57.632 90.2441 57.728 90.1001 57.824C90.1481 57.728 90.1481 57.632 90.2441 57.536C90.7241 56.816 91.2521 56.096 91.9241 55.52ZM90.0041 57.968C90.0041 57.92 90.0041 57.92 90.0521 57.92V57.968C90.0521 57.968 90.0041 57.968 90.0041 58.016V57.968ZM90.4841 58.112C90.4361 58.112 90.3881 58.112 90.3881 58.112V58.304C90.3881 58.256 90.4361 58.16 90.4841 58.112ZM90.2441 58.496L90.3881 58.304C90.3401 58.304 90.2921 58.304 90.2441 58.304V58.496ZM89.6201 58.64L89.4761 58.832C89.5241 58.736 89.5721 58.688 89.6201 58.64ZM100.996 59.456L101.284 59.264C101.236 59.36 101.092 59.408 100.996 59.456ZM89.7161 59.504V59.456C89.7161 59.456 89.7161 59.504 89.6681 59.504H89.7161ZM89.3321 60.224C89.2841 60.224 89.2361 60.224 89.2361 60.176C89.2361 60.272 89.2361 60.272 89.2361 60.368L89.3321 60.224ZM99.7001 60.272C99.7001 60.272 99.7001 60.272 99.6521 60.272L99.7001 60.224C99.7481 60.224 99.7481 60.224 99.7961 60.176L99.7001 60.272ZM98.9321 60.8C98.8841 60.8 98.8841 60.8 98.8361 60.848C98.8841 60.8 98.8841 60.8 98.8841 60.752C98.9321 60.752 98.9321 60.752 98.9321 60.752V60.8ZM97.9241 61.328C98.0681 61.28 98.1641 61.232 98.2601 61.136C98.2121 61.28 98.0681 61.328 97.9241 61.328ZM96.6761 62.192C96.7721 62.048 96.8681 61.904 97.1081 61.856C97.0121 62.096 96.8201 62.096 96.6761 62.192ZM156.334 28.496C156.334 28.4 156.286 28.352 156.238 28.256C155.806 27.728 155.23 27.296 154.558 27.104C153.55 26.816 152.494 26.672 151.486 26.576C149.854 26.48 148.27 26.384 146.686 26.336C143.038 26.288 139.438 26.288 135.79 26.288C132.622 26.336 129.454 26.336 126.238 26.432C124.99 26.432 123.79 26.48 122.542 26.528C121.534 26.528 120.526 26.528 119.518 26.576C119.374 26.576 119.182 26.576 119.038 26.432C118.99 26.432 118.99 26.384 118.942 26.384C118.99 26.336 118.99 26.24 119.038 26.192V26.144C119.086 26.144 119.134 26.096 119.182 26.048C119.182 25.952 119.182 25.856 119.278 25.808L119.422 25.568C119.518 25.28 119.614 24.944 119.902 24.704C119.902 24.464 120.046 24.272 120.238 24.128C120.286 24.032 120.334 23.936 120.382 23.888C120.478 23.6 120.622 23.312 120.814 23.072C121.006 22.736 121.198 22.4 121.438 22.064C121.63 21.632 121.87 21.248 122.158 20.864C122.302 20.624 122.398 20.336 122.638 20.144C122.734 19.952 122.83 19.712 123.022 19.568C123.118 19.328 123.31 19.136 123.502 18.944V18.848C123.598 18.656 123.694 18.416 123.79 18.272C124.51 17.12 125.278 16.016 125.998 14.912C126.814 13.712 127.63 12.608 128.398 11.456C128.59 11.216 128.734 10.976 128.878 10.736C128.926 10.592 128.974 10.496 128.974 10.352C128.974 10.112 128.878 10.016 128.686 9.92C128.542 9.824 128.446 9.92 128.35 10.016C128.254 10.064 128.206 10.112 128.158 10.16C127.678 10.688 127.198 11.216 126.766 11.744C125.95 12.704 125.134 13.664 124.414 14.672C123.694 15.632 123.022 16.544 122.35 17.504C121.918 18.128 121.534 18.8 121.054 19.424C120.526 20.192 120.046 21.008 119.566 21.776C119.086 22.496 118.606 23.264 118.174 24.032C117.838 24.608 117.454 25.136 117.166 25.712C117.07 25.952 116.878 26.192 116.734 26.384C116.638 26.576 116.446 26.672 116.206 26.672C115.294 26.72 114.334 26.768 113.422 26.816H112.462C111.214 26.912 109.918 26.96 108.622 27.056C107.758 27.104 106.894 27.152 105.982 27.248L102.718 27.536C101.998 27.584 101.326 27.632 100.606 27.728L97.9181 28.016C97.0061 28.112 96.0461 28.208 95.1341 28.352C94.0301 28.544 92.9741 28.688 91.8701 28.832C89.7101 29.168 87.5021 29.504 85.3421 29.888C84.4301 30.032 83.5181 30.224 82.5581 30.368C80.9741 30.656 79.3421 30.944 77.7101 31.184C76.8461 31.328 75.9821 31.52 75.1181 31.568C74.6861 31.616 74.2541 31.616 73.8701 31.472C73.8221 31.472 73.7261 31.52 73.6781 31.52V31.712C73.8701 32.096 74.2061 32.192 74.5901 32.24C75.0701 32.336 75.5981 32.384 76.1261 32.336C77.1821 32.24 78.2861 32.192 79.3421 32.048C80.4461 31.856 81.5501 31.712 82.7021 31.568C83.6621 31.424 84.6221 31.328 85.5821 31.184C86.4461 31.04 87.3101 30.944 88.1741 30.8C89.0861 30.704 89.9981 30.56 90.9101 30.464L94.1261 30.032C95.6621 29.84 97.2461 29.696 98.8301 29.504C100.27 29.36 101.758 29.264 103.246 29.12L104.878 28.976C105.55 28.928 106.27 28.832 106.99 28.784L111.886 28.496C112.894 28.448 113.95 28.352 115.006 28.352C115.534 28.304 115.63 28.4 115.342 28.928L114.382 30.752C113.47 32.48 112.558 34.208 111.79 35.984C111.214 37.232 110.542 38.432 110.062 39.68L108.766 42.56C108.43 43.376 108.142 44.144 107.806 44.912C107.47 45.776 107.086 46.64 106.75 47.552C106.27 48.944 105.694 50.384 105.166 51.824C104.878 52.736 104.542 53.6 104.254 54.512L103.15 57.92C102.91 58.736 102.574 59.552 102.334 60.416C102.094 61.184 101.854 61.952 101.662 62.72C101.422 63.584 101.134 64.4 100.894 65.216C100.702 65.744 100.606 66.224 100.462 66.752C99.8861 68.288 99.5021 69.92 99.0221 71.504C98.6381 72.8 98.3021 74.144 97.9181 75.44C97.6301 76.448 97.3901 77.504 97.1501 78.512C97.0541 78.848 97.1501 79.04 97.4381 79.04C97.6781 79.088 97.7741 79.184 97.9181 79.328C98.1101 79.472 98.1101 79.472 98.3501 79.28C98.3981 79.184 98.4461 79.184 98.4941 79.28C98.5421 79.376 98.6381 79.376 98.6861 79.328C98.8781 79.184 98.9741 78.992 99.0221 78.752C99.1181 78.416 99.2141 78.032 99.2141 77.696C99.2141 77.36 99.2621 77.072 99.3581 76.784L99.5981 75.824C99.6461 75.632 99.6941 75.488 99.8381 75.344C99.8381 75.008 99.9341 74.768 100.078 74.48C100.078 74.192 100.174 73.904 100.318 73.616V73.664C100.414 73.232 100.558 72.848 100.654 72.416V72.464L100.798 72.08C100.798 71.936 100.846 71.84 100.894 71.696C100.894 71.552 100.942 71.36 101.038 71.216C101.038 71.12 101.086 70.976 101.134 70.88C101.134 70.592 101.23 70.304 101.374 70.016C101.422 69.776 101.47 69.536 101.614 69.296V69.344L101.758 68.96H101.71C101.758 68.624 101.854 68.336 101.998 68.096C102.19 67.472 102.382 66.8 102.574 66.176L102.718 65.84C102.718 65.696 102.766 65.6 102.814 65.456C102.862 65.36 102.91 65.216 102.958 65.12L103.39 63.536C103.438 63.296 103.534 63.104 103.678 62.96C103.774 62.432 103.918 61.904 104.158 61.376C104.206 61.136 104.254 60.896 104.398 60.656C104.398 60.464 104.59 60.368 104.638 60.176V60.032C104.638 59.744 104.734 59.456 104.878 59.216L105.022 58.688C105.07 58.496 105.118 58.304 105.214 58.112C105.31 57.92 105.406 57.728 105.454 57.536C105.454 57.248 105.55 57.008 105.694 56.816C105.886 56.096 106.078 55.376 106.414 54.752C106.414 54.512 106.462 54.32 106.606 54.176C106.798 53.984 106.846 53.744 106.846 53.504C106.846 53.456 106.894 53.36 106.942 53.312C106.942 53.168 106.99 53.072 107.038 52.976C107.086 52.88 107.086 52.784 107.134 52.736C107.086 52.496 107.374 52.448 107.374 52.256V52.208C107.422 52.16 107.422 52.112 107.374 52.016L107.47 51.632C107.518 51.392 107.614 51.152 107.758 50.912C107.806 50.864 107.806 50.864 107.854 50.912L107.998 50.576C107.95 50.48 107.95 50.384 107.998 50.336C108.046 50.192 108.142 50.096 108.238 50C108.19 49.904 108.142 49.76 108.19 49.616C108.238 49.424 108.334 49.184 108.478 48.992C108.478 48.896 108.526 48.752 108.574 48.656C108.622 48.56 108.67 48.464 108.718 48.416C108.718 48.272 108.718 48.128 108.862 48.032C108.862 47.936 108.91 47.888 108.958 47.792C108.958 47.552 109.054 47.36 109.198 47.168C109.198 47.024 109.246 46.928 109.342 46.832C109.342 46.592 109.438 46.4 109.534 46.208L109.822 45.92C109.726 45.824 109.678 45.728 109.774 45.584C109.822 45.488 109.87 45.392 109.918 45.296H110.014C110.014 45.248 109.966 45.248 109.918 45.248C109.966 45.2 109.966 45.104 110.014 45.056C110.11 44.48 110.35 43.952 110.638 43.472L110.734 43.232C110.782 42.992 110.83 42.752 111.022 42.608C110.974 42.368 111.118 42.224 111.214 42.032C111.262 41.936 111.262 41.84 111.358 41.792C111.358 41.552 111.454 41.36 111.598 41.168C111.646 41.072 111.694 41.024 111.694 40.928V40.976C111.742 40.64 111.886 40.352 112.078 40.112C112.126 40.016 112.174 39.968 112.174 39.872C112.222 39.68 112.366 39.632 112.462 39.488L112.414 39.536C112.462 39.44 112.51 39.344 112.558 39.296C112.462 39.104 112.51 38.96 112.606 38.816C112.702 38.528 112.846 38.192 113.038 37.952C113.086 37.856 113.134 37.808 113.134 37.712C113.182 37.616 113.182 37.52 113.278 37.472C113.278 37.376 113.326 37.28 113.374 37.232C113.518 36.752 113.71 36.32 113.998 35.888C114.046 35.84 114.094 35.744 114.094 35.648C114.19 35.312 114.334 34.976 114.574 34.688C114.622 34.64 114.67 34.544 114.718 34.448C114.766 34.4 114.814 34.304 114.814 34.208L114.958 33.968C114.958 33.872 115.006 33.776 115.054 33.728C115.102 33.632 115.102 33.584 115.198 33.488C115.246 33.44 115.294 33.344 115.294 33.248C115.342 33.152 115.342 33.056 115.438 33.008C115.438 32.912 115.486 32.816 115.534 32.768L115.678 32.528C115.678 32.432 115.726 32.336 115.774 32.288C115.822 32.192 115.822 32.096 115.918 32.048C115.918 31.952 115.966 31.856 116.014 31.808C116.062 31.712 116.062 31.616 116.158 31.568C116.206 31.472 116.254 31.424 116.302 31.328H116.254C116.302 31.232 116.35 31.184 116.398 31.088V30.992C116.83 30.176 117.214 29.408 117.646 28.64C117.838 28.304 118.126 28.208 118.51 28.16C119.23 28.16 119.998 28.112 120.718 28.112C123.262 28.016 125.854 27.92 128.398 27.872C130.51 27.824 132.622 27.776 134.686 27.728H140.302C143.614 27.68 146.974 27.728 150.334 27.92C151.438 27.968 152.542 28.064 153.646 28.208C154.462 28.304 155.278 28.4 156.046 28.784C156.142 28.88 156.286 28.976 156.43 28.832C156.478 28.688 156.43 28.592 156.334 28.496ZM121.006 22.064C121.006 22.016 121.054 22.016 121.054 22.064V22.112C121.006 22.112 121.006 22.16 120.958 22.16C121.006 22.112 121.006 22.112 121.006 22.064ZM120.814 23.072H121.006C120.958 23.024 120.862 23.024 120.814 23.072ZM119.518 25.568H119.422C119.422 25.664 119.422 25.712 119.422 25.808L119.518 25.568ZM119.182 26.192H119.038C119.038 26.24 119.038 26.336 119.038 26.384L119.182 26.192ZM116.446 30.32L116.302 30.464C116.446 29.936 116.734 29.504 116.974 29.024C117.07 28.88 117.214 28.688 117.31 28.496C117.358 28.544 117.358 28.592 117.358 28.592C117.118 29.216 116.782 29.792 116.446 30.32ZM116.158 30.752C116.158 30.848 116.158 30.944 116.062 30.992C116.062 31.088 116.014 31.184 115.918 31.232C115.87 31.568 115.678 31.856 115.534 32.144C114.91 33.344 114.334 34.592 113.758 35.84C113.182 37.04 112.606 38.192 112.078 39.44C111.07 41.648 110.158 43.856 109.294 46.112C108.238 48.704 107.278 51.344 106.414 53.936C105.454 56.624 104.542 59.312 103.678 62.048C103.006 64.16 102.286 66.272 101.614 68.384C100.846 70.88 100.078 73.376 99.4061 75.92C99.3581 76.208 99.2621 76.448 99.1181 76.736C99.0701 76.448 99.0701 76.448 99.1181 76.304C99.2141 75.824 99.3581 75.344 99.5021 74.912C100.75 70.448 102.142 66.032 103.582 61.664C104.494 58.784 105.454 55.904 106.462 53.072C107.422 50.288 108.478 47.552 109.534 44.864C110.494 42.512 111.454 40.208 112.51 37.952C113.47 35.84 114.526 33.776 115.582 31.712C115.678 31.52 115.726 31.328 115.918 31.184C115.918 31.088 115.966 31.04 116.062 30.992C116.062 30.896 116.062 30.8 116.158 30.704C116.158 30.608 116.206 30.56 116.302 30.512C116.302 30.608 116.254 30.704 116.158 30.752ZM114.862 34.208H114.814C114.862 34.304 114.862 34.4 114.862 34.448V34.208ZM113.038 34.736L112.942 34.88C112.942 34.832 112.99 34.784 113.038 34.736ZM114.142 35.888C114.142 35.84 114.19 35.744 114.238 35.696C114.19 35.696 114.142 35.648 114.142 35.648V35.888ZM113.182 37.952C113.182 37.856 113.23 37.808 113.278 37.712C113.23 37.712 113.182 37.712 113.182 37.712V37.952ZM111.502 38.096C111.502 38.192 111.454 38.24 111.454 38.288H111.358C111.406 38.24 111.454 38.192 111.502 38.096ZM111.358 38.336C111.31 38.384 111.31 38.48 111.262 38.528C111.262 38.432 111.31 38.384 111.358 38.336ZM111.118 39.152H111.022C111.022 39.104 111.07 39.104 111.118 39.152ZM110.974 39.152C110.974 39.248 110.926 39.296 110.878 39.344C110.878 39.296 110.926 39.2 110.974 39.152ZM110.878 39.392C110.83 39.488 110.83 39.536 110.782 39.584C110.782 39.536 110.83 39.44 110.878 39.392ZM112.222 40.112C112.222 40.016 112.222 39.968 112.174 39.872C112.174 39.968 112.174 40.016 112.174 40.112H112.222ZM112.174 40.112H112.078C112.126 40.16 112.174 40.16 112.174 40.112ZM110.446 40.304C110.446 40.256 110.446 40.256 110.494 40.208C110.494 40.256 110.494 40.304 110.494 40.304L110.398 40.448C110.398 40.4 110.398 40.352 110.446 40.304ZM109.918 41.552C109.918 41.456 109.966 41.36 110.014 41.312C110.014 41.072 110.11 40.88 110.254 40.736V41.072C110.206 41.12 110.158 41.216 110.158 41.312C110.206 41.312 110.206 41.312 110.254 41.312L110.158 41.552C110.11 41.648 110.062 41.792 110.062 41.888V41.552C110.062 41.552 110.11 41.552 110.158 41.552V41.312C110.11 41.312 110.062 41.312 110.014 41.312V41.552C110.014 41.552 109.966 41.552 109.918 41.552V41.888C109.822 41.984 109.822 42.08 109.774 42.128H109.678C109.678 41.936 109.774 41.744 109.918 41.552ZM110.014 41.936C109.966 41.984 109.966 42.08 109.918 42.128C109.918 42.08 109.918 41.984 109.918 41.936H110.014ZM109.678 42.176C109.678 42.272 109.63 42.32 109.534 42.368C109.534 42.272 109.582 42.224 109.678 42.176ZM109.534 42.416C109.534 42.512 109.582 42.608 109.582 42.704C109.486 42.8 109.39 42.896 109.294 42.944C109.342 42.752 109.39 42.56 109.534 42.416ZM109.198 43.232C109.198 43.136 109.246 43.04 109.294 42.992C109.294 43.088 109.294 43.184 109.198 43.232C109.198 43.472 109.102 43.664 108.958 43.808C108.958 43.616 109.054 43.424 109.198 43.232ZM110.782 43.472C110.782 43.376 110.83 43.328 110.878 43.232C110.83 43.232 110.782 43.232 110.782 43.232V43.472ZM108.238 45.632C108.238 45.392 108.286 45.2 108.478 45.056C108.478 44.816 108.574 44.624 108.718 44.432C108.718 44.192 108.766 44 108.958 43.856C108.958 43.952 108.958 44.096 108.958 44.192H109.054C109.054 44.24 109.006 44.24 108.958 44.192C108.862 44.288 108.766 44.336 108.718 44.432C108.718 44.576 108.718 44.672 108.67 44.816C108.622 44.864 108.574 44.96 108.478 45.056C108.478 45.2 108.478 45.296 108.43 45.392C108.382 45.488 108.286 45.536 108.238 45.632C108.238 45.776 108.19 45.872 108.19 46.016L107.998 46.208C107.998 46.016 108.094 45.824 108.238 45.632ZM109.582 46.208H109.534L109.582 46.256V46.208ZM107.758 46.832C107.758 46.592 107.806 46.4 107.998 46.256C107.998 46.352 107.998 46.496 107.95 46.592C107.902 46.688 107.806 46.736 107.758 46.832C107.758 47.072 107.662 47.264 107.518 47.408C107.566 47.216 107.566 46.976 107.758 46.832ZM108.094 46.592C108.094 46.64 108.046 46.64 107.998 46.592H108.094ZM107.47 47.456C107.518 47.552 107.47 47.696 107.374 47.792C107.374 47.648 107.422 47.552 107.47 47.456ZM100.318 69.2C100.318 68.768 100.462 68.384 100.654 68C100.702 67.568 100.798 67.184 101.038 66.8C101.038 66.656 101.038 66.512 101.134 66.416C101.23 65.888 101.374 65.36 101.614 64.88C101.662 64.736 101.662 64.592 101.662 64.448C101.806 63.968 101.95 63.488 102.142 63.008C102.19 62.864 102.238 62.672 102.334 62.576C102.43 61.904 102.622 61.28 102.958 60.656C102.91 60.368 103.006 60.128 103.198 59.936C103.15 59.744 103.246 59.552 103.294 59.36L105.358 53.12C105.406 52.976 105.454 52.832 105.598 52.736C105.598 52.592 105.598 52.448 105.694 52.352C105.742 52.208 105.742 52.064 105.79 51.968C105.934 51.44 106.126 50.96 106.318 50.432C106.366 50.288 106.414 50.192 106.558 50.096C106.558 49.952 106.558 49.808 106.654 49.712C106.702 49.616 106.654 49.52 106.702 49.424C106.894 48.896 107.086 48.416 107.326 47.888C107.326 47.84 107.374 47.84 107.374 47.84V48.176C107.422 48.176 107.47 48.176 107.518 48.176L107.374 48.512C107.374 48.752 107.278 48.944 107.134 49.136C107.134 49.232 107.134 49.376 107.038 49.472C106.99 49.712 106.942 49.904 106.798 50.048C106.798 49.952 106.798 49.856 106.798 49.712H106.654C106.654 49.856 106.654 49.952 106.654 50.096H106.798C106.798 50.192 106.75 50.336 106.654 50.432C106.606 50.528 106.606 50.528 106.558 50.432L106.414 50.816C106.606 51.056 106.462 51.2 106.318 51.392C106.318 51.536 106.27 51.632 106.174 51.776C106.174 51.872 106.126 52.016 106.078 52.112C106.078 52.256 106.03 52.352 105.934 52.448V52.112C105.886 52.208 105.79 52.256 105.694 52.352C105.694 52.496 105.694 52.592 105.694 52.736H105.838C105.79 52.832 105.79 52.976 105.694 53.072C105.694 53.216 105.694 53.312 105.598 53.456C105.55 53.552 105.55 53.696 105.454 53.792C105.454 53.936 105.454 54.08 105.358 54.176C105.358 54.32 105.31 54.416 105.214 54.512C105.214 54.656 105.166 54.752 105.118 54.896C105.118 55.04 105.07 55.136 104.974 55.232C104.974 55.376 104.974 55.52 104.878 55.616C104.83 56 104.686 56.336 104.494 56.72C104.494 56.912 104.446 57.104 104.254 57.2C104.206 57.248 104.158 57.344 104.158 57.392C104.062 57.536 104.062 57.632 104.014 57.776C104.062 57.776 104.11 57.776 104.158 57.776V57.44C104.254 57.536 104.206 57.632 104.158 57.776C104.11 57.92 104.11 58.016 104.014 58.112V57.776C103.966 57.92 103.918 58.016 103.918 58.16H104.014C104.014 58.256 103.966 58.4 103.918 58.496C103.87 58.64 103.87 58.736 103.774 58.832V58.496C103.678 58.592 103.678 58.736 103.678 58.88H103.774C103.774 58.976 103.726 59.12 103.678 59.216C103.63 59.36 103.63 59.456 103.534 59.552V59.216C103.486 59.36 103.438 59.456 103.438 59.6H103.534C103.486 59.6 103.486 59.648 103.438 59.6C103.342 59.696 103.294 59.792 103.294 59.936C103.39 60.08 103.39 60.176 103.294 60.272C103.294 60.176 103.294 60.08 103.294 59.936H103.198C103.198 60.08 103.198 60.176 103.294 60.32C103.294 60.416 103.246 60.56 103.198 60.656L103.054 60.992C103.054 60.896 103.054 60.752 103.054 60.656H102.958C102.958 60.8 102.958 60.944 103.054 61.04C103.054 61.088 103.054 61.232 102.958 61.28C102.862 61.328 102.862 61.424 102.814 61.472C102.766 61.616 102.718 61.712 102.718 61.856H102.67C102.862 62.048 102.766 62.24 102.622 62.336C102.526 62.432 102.478 62.48 102.478 62.576C102.526 62.72 102.526 62.816 102.478 62.96C102.43 63.104 102.43 63.2 102.334 63.296C102.334 63.392 102.334 63.488 102.238 63.536C102.142 63.584 102.142 63.68 102.094 63.776C102.046 63.872 101.998 64.016 101.998 64.112C101.902 64.256 101.902 64.352 101.854 64.496C101.95 64.64 101.95 64.736 101.854 64.88L101.71 65.216C101.71 65.312 101.71 65.408 101.614 65.456C101.518 65.504 101.518 65.6 101.518 65.696C101.422 65.792 101.374 65.936 101.374 66.032V66.08C101.326 66.176 101.278 66.272 101.278 66.416H101.134C101.134 66.56 101.134 66.704 101.038 66.8V67.28C100.942 67.376 100.942 67.472 100.894 67.616C100.846 67.712 100.798 67.856 100.798 68C100.846 68.096 100.846 68.24 100.798 68.336C100.75 68.432 100.75 68.528 100.654 68.576C100.558 68.624 100.558 68.72 100.558 68.816L100.414 69.2C100.558 69.296 100.51 69.44 100.414 69.536C100.414 69.584 100.414 69.632 100.318 69.632C100.318 69.632 100.318 69.584 100.318 69.536H100.174C100.174 69.392 100.174 69.296 100.318 69.2ZM107.374 48.512V48.176C107.278 48.272 107.278 48.368 107.278 48.512H107.374ZM108.718 48.656H108.622C108.622 48.704 108.67 48.656 108.718 48.656ZM107.038 49.136H107.134C107.086 49.088 107.086 49.088 107.038 49.136ZM106.894 49.472H107.038C107.038 49.376 107.038 49.232 107.038 49.136L106.894 49.472ZM106.654 50.432C106.654 50.336 106.654 50.192 106.654 50.096H106.558C106.558 50.192 106.558 50.336 106.558 50.432H106.654ZM107.854 50.912H107.758C107.806 50.96 107.806 50.96 107.854 50.912ZM106.174 51.392H106.318C106.318 51.248 106.318 51.152 106.318 51.056L106.174 51.392ZM106.078 51.776C106.126 51.776 106.126 51.776 106.174 51.776V51.392C106.078 51.488 106.078 51.632 106.078 51.776ZM107.518 51.632H107.47C107.566 51.68 107.614 51.68 107.662 51.68C107.614 51.632 107.566 51.632 107.518 51.632ZM105.934 52.112C105.982 52.112 106.03 52.112 106.078 52.112V51.776C105.982 51.872 105.982 52.016 105.934 52.112ZM105.694 53.072C105.694 52.976 105.694 52.832 105.694 52.736H105.598C105.598 52.832 105.598 52.976 105.598 53.072H105.694ZM105.454 53.456H105.598C105.598 53.312 105.598 53.216 105.598 53.072L105.454 53.456ZM105.358 53.792C105.406 53.792 105.406 53.792 105.454 53.792V53.456C105.358 53.552 105.358 53.696 105.358 53.792ZM105.214 54.176H105.358C105.358 54.032 105.358 53.936 105.358 53.792L105.214 54.176ZM105.118 54.512C105.166 54.512 105.166 54.512 105.214 54.512V54.176C105.118 54.272 105.118 54.416 105.118 54.512ZM104.974 54.896C105.022 54.896 105.07 54.896 105.118 54.896V54.512C105.022 54.656 105.022 54.752 104.974 54.896ZM106.462 54.752H106.414L106.462 54.8V54.752ZM104.878 55.232C104.926 55.232 104.926 55.232 104.974 55.232V54.896C104.878 54.992 104.878 55.136 104.878 55.232ZM104.734 55.568C104.782 55.616 104.83 55.616 104.878 55.616V55.232C104.782 55.328 104.782 55.472 104.734 55.568ZM104.446 56.576C104.398 56.576 104.398 56.624 104.398 56.672C104.398 56.672 104.446 56.672 104.494 56.72C104.494 56.672 104.494 56.576 104.446 56.576ZM104.35 56.72L104.398 56.672H104.35V56.72ZM105.262 58.112H105.214V58.16L105.262 58.112ZM103.918 58.496V58.16C103.87 58.256 103.822 58.4 103.774 58.496H103.918ZM103.678 59.216V58.88C103.63 58.976 103.582 59.12 103.534 59.216H103.678ZM103.054 60.656H103.198C103.15 60.56 103.102 60.608 103.054 60.656ZM100.078 70.064C100.078 69.872 100.078 69.728 100.174 69.584V70.064C100.318 70.304 100.174 70.544 100.03 70.784H100.078C100.03 70.832 100.03 70.928 99.9341 70.976C99.8381 71.024 99.8381 71.168 99.8381 71.216C99.7421 71.36 99.6461 71.456 99.5981 71.552C99.6941 71.024 99.7901 70.496 100.078 70.064ZM99.2141 72.896C99.2621 72.752 99.2621 72.608 99.3101 72.416C99.3581 72.128 99.4541 71.84 99.5501 71.6C99.5501 71.744 99.5981 71.888 99.5981 72.032C99.5021 72.176 99.4541 72.272 99.4541 72.416H99.3101C99.3101 72.608 99.3581 72.752 99.3581 72.896H99.2141C99.2141 73.04 99.1661 73.184 99.1181 73.28C99.1181 73.136 99.1181 73.04 99.2141 72.896ZM98.9741 73.712C98.9741 73.568 99.0221 73.424 99.1181 73.328C99.0701 73.472 99.0701 73.616 98.9741 73.712ZM98.8781 74.144C98.8781 74.288 98.8781 74.432 98.8781 74.576H98.7341C98.7341 74.432 98.7821 74.288 98.8781 74.144C98.8781 74 98.8781 73.856 98.9741 73.76C98.9741 73.904 98.9261 74 98.8781 74.144ZM98.5901 75.056C98.6381 74.912 98.6381 74.768 98.7341 74.624C98.7341 74.72 98.7341 74.816 98.7821 74.96C98.7821 75.056 98.7341 75.104 98.5901 75.056ZM98.5901 75.44C98.5901 75.44 98.5421 75.44 98.4941 75.392C98.5421 75.296 98.5421 75.2 98.5901 75.104V75.44Z" fill="#D1D1D1"/>
</svg>
