<svg width="34" height="34" viewBox="0 0 34 34" fill="none" xmlns="http://www.w3.org/2000/svg">
<path d="M12.9706 5.99427C14.3463 5.89601 15.6238 5.79774 16.9995 5.60121C16.9995 5.40468 16.9012 5.10988 16.7047 4.81508C16.0168 3.83242 14.248 3.53763 13.4619 4.42202C12.8723 4.91335 12.8723 5.69948 12.9706 5.99427Z" fill="#50254A"/>
<path d="M20.9303 5.99427C19.5545 5.89601 18.2771 5.79774 16.9014 5.60121C16.9014 5.40468 16.9996 5.10988 17.1962 4.81508C17.884 3.83242 19.6528 3.53763 20.4389 4.42202C21.0285 4.91335 20.9303 5.69948 20.9303 5.99427Z" fill="#50254A"/>
<path d="M16.9011 5.10986C16.9011 5.10986 14.7393 5.40466 14.7393 7.66478C14.7393 9.92489 16.9011 11.2023 16.9011 11.2023C16.9011 11.2023 19.063 9.82663 19.063 7.66478C19.063 5.50293 16.9011 5.10986 16.9011 5.10986Z" fill="#883F71"/>
<path d="M17.7858 5.60107H16.2135C15.9187 5.79761 15.7222 6.19067 15.7222 6.682C15.7222 8.05772 16.9014 8.84385 16.9014 8.84385C16.9014 8.84385 18.0805 7.95946 18.0805 6.682C18.1788 6.19067 17.9823 5.79761 17.7858 5.60107Z" fill="#50254A"/>
<path d="M16.9012 0.196533C16.9012 0.196533 15.4272 1.37572 15.4272 3.34104C15.4272 5.30636 16.9012 5.60116 16.9012 5.60116C16.9012 5.60116 18.3752 5.30636 18.3752 3.34104C18.4735 1.37572 16.9012 0.196533 16.9012 0.196533Z" fill="#883F71" stroke="white" stroke-width="0.2712" stroke-miterlimit="10"/>
<path d="M16.9013 5.7977C16.5082 5.60117 15.5256 5.20811 14.3464 5.40464C12.8724 5.60117 11.2019 6.78036 11.0053 8.35261C11.0053 8.54915 10.9071 9.63007 11.5949 10.5145C12.2828 11.3006 13.462 11.5954 14.6412 11.3989C14.2481 11.2023 13.7568 10.711 13.462 10.0231C12.8724 8.54915 13.8551 6.68209 15.2308 6.0925C15.9186 5.69944 16.6065 5.69944 16.9013 5.7977Z" fill="#883F71"/>
<path d="M16.9014 5.7977C17.2944 5.60117 18.2771 5.20811 19.4563 5.40464C20.9303 5.60117 22.6008 6.78036 22.7973 8.35261C22.7973 8.54915 22.8956 9.63007 22.2077 10.5145C21.5199 11.3006 20.3407 11.5954 19.1615 11.3989C19.5545 11.2023 20.0459 10.711 20.3407 10.0231C20.9303 8.54915 19.9476 6.68209 18.5719 6.0925C17.9823 5.69944 17.2944 5.69944 16.9014 5.7977Z" fill="#883F71"/>
<path d="M14.6411 6.68212C14.6411 6.68212 15.329 5.69946 16.9995 5.69946C18.67 5.69946 19.3579 6.68212 19.3579 6.68212" stroke="white" stroke-width="0.1806" stroke-miterlimit="10"/>
<path d="M5.99379 21.0289C5.89552 19.6532 5.79725 18.3757 5.60072 17C5.40419 17 5.10939 17.0983 4.8146 17.2948C3.83194 17.9827 3.53714 19.7514 4.42153 20.5376C4.91286 21.1272 5.69899 21.1272 5.99379 21.0289Z" fill="#50254A"/>
<path d="M5.99379 13.0694C5.89552 14.4451 5.79725 15.7226 5.60072 17.0983C5.40419 17.0983 5.10939 17 4.8146 16.8035C3.83194 16.1156 3.53714 14.3468 4.42153 13.5607C4.91286 12.9711 5.69899 13.0694 5.99379 13.0694Z" fill="#50254A"/>
<path d="M5.10938 17.0983C5.10938 17.0983 5.40417 19.2602 7.66429 19.2602C9.82614 19.2602 11.2019 17.0983 11.2019 17.0983C11.2019 17.0983 9.82614 14.9365 7.66429 14.9365C5.50244 14.8382 5.10938 17.0983 5.10938 17.0983Z" fill="#883F71"/>
<path d="M5.60107 16.3122V17.8844C5.79761 18.081 6.19067 18.2775 6.682 18.2775C8.05772 18.2775 8.84385 17.0983 8.84385 17.0983C8.84385 17.0983 7.95946 15.9191 6.682 15.9191C6.19067 15.8209 5.79761 16.0174 5.60107 16.3122Z" fill="#50254A"/>
<path d="M0.196289 17.0983C0.196289 17.0983 1.37548 18.5723 3.3408 18.5723C5.30612 18.5723 5.60091 17.0983 5.60091 17.0983C5.60091 17.0983 5.30612 15.6243 3.3408 15.6243C1.37548 15.526 0.196289 17.0983 0.196289 17.0983Z" fill="#883F71" stroke="white" stroke-width="0.2712" stroke-miterlimit="10"/>
<path d="M5.79721 17.0984C5.60068 17.4915 5.20762 18.4741 5.40415 19.6533C5.60068 21.1273 6.77987 22.7978 8.35213 22.9943C8.54866 22.9943 9.62958 23.0926 10.514 22.4047C11.3001 21.7169 11.5949 20.5377 11.3984 19.3585C11.2018 19.7516 10.7105 20.2429 10.0226 20.5377C8.54866 21.1273 6.68161 20.1446 6.09201 18.7689C5.69895 18.081 5.69895 17.4915 5.79721 17.0984Z" fill="#883F71"/>
<path d="M5.79721 17.0983C5.60068 16.7053 5.20762 15.7226 5.40415 14.5434C5.60068 13.0694 6.77987 11.3989 8.35213 11.2024C8.54866 11.2024 9.62958 11.1041 10.514 11.792C11.3001 12.4798 11.5949 13.659 11.3984 14.8382C11.2018 14.4451 10.7105 13.9538 10.0226 13.659C8.54866 13.0694 6.68161 14.0521 6.09201 15.4278C5.69895 16.1157 5.69895 16.7053 5.79721 17.0983Z" fill="#883F71"/>
<path d="M6.68188 19.3584C6.68188 19.3584 5.69922 18.6705 5.69922 17C5.69922 15.3295 6.68188 14.6416 6.68188 14.6416" stroke="white" stroke-width="0.1806" stroke-miterlimit="10"/>
<path d="M21.0289 28.0056C19.6532 28.1039 18.3757 28.2021 17 28.3987C17 28.5952 17.0983 28.89 17.2948 29.1848C17.9827 30.1675 19.7514 30.4623 20.5376 29.5779C21.1272 29.0865 21.1272 28.3004 21.0289 28.0056Z" fill="#50254A"/>
<path d="M13.0691 28.0056C14.4449 28.1039 15.7223 28.2021 17.098 28.3987C17.098 28.5952 16.9998 28.89 16.8032 29.1848C16.1154 30.1675 14.3466 30.4623 13.5605 29.5779C12.9709 29.0865 13.0691 28.3004 13.0691 28.0056Z" fill="#50254A"/>
<path d="M17.0979 28.8901C17.0979 28.8901 19.2597 28.5953 19.2597 26.3352C19.2597 24.0751 17.0979 22.7976 17.0979 22.7976C17.0979 22.7976 14.936 24.1733 14.936 26.3352C14.936 28.497 17.0979 28.8901 17.0979 28.8901Z" fill="#883F71"/>
<path d="M16.3122 28.3988H17.8844C18.081 28.2022 18.2775 27.8092 18.2775 27.3179C18.2775 25.9421 17.0983 25.156 17.0983 25.156C17.0983 25.156 15.9191 26.0404 15.9191 27.3179C15.8209 27.8092 16.0174 28.2022 16.3122 28.3988Z" fill="#50254A"/>
<path d="M17.098 33.8033C17.098 33.8033 18.572 32.6241 18.572 30.6588C18.572 28.6935 17.098 28.3987 17.098 28.3987C17.098 28.3987 15.6241 28.6935 15.6241 30.6588C15.5258 32.6241 17.098 33.8033 17.098 33.8033Z" fill="#883F71" stroke="white" stroke-width="0.2712" stroke-miterlimit="10"/>
<path d="M17.0981 28.3005C17.4912 28.497 18.4739 28.8901 19.6531 28.6936C21.127 28.497 22.7976 27.3178 22.9941 25.7456C22.9941 25.5491 23.0924 24.4681 22.4045 23.5837C21.7166 22.7976 20.5375 22.5028 19.3583 22.6993C19.7513 22.8959 20.2427 23.3872 20.5375 24.0751C21.127 25.5491 20.1444 27.4161 18.7687 28.0057C18.0808 28.3005 17.4912 28.3005 17.0981 28.3005Z" fill="#883F71"/>
<path d="M17.0981 28.3005C16.705 28.497 15.7224 28.8901 14.5432 28.6936C13.0692 28.497 11.3987 27.3178 11.2021 25.7456C11.2021 25.5491 11.1039 24.4681 11.7917 23.5837C12.4796 22.7976 13.6588 22.5028 14.838 22.6993C14.4449 22.8959 13.9536 23.3872 13.6588 24.0751C13.0692 25.5491 14.0518 27.4161 15.4276 28.0057C16.1154 28.3005 16.705 28.3005 17.0981 28.3005Z" fill="#883F71"/>
<path d="M19.3584 27.3179C19.3584 27.3179 18.6705 28.3005 17 28.3005C15.3295 28.3005 14.6416 27.3179 14.6416 27.3179" stroke="white" stroke-width="0.1806" stroke-miterlimit="10"/>
<path d="M28.0054 12.9711C28.1036 14.3468 28.2019 15.6243 28.3984 17C28.595 17 28.8898 16.9017 29.1846 16.7052C30.1672 16.0173 30.462 14.2485 29.5776 13.4624C29.0863 12.8728 28.3002 12.8728 28.0054 12.9711Z" fill="#50254A"/>
<path d="M28.0054 20.9305C28.1036 19.5548 28.2019 18.2773 28.3984 16.9016C28.595 16.9016 28.8898 16.9999 29.1846 17.1964C30.1672 17.8843 30.462 19.6531 29.5776 20.4392C29.0863 21.0288 28.3002 20.9305 28.0054 20.9305Z" fill="#50254A"/>
<path d="M28.8898 16.9018C28.8898 16.9018 28.5951 14.74 26.3349 14.74C24.0748 14.74 22.7974 16.9018 22.7974 16.9018C22.7974 16.9018 24.1731 19.0637 26.3349 19.0637C28.4968 19.0637 28.8898 16.9018 28.8898 16.9018Z" fill="#883F71"/>
<path d="M28.3985 17.7861V16.2139C28.202 16.0173 27.8089 15.8208 27.3176 15.8208C25.9419 15.8208 25.1558 17 25.1558 17C25.1558 17 26.0402 18.1792 27.3176 18.1792C27.8089 18.1792 28.202 17.9827 28.3985 17.7861Z" fill="#50254A"/>
<path d="M33.8031 16.9017C33.8031 16.9017 32.6239 15.4277 30.6586 15.4277C28.6932 15.4277 28.3984 16.9017 28.3984 16.9017C28.3984 16.9017 28.6932 18.3757 30.6586 18.3757C32.6239 18.474 33.8031 16.9017 33.8031 16.9017Z" fill="#883F71" stroke="white" stroke-width="0.2712" stroke-miterlimit="10"/>
<path d="M28.3003 16.9018C28.4968 16.5087 28.8898 15.5261 28.6933 14.3469C28.4968 12.8729 27.3176 11.2024 25.7453 11.0058C25.5488 11.0058 24.4679 10.9076 23.5835 11.5954C22.7974 12.2833 22.5026 13.4625 22.6991 14.6417C22.8956 14.2486 23.387 13.7573 24.0748 13.4625C25.5488 12.8729 27.4159 13.8555 28.0055 15.2313C28.3003 15.9191 28.3003 16.607 28.3003 16.9018Z" fill="#883F71"/>
<path d="M28.3003 16.9019C28.4968 17.2949 28.8898 18.2776 28.6933 19.4568C28.4968 20.9308 27.3176 22.6013 25.7453 22.7978C25.5488 22.7978 24.4679 22.8961 23.5835 22.2082C22.7974 21.5204 22.5026 20.3412 22.6991 19.162C22.8956 19.555 23.387 20.0464 24.0748 20.3412C25.5488 20.9308 27.4159 19.9481 28.0055 18.5724C28.3003 17.9828 28.3003 17.2949 28.3003 16.9019Z" fill="#883F71"/>
<path d="M27.3174 14.6416C27.3174 14.6416 28.3 15.3295 28.3 17C28.3 18.6705 27.3174 19.3584 27.3174 19.3584" stroke="white" stroke-width="0.1806" stroke-miterlimit="10"/>
<path d="M16.9998 17.0001C17.1963 17.0001 17.2945 17.0984 17.3928 17.1966C17.4911 17.0001 17.5893 16.7053 17.5893 16.4105C17.5893 15.6244 16.9998 15.2313 16.9998 15.1331C16.9015 15.1331 16.4102 15.6244 16.4102 16.4105C16.4102 16.8036 16.5084 17.0001 16.6067 17.1966C16.705 17.0984 16.8032 17.0001 16.9998 17.0001Z" fill="#50254A"/>
<path d="M16.5084 17.5898C16.5084 17.4915 16.5084 17.4915 16.5084 17.5898C16.2136 17.4915 15.9188 17.5898 15.624 17.7863C14.9362 18.1794 14.8379 18.8673 14.8379 18.9655C14.9362 18.9655 15.624 19.2603 16.2136 18.8673C16.6067 18.6707 16.8032 18.3759 16.9015 18.1794C16.6067 17.9829 16.5084 17.7863 16.5084 17.5898Z" fill="#50254A"/>
<path d="M18.4737 17.688C18.1789 17.4915 17.8842 17.4915 17.5894 17.4915C17.5894 17.4915 17.5894 17.4915 17.5894 17.5897C17.5894 17.8845 17.3928 18.0811 17.1963 18.0811C17.2946 18.2776 17.4911 18.5724 17.8842 18.7689C18.572 19.162 19.2599 18.8672 19.2599 18.8672C19.1616 18.7689 19.0633 18.0811 18.4737 17.688Z" fill="#50254A"/>
</svg>
