<svg width="34" height="34" viewBox="0 0 34 34" fill="none" xmlns="http://www.w3.org/2000/svg">
<path d="M19.5453 12.952C19.0035 12.7782 18.2061 12.584 17.2248 12.5738C16.1821 12.5636 15.3336 12.7782 14.7714 12.9622C14.9554 11.0711 15.0678 8.96525 15.0678 6.67541C15.0576 4.37535 14.935 2.26952 14.7407 0.368134C15.2314 0.214797 16.0288 0.010347 17.0306 0.000124473C18.1244 -0.010098 18.9933 0.194352 19.5044 0.357912C19.3306 2.25929 19.2182 4.3549 19.2284 6.63452C19.2386 8.92436 19.3613 11.0404 19.5453 12.952Z" fill="#367765"/>
<path d="M19.2386 8.00429C18.6764 8.11674 17.9608 8.21897 17.143 8.21897C16.3355 8.21897 15.6301 8.12696 15.0679 8.01452C15.0679 7.63628 15.0679 7.24783 15.0679 6.8696C15.6301 6.98204 16.3457 7.08427 17.1737 7.08427C17.9813 7.08427 18.6866 6.98204 19.2386 6.85938C19.2386 7.24783 19.2386 7.62606 19.2386 8.00429Z" fill="#0D412D"/>
<path d="M25.8732 12.7168C25.5257 12.6964 23.9719 12.5635 22.7452 11.255C21.6514 10.0896 21.5082 8.74026 21.4878 8.35181C21.866 8.38247 23.4096 8.56648 24.6363 9.8954C25.6586 11.0199 25.8426 12.2977 25.8732 12.7168Z" fill="#367765"/>
<path d="M21.5283 25.9653C21.5488 25.6177 21.6817 24.0639 22.9901 22.8372C24.1555 21.7434 25.5049 21.6003 25.8933 21.5798C25.8627 21.9581 25.6787 23.5017 24.3497 24.7284C23.2355 25.7506 21.9577 25.9244 21.5283 25.9653Z" fill="#367765"/>
<path d="M12.9314 8.37231C12.911 8.71988 12.7781 10.2737 11.4696 11.5004C10.3042 12.5942 8.95486 12.7373 8.56641 12.7578C8.59707 12.3795 8.78108 10.8359 10.11 9.60924C11.2243 8.58699 12.5021 8.4132 12.9314 8.37231Z" fill="#367765"/>
<path d="M8.58691 21.6206C8.93448 21.6411 10.4883 21.7739 11.715 23.0824C12.8088 24.2478 12.9519 25.5972 12.9724 25.9856C12.5941 25.9549 11.0505 25.7709 9.82384 24.442C8.79136 23.3278 8.61758 22.05 8.58691 21.6206Z" fill="#367765"/>
<path d="M12.9518 14.8125C12.7984 15.385 12.6655 16.1414 12.6553 17.0308C12.6349 18.0735 12.7984 18.9526 12.9722 19.5864C11.0811 19.4024 8.97523 19.29 6.68539 19.29C4.38533 19.3002 2.26927 19.4228 0.378112 19.6171C0.214553 19.1264 0.0101028 18.329 -0.000119667 17.3272C-0.0103422 16.2334 0.194108 15.3645 0.357667 14.8534C2.25905 15.0272 4.35466 15.1396 6.63428 15.1294C8.92411 15.1192 11.0402 14.9965 12.9518 14.8125Z" fill="#367765"/>
<path d="M8.00429 15.1191C8.11674 15.6814 8.21897 16.397 8.21897 17.2148C8.21897 18.0223 8.12696 18.7277 8.01452 19.2899C7.63628 19.2899 7.24783 19.2899 6.8696 19.2899C6.98204 18.7277 7.08427 18.0121 7.08427 17.1841C7.08427 16.3765 6.98204 15.6712 6.85938 15.1191C7.24783 15.1191 7.62606 15.1191 8.00429 15.1191Z" fill="#0D412D"/>
<path d="M14.8125 21.4059C15.2725 21.2015 16.1108 20.8948 17.2046 20.8948C18.2881 20.8948 19.1264 21.1912 19.5762 21.3957C19.3922 23.2868 19.2797 25.3927 19.2797 27.6825C19.29 29.9826 19.4126 32.0884 19.6068 33.9898C19.1571 33.7853 18.3597 33.4991 17.3272 33.4787C16.1823 33.4582 15.3134 33.7853 14.8432 34C15.017 32.0986 15.1294 30.003 15.1192 27.7234C15.1294 25.4336 15.0067 23.3175 14.8125 21.4059Z" fill="#367765"/>
<path d="M15.1191 26.3536C15.6814 26.2411 16.397 26.1389 17.2148 26.1389C18.0223 26.1389 18.7277 26.2309 19.2899 26.3434C19.2899 26.7216 19.2899 27.1101 19.2899 27.4883C18.7277 27.3758 18.0121 27.2736 17.1841 27.2736C16.3765 27.2736 15.6712 27.3758 15.1191 27.4985C15.1191 27.1203 15.1191 26.7318 15.1191 26.3536Z" fill="#0D412D"/>
<path d="M21.4057 19.5456C21.2012 19.0856 20.8945 18.2473 20.8945 17.1535C20.8945 16.0699 21.191 15.2317 21.3954 14.7819C23.2866 14.9659 25.3924 15.0783 27.6823 15.0783C29.9823 15.0681 32.0882 14.9454 33.9895 14.7512C33.8158 15.3441 33.6317 16.213 33.6522 17.2762C33.6726 18.1962 33.8362 18.9731 34.01 19.5251C32.1086 19.3513 30.013 19.2389 27.7334 19.2491C25.4333 19.2389 23.3173 19.3616 21.4057 19.5456Z" fill="#367765"/>
<path d="M26.3533 19.2389C26.2409 18.6767 26.1387 17.9611 26.1387 17.1433C26.1387 16.3357 26.2307 15.6304 26.3431 15.0681C26.7214 15.0681 27.1098 15.0681 27.488 15.0681C27.3756 15.6304 27.2734 16.3459 27.2734 17.1739C27.2734 17.9815 27.3756 18.6869 27.4983 19.2389C27.12 19.2389 26.7316 19.2389 26.3533 19.2389Z" fill="#0D412D"/>
</svg>
